<?xml version="1.0" standalone="no"?>
<!DOCTYPE svg PUBLIC "-//W3C//DTD SVG 1.1//EN" "http://www.w3.org/Graphics/SVG/1.1/DTD/svg11.dtd">
<svg xmlns="http://www.w3.org/2000/svg">
<metadata>Generated by Fontastic.me</metadata>
<defs>
<font id="relaxandorder-bartender" horiz-adv-x="512">
<font-face font-family="relaxandorder-bartender" units-per-em="512" ascent="480" descent="-32"/>
<missing-glyph horiz-adv-x="512" />

<glyph unicode="&#97;" d="M391 457c14 0 28-1 41-8 11-7 20-16 26-26 16-25 13-60-6-82-8-10-19-18-32-22-9-4-20-5-29-4-3 1-6 4-5 8 1 2 2 4 5 4 5 0 11-1 16 1 13 2 25 9 34 18 17 18 21 48 8 69-6 10-13 18-23 23-11 6-25 8-38 6-12-1-24-7-32-16-11-10-16-24-17-37-1-5-7-7-10-4-2 1-3 3-2 5 1 13 5 25 12 35 4 5 9 10 13 14 11 9 25 15 39 16z m-22-32c8 6 19 9 29 9-1-13-2-26-4-40-8 11-17 21-25 31z m36 9c10-2 20-7 27-14-10-9-20-18-30-26 1 13 2 26 3 40z m-55-41c1 10 6 20 13 27 9-10 17-20 26-30-13 1-26 2-39 3z m57-5c10 9 20 17 30 26 6-9 9-19 9-29-13 1-26 2-39 3z m-1-7c13-1 26-2 39-3-2-10-7-20-14-27-8 10-17 20-25 30z m-353-3c4 2 8 2 12 2 102 0 203 0 305 0 6 0 13-1 17-6 6-5 5-14 0-20-8-9-16-18-24-27-31-35-61-70-92-105-4-4-6-8-10-10-5-4-11-7-16-9-5-1-9-3-13-3 0-27 0-54 0-81-1-13 5-27 16-34 11-9 22-18 33-27 3-2 7-4 8-8 0-3-3-5-6-5-38 0-76 0-114 0-3 0-7 1-7 4 0 3 2 5 4 7 12 10 23 20 35 30 4 3 6 7 8 11 3 5 5 11 5 16 0 29 0 58 0 87-6 0-12 2-17 4-7 2-13 6-18 11-42 45-84 89-126 134-3 3-7 7-9 12-2 7 2 15 9 17z m347-2c9-10 17-20 25-29-8-6-18-9-28-9 1 13 2 25 3 38z m-335-14c102 0 204 0 306 0-39-44-78-88-116-132-6-6-14-10-23-12-6 0-13 0-19 0-8 1-16 4-21 10-43 45-85 89-127 134z m141-122c10 0 20 0 31 0-4-3-7-7-12-8-4 0-7-1-10 1-4 1-6 4-9 7z"/>
<glyph unicode="&#98;" d="M391 457c14 0 28-1 41-8 11-7 20-16 26-26 16-25 13-60-6-82-8-10-19-18-32-22-9-4-20-5-29-4-3 1-6 4-5 8 1 2 2 4 5 4 4 0 9 0 14 0 24 3 45 22 50 46 3 13 2 27-4 39-6 11-14 21-26 26-11 6-24 8-36 6-13-1-24-7-33-16-10-9-16-21-17-34 0-3 0-5-2-7-2-2-6-2-8 0-2 1-3 3-2 5 0 10 3 21 8 30 5 8 12 15 20 21 10 8 23 13 36 14z m-22-32c8 6 19 9 29 9-1-13-2-26-4-40-8 11-17 21-25 31z m36 9c10-2 20-7 27-14-10-9-20-18-30-26 1 13 2 26 3 40z m-55-41c1 10 6 20 13 27 9-10 17-20 26-30-13 1-26 2-39 3z m57-5c10 9 20 17 30 26 6-9 9-19 9-29-13 1-26 2-39 3z m-1-7c13-1 26-2 39-3-2-10-7-20-14-27-8 10-17 20-25 30z m-353-3c4 2 8 2 12 2 102 0 203 0 305 0 6 0 13-1 17-6 6-5 5-14 0-20-7-8-14-16-22-25-31-35-62-70-93-106-3-3-5-6-8-9-6-5-13-9-20-11-4-2-8-3-12-3 0-28 0-57 0-86 0-10 5-20 12-26 14-12 28-23 42-34 1-1 3-3 3-6-1-2-4-3-7-3-37 0-75 0-113 0-3 0-6 0-7 3-1 1 0 3 1 4 1 2 3 4 5 6 11 9 22 18 33 28 3 3 6 7 8 11 3 5 5 11 5 17 0 28 0 56 0 84 0 1 0 2 0 2-6 0-12 2-17 4-8 3-15 7-20 13-43 45-85 91-128 136-2 2-4 6-5 9-1 7 3 14 9 16z m347-2c9-10 17-20 25-29-8-6-18-9-28-9 1 13 2 25 3 38z m-335-14c102 0 204 0 305 0-38-44-77-88-116-132-5-6-13-10-21-12-7 0-14 0-20 0-9 1-18 6-24 13-41 44-83 87-124 131z m134-114c2 0 3 0 4 0 12 0 23 0 34 0 2 0 4 0 6-1-6-6-12-12-19-15-4-1-7 1-9 2-6 4-12 8-16 14z"/>
<glyph unicode="&#99;" d="M391 457c14 0 28-1 41-8 11-7 20-16 26-26 15-23 14-54-1-76-9-13-22-23-37-28-9-4-20-5-29-4-3 1-6 4-5 8 1 2 2 4 5 4 4 0 9 0 14 0 24 3 45 22 50 46 3 13 2 27-4 39-5 10-13 19-23 25-9 6-21 8-32 8-15 0-29-6-40-17-10-9-16-22-17-36 0-2-1-5-4-6-4-2-9 2-8 6 1 13 5 25 12 35 4 5 9 10 13 14 11 9 25 15 39 16z m-22-32c8 6 19 9 29 9-1-13-2-26-4-40-8 11-17 21-25 31z m36 9c10-2 20-7 27-14-10-9-20-17-30-26 1 13 2 26 3 40z m-55-41c1 10 6 20 13 27 9-10 17-20 26-30-13 1-26 2-39 3z m57-5c10 9 20 17 30 26 6-9 9-19 9-29-13 1-26 2-39 3z m-1-7c13-1 26-2 39-3-2-10-7-20-14-27-8 10-17 20-25 30z m-353-3c4 2 8 2 12 2 99 0 198 0 296 0 5 0 11 0 16 0 5-1 10-3 12-8 2-3 2-7 2-11-1-4-4-7-6-10-40-45-79-90-119-134-4-6-10-9-17-12-5-3-11-5-17-5 0-28 0-57 0-86 0-10 5-20 12-26 14-12 28-23 42-34 1-1 3-3 3-6-1-2-4-3-7-3-37 0-75 0-113 0-3 0-7 1-7 4 0 3 2 5 4 7 12 10 23 20 35 30 5 4 8 9 10 15 2 4 3 9 3 14 0 28 0 57 0 85-6 0-12 2-17 4-7 2-13 6-18 11-43 46-87 92-130 138-2 2-4 6-5 9-1 7 3 14 9 16z m347-2c9-10 17-20 25-29-8-6-18-9-28-9 1 13 2 25 3 38z m-335-14c102 0 204 0 305 0-38-44-77-88-116-132-5-6-13-10-21-12-5 0-10 0-15 0-10 0-20 3-27 10-42 45-84 89-126 134z m128-106c2 0 5 0 7 0 15 0 30 0 44 0 2 0 4 0 4-2 1-2-2-3-3-5-6-7-13-13-21-17-2-1-5 0-6 1-8 5-15 11-22 17-1 2-3 3-3 6z"/>
<glyph unicode="&#100;" d="M391 457c14 0 28-1 41-8 11-7 20-16 26-26 16-25 13-60-6-82-8-10-19-18-32-22-9-4-20-5-29-4-3 1-6 4-5 8 1 2 2 4 5 4 4 0 9 0 14 0 24 3 45 22 50 46 3 13 2 27-4 39-6 11-14 21-26 26-11 6-24 8-36 6-13-1-24-7-33-16-10-9-16-22-17-35 0-3-1-6-4-7-4-2-9 2-8 6 0 9 3 18 7 26 5 10 13 18 21 25 11 8 23 13 36 14z m-22-32c8 6 19 9 29 9-1-13-2-26-4-40-8 11-17 21-25 31z m36 9c10-2 20-7 27-14-10-9-20-18-30-26 1 13 2 26 3 40z m-55-41c1 10 6 20 13 27 9-10 17-20 26-30-13 1-26 2-39 3z m57-5c10 9 20 17 30 26 6-9 9-19 9-29-13 1-26 2-39 3z m-1-7c13-1 26-2 39-3-2-10-7-20-14-27-8 10-17 20-25 30z m-353-3c4 2 8 2 12 2 102 0 203 0 305 0 7 0 14-1 18-7 5-6 3-15-2-20-37-43-75-85-112-128-6-6-11-13-18-17-8-4-16-7-24-8 0-28 0-57 0-86 0-10 5-20 12-26 14-11 28-23 42-34 1-1 3-3 3-6-1-2-4-3-7-3-37 0-75 0-113 0-3 0-7 1-7 4 0 3 2 5 4 7 11 9 22 19 34 29 2 2 4 4 6 7 4 6 8 14 8 22 0 29 0 57 0 86-6 0-12 2-17 4-7 2-13 6-18 11-43 46-87 92-130 138-2 2-4 6-5 9-1 7 3 14 9 16z m347-2c9-10 17-20 25-29-8-6-18-9-28-9 1 13 2 25 3 38z m-335-14c102 0 204 0 305 0-38-44-77-88-116-132-3-4-8-7-13-9-3-2-7-3-11-3-6 0-12 0-18 0-8 1-17 5-22 12-42 44-83 88-125 132z m121-100c4 1 8 1 12 1 18 0 35 0 52 0 2 0 4 0 4-1 1-2 0-3-1-4-8-9-17-19-28-25-2-2-5-2-7 0-11 7-21 17-30 27-1 1-1 2-2 2z"/>
<glyph unicode="&#101;" d="M391 457c14 0 28-1 41-8 11-7 20-16 26-26 16-25 13-60-6-82-8-10-19-18-32-22-9-4-20-5-29-4-3 1-6 4-5 8 1 2 2 4 5 4 4 0 9 0 14 0 24 3 45 22 50 46 3 13 2 27-4 39-6 11-14 21-26 26-11 6-24 8-36 6-13-1-24-7-33-16-10-9-16-21-17-34 0-3 0-5-2-7-2-2-5-2-8-1-1 2-3 3-2 5 0 10 3 19 7 27 5 10 13 18 21 25 11 8 23 13 36 14z m-22-32c8 6 19 9 29 9-1-13-2-26-4-40-8 11-17 21-25 31z m36 9c10-2 20-7 27-14-10-9-20-17-30-26 1 13 2 26 3 40z m-55-41c1 10 6 20 13 27 9-10 17-20 26-30-13 1-26 2-39 3z m57-5c10 9 20 17 30 26 6-9 9-19 9-29-13 1-26 2-39 3z m-1-7c13-1 26-2 39-3-2-10-7-20-14-27-8 10-17 20-25 30z m-353-3c4 2 8 2 12 2 102 0 203 0 305 0 7 0 14-1 18-7 5-6 3-15-2-20-38-43-75-86-113-129-3-3-6-6-9-9-5-6-13-9-20-12-4-2-8-3-12-3 0-28 0-57 0-86 0-11 6-22 15-29 12-10 24-19 36-29 2-1 6-4 6-7 0-3-4-4-7-4-37 0-75 0-113 0-3 0-7 1-7 4 0 3 2 5 4 7 12 10 23 20 35 30 4 3 6 7 8 11 3 6 5 12 5 18 0 28 0 57 0 85-7 0-13 2-18 4-8 3-14 8-19 14-43 45-85 90-128 135-2 2-4 6-5 9-1 7 3 14 9 16z m347-2c9-10 17-20 25-29-8-6-18-9-28-9 1 13 2 25 3 38z m-335-14c102 0 204 0 305 0-38-44-77-88-115-132-6-6-14-10-23-12-6 0-13 0-19 0-9 1-17 5-23 12-42 44-83 88-125 132z m115-93c2 1 4 1 6 1 22 0 44 0 66 0 2 0 4 0 7 0 1-1 2-2 1-4-2-3-5-6-7-9-8-9-17-17-27-24-2-2-5-2-8-1-11 8-20 17-30 27-2 3-7 6-8 10z"/>
<glyph unicode="&#102;" d="M391 457c14 0 28-1 41-8 11-7 20-16 26-26 16-25 13-60-6-82-8-10-19-18-32-22-9-4-20-5-29-4-3 1-6 4-5 8 1 2 2 4 5 4 4 0 9 0 14 0 24 3 45 22 50 46 3 13 2 27-4 39-6 11-14 21-26 26-11 6-24 8-36 6-13-1-24-7-33-16-10-9-16-22-17-35 0-2 0-5-3-7-2-1-6-1-8 2-2 2-1 5-1 8 2 15 9 29 19 39 12 12 28 21 45 22z m-22-32c8 6 19 9 29 9-1-13-2-26-4-40-8 11-17 21-25 31z m36 9c10-2 20-7 27-14-10-9-20-18-30-26 1 13 2 26 3 40z m-55-41c1 10 6 20 13 27 9-10 17-20 26-30-13 1-26 2-39 3z m57-5c10 9 20 17 30 26 6-9 9-19 9-29-13 1-26 2-39 3z m-1-7c13-1 26-2 39-3-2-10-7-20-14-27-8 10-17 20-25 30z m-353-3c5 2 10 2 16 2 98 0 197 0 296 0 4 0 9 0 13-1 6-1 11-5 12-10 2-6 0-12-4-17-39-43-78-87-116-131-3-3-5-6-9-9-5-4-11-7-17-9-4-2-8-3-12-3 0-28 0-57 0-86 0-10 5-20 12-26 14-12 28-23 42-34 1-1 3-3 3-6-1-2-4-3-7-3-37 0-75 0-113 0-3 0-7 1-7 4 0 3 2 5 4 7 12 10 23 20 35 30 4 3 6 7 8 11 3 6 5 12 5 18 0 28 0 57 0 85-6 0-12 2-18 4-7 3-14 7-19 13-42 45-84 89-126 134-3 3-6 6-7 10-2 7 2 15 9 17z m347-2c9-10 17-20 25-29-8-6-18-9-28-9 1 13 2 25 3 38z m-335-14c102 0 204 0 305 0-38-44-77-88-115-132-6-6-14-10-23-12-6 0-13 0-19 0-9 1-17 5-23 12-42 44-83 88-125 132z m110-88c-1 3 3 2 5 2 26 1 53 0 80 0 2 1 4 0 6 0 0-1 1-2 0-3-2-4-5-6-7-9-10-11-21-22-33-31-3-2-7-2-9 0-14 11-26 23-37 35-2 2-4 4-5 6z"/>
<glyph unicode="&#103;" d="M391 457c14 0 28-1 41-8 11-7 20-16 26-26 16-25 13-60-6-82-8-10-19-18-32-22-9-4-20-5-29-4-3 1-5 4-5 7 0 2 2 5 5 5 6 0 11 0 16 1 13 2 25 9 34 18 17 18 21 48 8 69-6 10-13 18-23 23-11 6-25 8-37 6-10-1-19-5-26-10-10-7-18-17-21-28-2-5-3-10-3-15-1-5-7-7-10-4-2 1-3 3-2 5 1 13 5 25 12 35 4 5 9 10 13 14 11 9 25 15 39 16z m-22-32c8 6 19 9 29 9-1-13-2-26-4-40-8 11-17 21-25 31z m36 9c10-2 20-7 27-14-10-9-20-18-30-26 1 13 2 26 3 40z m-55-41c1 10 6 20 13 27 9-10 17-20 26-30-13 1-26 2-39 3z m57-5c10 9 20 17 30 26 6-9 9-19 9-29-13 1-26 2-39 3z m-1-7c13-1 26-2 39-3-2-10-7-20-14-27-8 10-17 20-25 30z m-353-3c4 2 8 2 12 2 102 0 203 0 304 0 5 0 11 0 15-3 6-3 8-11 6-17-2-6-6-9-9-13-39-44-77-87-115-130-4-6-10-9-17-12-5-3-11-5-17-5 0-28 0-57 0-86 0-10 5-20 12-26 13-11 26-21 39-32 3-2 6-4 6-7 0-3-4-4-7-4-37 0-75 0-113 0-3 0-6 0-7 3-1 1 0 3 0 4 2 2 4 4 6 6 11 9 22 18 33 28 3 3 6 7 8 11 3 5 5 11 5 16 0 29 0 58 0 87-6 0-12 2-17 4-7 2-13 6-18 11-43 46-87 92-130 138-2 2-4 6-5 9-1 7 3 14 9 16z m347-2c9-10 17-20 25-29-8-6-18-9-28-9 1 13 2 25 3 38z m-335-14c102 0 204 0 306 0-39-44-78-88-117-132-5-7-13-10-22-12-6 0-13 0-19 0-9 1-18 5-24 12-41 44-83 88-124 132z m109-79c31 0 61 0 92 0 2 0 5 0 6-2 1-3-2-5-4-7-12-13-24-26-38-38-2-2-4-4-6-4-3-1-6 0-8 2-16 13-31 28-45 44-1 1-2 3-1 4 1 1 3 1 4 1z"/>
<glyph unicode="&#104;" d="M391 457c14 0 28-1 41-8 11-7 20-16 26-26 16-25 13-60-6-82-8-10-19-18-32-22-9-4-20-5-29-4-3 1-5 4-5 7 0 2 2 5 5 5 6 0 11 0 16 1 13 2 25 9 34 18 17 18 21 48 8 69-6 10-13 18-23 23-11 6-25 8-38 6-12-1-24-7-32-16-11-10-16-24-17-37-1-5-7-7-10-4-2 1-3 3-2 5 0 9 3 18 7 26 5 10 13 18 21 25 11 8 23 13 36 14z m-22-32c8 6 19 9 29 9-1-13-2-26-4-40-8 11-17 21-25 31z m36 9c10-2 20-7 27-14-10-9-20-17-30-26 1 13 2 26 3 40z m-55-41c1 10 6 20 13 27 9-10 17-20 26-30-13 1-26 2-39 3z m57-5c10 9 20 17 30 26 6-9 9-19 9-29-13 1-26 2-39 3z m-1-7c13-1 26-2 39-3-2-10-7-20-14-27-8 10-17 20-25 30z m-353-3c5 2 10 2 16 2 100 0 201 0 301 0 7 0 14-1 18-7 5-6 3-15-2-20-37-43-75-85-112-128-6-6-11-13-18-17-8-4-16-7-24-8 0-28 0-57 0-86 0-10 5-20 12-26 14-12 28-23 42-34 1-1 3-3 3-6-1-2-4-3-7-3-37 0-75 0-113 0-3 0-7 1-7 4 0 3 2 5 4 7 12 10 23 20 35 30 5 4 8 9 10 15 2 4 3 9 3 14 0 28 0 57 0 85-6 0-13 2-18 4-8 3-14 8-19 14-42 44-84 89-126 133-3 3-6 7-7 11-2 6 2 14 9 16z m347-2c9-10 17-20 25-29-8-6-18-9-28-9 1 13 2 25 3 38z m-335-14c102 0 204 0 305 0-37-42-74-84-111-127-4-4-7-8-12-11-5-3-10-5-15-6-7 0-13 0-20 0-8 1-15 5-21 10-42 45-84 89-126 134z m100-74c1 1 4 1 5 1 33 0 65 0 97 0 3 0 6 0 10-1 0-1 1-3 0-4-3-4-7-8-10-11-12-13-24-26-37-37-2-2-5-5-8-4-4 0-7 2-10 5-16 15-31 30-46 46-1 1-2 3-1 5z"/>
<glyph unicode="&#105;" d="M391 457c14 0 28-1 41-8 11-7 20-16 26-26 16-25 13-60-6-82-8-10-19-18-32-22-9-4-20-5-29-4-3 1-6 4-5 8 1 2 2 4 5 4 4 0 9 0 14 0 24 3 45 22 50 46 3 13 2 27-4 39-6 11-14 21-26 26-11 6-24 8-36 6-13-1-24-7-33-16-10-9-16-21-17-34 0-2 0-5-2-7-2-2-7-2-9 1-2 2-1 5-1 8 2 15 9 29 19 39 12 12 28 21 45 22z m-22-32c8 6 19 9 29 9-1-13-2-26-4-40-8 11-17 21-25 31z m36 9c10-2 20-7 27-14-10-9-20-17-30-26 1 13 2 26 3 40z m-55-41c1 10 6 20 13 27 9-10 17-20 26-30-13 1-26 2-39 3z m57-5c10 9 20 17 30 26 6-9 9-19 9-29-13 1-26 2-39 3z m-1-7c13-1 26-2 39-3-2-10-7-20-14-27-8 10-17 20-25 30z m-353-3c4 2 8 2 12 2 102 0 203 0 305 0 7 0 14-1 18-7 5-6 3-15-2-20-37-43-74-85-112-127-3-4-6-7-9-11-6-6-13-9-21-12-4-2-8-3-12-3 0-28 0-57 0-86 0-11 6-23 16-29 11-10 23-19 35-28 2-2 6-4 6-8 0-3-4-4-7-4-36 0-73 0-109 0-3 0-6 0-9 1-1 1-3 3-2 5 1 3 4 5 6 7 11 9 22 18 33 28 4 3 6 7 8 11 3 6 5 12 5 18 0 28 0 57 0 85-6 0-12 2-18 4-7 3-14 7-19 13-43 45-85 91-128 136-2 2-4 6-5 9-1 7 3 14 9 16z m347-2c9-10 17-20 25-29-8-6-18-9-28-9 1 13 2 25 3 38z m-335-14c102 0 204 0 305 0-38-44-77-88-115-132-6-6-14-10-23-12-6 0-13 0-19 0-9 1-17 5-23 12-42 44-83 88-125 132z m95-69c2 1 4 2 7 2 35 0 71 0 107 0 2 0 5 0 8-2 0-1 1-3 0-4-4-4-7-8-11-12-14-15-27-29-42-43-4-3-11-3-14 0-19 18-37 36-54 54-1 2-2 3-1 5z"/>
<glyph unicode="&#106;" d="M391 457c14 0 28-1 41-8 11-7 20-16 26-26 16-25 13-60-6-82-8-10-19-18-32-22-9-4-20-5-29-4-3 1-6 4-5 8 1 2 2 4 5 4 4 0 9 0 14 0 24 3 45 22 50 46 3 13 2 27-4 39-6 11-14 21-26 26-11 6-24 8-36 6-13-1-24-7-33-16-10-9-16-22-17-36 0-2-1-5-4-6-4-2-9 2-8 6 1 14 6 28 15 38 7 9 15 16 26 21 7 3 15 5 23 6z m-22-32c8 6 19 9 29 9-1-13-2-26-4-40-8 11-17 21-25 31z m36 9c10-2 20-7 27-14-10-9-20-17-30-26 1 13 2 26 3 40z m-55-41c1 10 6 20 13 27 9-10 17-20 26-30-13 1-26 2-39 3z m57-5c10 9 20 17 30 26 6-9 9-19 9-29-13 1-26 2-39 3z m-1-7c13-1 26-2 39-3-2-10-7-20-14-27-8 10-17 20-25 30z m-353-3c4 2 8 2 12 2 102 0 203 0 304 0 5 0 10 0 14-2 7-4 10-12 7-18-2-6-6-9-9-13-38-44-77-87-115-130-5-6-11-10-18-13-5-2-11-4-16-4 0-28 0-57 0-86 0-10 5-20 12-26 14-12 28-23 42-34 1-1 3-3 3-6-1-2-4-3-7-3-37 0-75 0-113 0-3 0-6 0-7 3-1 1 0 3 0 4 2 3 5 4 7 6 11 9 21 18 32 27 2 2 4 5 6 7 4 7 7 14 7 22 0 29 0 57 0 86-6 0-12 2-17 4-7 2-13 6-18 11-43 46-85 91-128 136-3 3-6 6-7 11-2 6 3 14 9 16z m347-2c9-10 17-20 25-29-8-6-18-9-28-9 1 13 2 25 3 38z m-335-14c102 0 204 0 305 0-38-44-77-88-115-132-6-6-14-10-23-12-6 0-13 0-19 0-6 1-12 3-18 7-3 2-5 5-7 7-41 43-82 87-123 130z m92-62c2 0 4 0 7 0 38 0 77 0 115 0 3 0 6 0 8-2 0-1 0-3 0-4-5-5-10-10-15-16-14-15-28-30-44-44-3-3-6-3-9-2-3 1-4 3-6 4-20 19-38 38-57 57-1 2-2 6 1 7z"/>
<glyph unicode="&#107;" d="M391 457c14 0 28-1 41-8 11-7 20-16 26-26 16-25 13-60-6-82-8-10-19-18-32-22-9-4-20-5-29-4-3 1-6 4-5 8 1 2 2 4 5 4 5 0 11-1 16 1 13 2 25 9 34 18 17 18 21 48 8 69-6 10-14 18-23 23-12 7-26 8-40 6-15-3-28-12-37-24-6-9-10-19-10-29-1-5-7-7-10-4-2 1-3 3-2 5 1 13 5 25 12 35 4 5 9 10 13 14 11 9 25 15 39 16z m-22-32c8 6 19 9 29 9-1-13-2-26-4-40-8 11-17 21-25 31z m36 9c10-2 20-7 27-14-10-9-20-18-30-26 1 13 2 26 3 40z m-55-41c1 10 6 20 13 27 9-10 17-20 26-30-13 1-26 2-39 3z m57-5c10 9 20 17 30 26 6-9 9-19 9-29-13 1-26 2-39 3z m-1-7c13-1 26-2 39-3-2-10-7-20-14-27-8 10-17 20-25 30z m-353-3c4 2 8 2 12 2 102 0 203 0 305 0 7 0 14-1 18-7 5-6 3-15-2-20-38-43-75-86-113-128-3-4-6-7-9-10-5-6-13-9-20-12-4-2-8-3-12-3 0-28 0-57 0-86 0-10 5-20 12-26 14-12 28-23 42-34 1-1 3-3 3-6-1-2-4-3-7-3-37 0-75 0-113 0-3 0-7 1-7 4 0 3 2 5 4 7 11 9 22 19 34 29 2 2 4 4 6 7 5 7 8 15 8 24 0 28 0 56 0 84-6 0-12 2-18 4-7 3-14 7-19 13-43 45-85 91-128 136-2 2-4 6-5 9-1 7 3 14 9 16z m347-2c9-10 17-20 25-29-8-6-18-9-28-9 1 13 2 25 3 38z m-335-14c102 0 204 0 305 0-38-44-77-88-115-132-6-6-14-10-23-12-6 0-13 0-19 0-9 1-17 5-23 12-42 44-83 88-125 132z m85-59c3 3 7 2 11 2 41 0 81 0 122 0 2 0 4 0 6 0 3-1 3-5 2-7-7-8-16-16-23-25-13-13-25-26-38-38-5-5-13-4-17 0-9 9-18 18-27 28-11 10-21 21-31 32-2 2-5 5-5 8z"/>
<glyph unicode="&#108;" d="M391 457c14 0 28-1 41-8 11-7 20-16 26-26 16-25 13-60-6-82-8-10-19-18-32-22-9-4-20-5-29-4-3 1-6 4-5 8 1 2 2 4 5 4 5 0 11-1 16 1 13 2 25 9 34 18 17 18 21 48 8 69-6 10-14 18-23 23-12 7-26 8-40 6-15-3-28-12-37-24-6-9-10-19-10-29-1-5-7-7-10-4-2 1-3 3-2 5 1 14 5 27 14 38 8 9 17 17 28 22 7 3 14 4 22 5z m-22-32c8 6 19 9 29 9-1-13-2-26-4-40-8 11-17 21-25 31z m36 9c10-2 20-7 27-14-10-9-20-18-30-26 1 13 2 26 3 40z m-55-41c1 10 6 20 13 27 9-10 17-20 26-30-13 1-26 2-39 3z m57-5c10 9 20 17 30 26 6-9 9-19 9-29-13 1-26 2-39 3z m-1-7c13-1 26-2 39-3-2-10-7-20-14-27-8 10-17 20-25 30z m-353-3c4 2 8 2 12 2 102 0 203 0 305 0 7 0 14-1 18-7 5-6 3-15-2-20-38-43-75-86-113-128-3-4-6-7-9-10-5-6-13-9-20-12-4-2-8-3-12-3 0-28 0-57 0-86 0-10 5-20 12-26 14-12 28-23 42-34 1-1 3-3 3-6-1-2-4-3-7-3-37 0-75 0-113 0-3 0-7 1-7 4 0 3 2 5 4 7 12 10 23 20 35 30 3 3 6 7 8 11 3 5 5 11 5 16 0 29 0 58 0 87-6 0-12 2-17 4-7 2-13 6-18 11-43 46-85 91-128 136-3 3-6 6-7 11-2 6 3 14 9 16z m347-2c9-10 17-20 25-29-8-6-18-9-28-9 1 13 2 25 3 38z m-335-14c102 0 204 0 306 0-38-42-75-85-112-127-4-4-7-8-11-11-5-3-10-5-16-6-4 0-9 0-14 0-10 0-20 3-26 10-43 45-85 89-127 134z m84-52c2 0 4 0 7 0 44 0 88 0 131 0 3 0 6 1 8-2 2-2 0-5-2-7-19-21-38-42-59-62-2-2-4-4-6-6-3-2-7-2-11-1-2 1-4 3-5 5-22 21-42 42-63 64-2 2-3 4-3 6 0 2 2 2 3 3z"/>
<glyph unicode="&#109;" d="M391 457c14 0 28-1 41-8 11-7 20-16 26-26 16-25 13-60-6-82-8-10-19-18-32-22-9-4-20-5-29-4-3 1-6 4-5 8 1 2 2 4 5 4 5 0 11-1 16 1 13 2 25 9 34 18 17 18 21 48 8 69-6 10-14 18-23 23-12 7-26 8-40 6-15-3-28-12-37-24-6-9-10-19-10-29 0-5-7-7-10-4-2 1-3 3-2 5 1 14 5 27 14 38 8 9 17 17 28 22 7 3 14 4 22 5z m-22-32c8 6 19 9 29 9-1-13-2-26-4-40-8 11-17 21-25 31z m36 9c10-2 20-7 27-14-10-9-20-18-30-26 1 13 2 26 3 40z m-55-41c1 10 6 20 13 27 9-10 17-20 26-30-13 1-26 2-39 3z m57-5c10 9 20 17 30 26 6-9 9-19 9-29-13 1-26 2-39 3z m-1-7c13-1 26-2 39-3-2-10-7-20-14-27-8 10-17 20-25 30z m-354-3c5 2 11 2 16 2 101 0 201 0 302 0 7 0 14-1 18-7 5-6 3-15-2-20-37-43-75-85-112-127-3-4-6-8-9-11-6-6-13-9-21-12-4-2-8-3-12-3 0-27 0-54 0-82-1-12 5-26 16-33 12-10 24-20 36-30 2-1 5-4 5-7-1-2-4-3-7-3-37 0-75 0-113 0-3 0-6 0-7 3-1 1 0 3 0 4 2 2 4 4 6 6 11 9 22 18 33 28 3 3 6 7 8 11 3 5 5 10 5 16 0 29 0 58 0 87-6 0-12 2-17 4-7 2-13 6-18 11-42 45-84 89-126 134-3 3-7 7-9 12-2 6 2 14 8 17z m348-2c9-10 17-20 25-29-8-6-18-9-28-9 1 13 2 25 3 38z m-335-14c102 0 204 0 305 0-39-45-78-89-117-134-4-4-10-7-15-8-7-3-13-2-20-2-10 0-20 3-26 10-43 45-85 89-127 134z m80-48c2 1 5 1 7 1 46 0 93 0 139 0 3-1 6 0 8-2 2-2 1-5-1-7-9-11-19-20-28-30-13-14-26-28-40-41-3-4-9-4-14-2-2 1-4 3-5 4-22 23-44 45-66 68-2 2-3 4-3 7 0 1 2 2 3 2z"/>
<glyph unicode="&#110;" d="M391 457c14 0 28-1 41-8 11-7 20-16 26-26 15-23 14-53-1-75-7-11-17-20-29-26-11-6-25-8-38-6-2 1-4 3-4 6 0 2 2 5 5 5 5 0 9 0 14 0 24 3 45 22 50 46 3 13 2 27-4 39-6 11-14 21-26 26-11 6-24 8-36 6-13-1-24-7-33-16-10-9-16-21-17-34 0-3 0-5-2-7-2-2-6-2-8 0-2 1-3 3-2 5 0 11 3 21 9 30 5 8 12 15 19 21 10 8 23 13 36 14z m-22-32c8 6 19 9 29 9-1-13-2-26-4-40-8 11-17 21-25 31z m36 9c10-2 20-7 27-14-10-9-20-18-30-26 1 13 2 26 3 40z m-55-41c1 10 6 20 13 27 9-10 17-20 26-30-13 1-26 2-39 3z m57-5c10 9 20 17 30 26 6-9 9-19 9-29-13 1-26 2-39 3z m-1-7c13-1 26-2 39-3-2-10-7-20-14-27-8 10-17 20-25 30z m-353-3c4 2 8 2 12 2 102 0 203 0 304 0 5 0 10 0 14-2 7-4 10-12 7-18-1-5-5-8-8-12-39-44-77-88-116-131-4-6-10-9-17-12-5-3-11-5-17-5 0-28 0-57 0-86 0-10 5-20 12-26 12-10 24-19 36-29 3-3 7-5 9-9 1-3-3-5-6-5-38 0-76 0-114 0-3 0-7 1-7 4 0 3 2 5 4 7 12 10 23 20 35 30 4 3 6 7 8 11 3 6 5 12 5 18 0 28 0 57 0 85-6 0-13 2-18 4-8 3-14 8-19 14-43 45-85 89-127 134-3 3-5 6-6 10-2 6 3 14 9 16z m347-2c9-10 17-20 25-29-8-6-18-9-28-9 1 13 2 25 3 38z m-335-14c102 0 204 0 305 0-38-44-77-88-116-132-3-4-8-7-13-9-3-2-7-3-11-3-6 0-12 0-18 0-8 1-17 5-22 12-42 44-83 88-125 132z m77-43c2 0 4 0 6 0 48 0 95 0 142 0 3 0 6 0 10 0 2-1 4-2 4-4 0-3-3-6-5-8-21-23-42-45-64-67-3-4-7-9-13-8-6-1-10 4-14 8-22 23-45 46-67 69-1 2-3 4-2 7 0 1 2 2 3 3z"/>
<glyph unicode="&#111;" d="M391 457c14 0 28-1 41-8 11-7 20-16 26-26 16-25 13-60-6-82-8-10-19-18-32-22-9-4-19-5-29-4-2 1-3 2-4 3-3 3 0 9 4 9 5 0 9 0 14 0 24 3 45 22 50 46 3 13 2 27-4 39-6 11-14 21-26 26-11 6-24 8-36 6-13-1-24-7-33-16-10-9-16-21-17-34 0-3 0-5-2-7-2-1-5-2-7-1-2 1-4 3-3 5 0 10 3 19 7 27 5 10 13 19 22 26 10 7 22 12 35 13z m-22-32c8 6 19 9 29 9-1-13-2-26-4-40-8 11-17 21-25 31z m36 9c10-2 20-7 27-14-10-9-20-17-30-26 1 13 2 26 3 40z m-55-41c1 10 6 20 13 27 9-10 17-20 26-30-13 1-26 2-39 3z m57-5c10 9 20 17 30 26 6-9 9-19 9-29-13 1-26 2-39 3z m-1-7c13-1 26-2 39-3-2-10-7-20-14-27-8 10-17 20-25 30z m-353-3c4 2 8 2 12 2 102 0 203 0 304 0 5 0 11 0 15-3 5-3 8-10 7-16-1-3-3-7-6-9-40-45-79-90-119-135-3-5-8-8-14-11-6-3-13-6-20-6 0-28 0-57 0-86 0-10 5-20 12-26 14-12 28-23 42-34 1-1 3-3 3-6-1-2-4-3-7-3-37 0-75 0-113 0-3 0-7 1-7 4 0 3 2 5 4 7 12 10 23 20 35 30 4 3 6 7 8 11 3 6 5 12 5 18 0 28 0 57 0 85-6 0-12 2-18 4-7 3-14 7-19 13-43 45-85 91-128 136-2 2-4 6-5 9-1 7 3 14 9 16z m347-2c9-10 17-20 25-29-8-6-18-9-28-9 1 13 2 25 3 38z m-335-14c102 0 204 0 305 0-38-44-77-88-116-132-5-6-13-10-21-12-5 0-10 0-15 0-11-1-22 4-29 12-41 44-83 88-124 132z m70-42c3 3 6 3 10 3 51 0 102 0 153 0 3 0 7 0 9-3 1-3-1-6-3-8-11-12-21-24-33-35-11-12-23-24-35-37-3-3-6-7-11-8-3-1-7-1-10 1-3 2-5 5-8 7-23 24-46 48-69 73-2 2-4 4-3 7z"/>
<glyph unicode="&#112;" d="M391 457c14 0 28-1 41-8 11-7 20-16 26-26 16-25 13-60-6-82-8-10-19-18-32-22-9-4-20-5-29-4-3 1-6 4-5 7 1 3 2 5 5 5 4 0 9 0 14 0 24 3 45 22 50 46 3 13 2 27-4 39-5 10-13 19-23 25-9 5-20 8-31 8-15 0-29-6-40-16-11-10-17-24-18-38-1-5-7-7-10-4-2 1-3 3-2 5 1 13 5 25 12 35 4 5 9 10 13 14 11 9 25 15 39 16z m-22-32c8 6 19 9 29 9-1-13-2-26-4-40-8 11-17 21-25 31z m36 9c10-2 20-7 27-14-10-9-20-17-30-26 1 13 2 26 3 40z m-55-41c1 10 6 20 13 27 9-10 17-20 26-30-13 1-26 2-39 3z m57-5c10 9 20 17 30 26 6-9 9-19 9-29-13 1-26 2-39 3z m-1-7c13-1 26-2 39-3-2-10-7-20-14-27-8 10-17 20-25 30z m-353-3c4 2 8 2 12 2 101 0 203 0 304 0 5 0 10 0 14-2 6-3 9-10 8-17-1-3-3-7-6-9-40-45-79-90-119-135-4-5-10-9-16-12-6-2-12-5-18-5 0-28 0-57 0-86 0-10 5-20 12-26 13-10 25-20 37-30 3-3 7-5 8-9 0-3-4-4-7-4-37 0-75 0-113 0-3 0-6 0-7 3-1 1 0 3 1 4 1 2 3 4 6 6 10 9 21 19 32 28 5 4 8 9 10 15 2 4 3 9 3 14 0 28 0 57 0 85-6 0-12 2-17 4-7 2-13 6-18 11-43 46-87 92-130 138-2 2-4 6-5 9-1 7 3 14 9 16z m347-2c9-10 17-20 25-29-8-6-18-9-28-9 1 13 2 25 3 38z m-335-14c102 0 204 0 305 0-38-44-77-88-116-132-5-6-13-10-21-12-5 0-10 0-15 0-11-1-22 4-29 12-41 44-83 88-124 132z m70-36c2 1 5 1 8 1 52 0 105 0 158 0 3-1 6 0 9-3 1-2 0-6-2-8-25-27-50-53-76-79-2-2-4-4-7-5-3-1-5 0-8 0-4 1-6 5-9 7-23 25-47 49-71 75-2 2-6 5-5 9 0 2 2 3 3 3z"/>
<glyph unicode="&#113;" d="M391 457c14 0 28-1 41-8 11-7 20-16 26-26 15-23 14-53-1-75-7-11-16-19-27-25-12-6-26-9-39-8-3 1-6 4-5 8 1 2 2 4 4 4 5 0 10 0 15 0 24 3 45 22 50 46 3 13 2 27-4 39-5 10-13 19-23 25-9 5-20 8-31 8-15 0-30-6-41-17-10-9-16-22-17-36 0-2-1-5-4-6-4-2-9 2-8 6 1 13 5 25 12 35 4 5 9 10 13 14 11 9 25 15 39 16z m-22-32c8 6 19 9 29 9-1-13-2-26-4-40-8 11-17 21-25 31z m36 9c10-2 20-7 27-14-10-9-20-17-30-26 1 13 2 26 3 40z m-55-41c1 10 6 20 13 27 9-10 17-20 26-30-13 1-26 2-39 3z m57-5c10 9 20 17 30 26 6-9 9-19 9-29-13 1-26 2-39 3z m-1-7c13-1 26-2 39-3-2-10-7-20-14-27-8 10-17 20-25 30z m-353-3c4 2 8 2 12 2 102 0 203 0 304 0 5 0 10 0 14-2 6-3 9-10 8-17-1-3-3-7-6-9-40-45-79-90-119-135-3-5-8-8-14-11-6-3-13-6-20-6 0-27 0-55 0-82-1-11 4-23 12-30 14-11 27-22 41-33 2-2 4-4 4-7-1-2-4-3-7-3-37 0-75 0-113 0-3 0-7 1-7 4 0 3 2 5 4 7 12 10 23 20 35 30 5 4 8 9 10 15 2 4 3 9 3 14 0 28 0 57 0 85-6 0-12 2-18 4-6 3-12 6-17 11-43 46-87 92-130 138-2 2-4 6-5 9-1 7 3 14 9 16z m347-2c9-10 17-20 25-29-8-6-18-9-28-9 1 13 2 25 3 38z m-335-14c102 0 204 0 305 0-38-44-77-88-116-132-5-6-13-10-21-12-6 0-11 0-17 0-6 0-13 2-19 6-5 2-8 7-12 11-40 42-80 85-120 127z m64-34c3 2 7 2 11 2 54 0 108 0 163 0 3 0 7 0 10-2 1-2 0-6-1-8-9-10-19-20-28-30-18-18-35-36-52-54-3-3-7-5-12-4-4 0-8 3-10 5-15 16-30 31-44 46-11 12-22 24-33 35-3 2-5 6-4 10z"/>
<glyph unicode="&#114;" d="M391 457c14 0 28-1 41-8 11-7 20-16 26-26 16-25 13-60-6-82-8-10-19-18-32-22-9-4-20-5-29-4-3 1-6 4-5 8 1 2 2 4 5 4 5 0 11-1 17 1 13 2 24 9 33 18 17 18 21 48 8 69-6 10-13 18-23 23-11 6-25 8-37 6-10-1-19-5-26-10-10-7-18-17-21-28-2-5-3-10-3-15-1-5-7-7-10-4-2 1-3 3-2 5 1 13 5 25 12 35 4 5 9 10 13 14 11 9 25 15 39 16z m-22-32c8 6 19 9 29 9-1-13-2-26-4-40-8 11-17 21-25 31z m36 9c10-2 20-7 27-14-10-9-20-17-30-26 1 13 2 26 3 40z m-55-41c1 10 6 20 13 27 9-10 17-20 26-30-13 1-26 2-39 3z m57-5c10 9 20 17 30 26 6-9 9-19 9-29-13 1-26 2-39 3z m-1-7c13-1 26-2 39-3-2-10-7-20-14-27-8 10-17 20-25 30z m-353-3c4 2 8 2 12 2 101 0 201 0 302 0 6 0 11 0 16-2 6-3 9-11 7-17-1-4-3-8-6-11-39-44-78-89-118-133-3-5-8-8-14-11-6-3-13-6-20-6 0-28 0-57 0-86 0-11 6-22 15-29 12-9 23-18 34-27 3-3 7-5 8-9 0-3-4-4-7-4-37 0-75 0-113 0-3 0-7 1-7 4 0 3 2 5 4 7 12 10 23 20 35 30 5 4 8 9 10 15 2 4 3 8 3 12 0 29 0 58 0 87-6 0-12 2-17 4-7 2-13 6-18 11-43 46-87 92-130 138-2 2-4 6-5 9-1 7 3 14 9 16z m347-2c9-10 17-20 25-29-8-6-18-9-28-9 1 13 2 25 3 38z m-335-14c102 0 204 0 305 0-38-44-77-88-115-132-6-6-14-10-23-12-6 0-13 0-19 0-9 1-17 5-23 12-42 44-83 88-125 132z m62-32c2 3 6 3 10 3 56 0 111 0 167 0 3 0 6 0 9-1 2 0 4-3 3-6-1-2-2-4-4-5-26-28-52-55-77-82-4-4-8-8-13-7-4-1-8 1-11 4-27 28-54 57-81 85-3 3-5 6-3 9z"/>
<glyph unicode="&#115;" d="M391 457c14 0 28-1 41-8 11-7 20-16 26-26 16-25 13-60-6-82-8-10-19-18-32-22-9-4-20-5-29-4-4 1-6 6-4 10 2 3 7 2 10 2 14-1 27 5 38 13 9 8 16 18 20 30 3 13 2 27-3 39-4 9-9 17-17 23-10 9-24 13-38 13-12 0-24-4-34-11-9-7-17-16-21-27-2-5-3-11-3-16-1-5-7-7-10-4-2 1-3 3-2 5 1 13 5 25 12 35 4 5 9 10 13 14 11 9 25 15 39 16z m-22-32c8 6 19 9 29 9-1-13-2-26-4-40-8 11-17 21-25 31z m36 9c10-2 20-7 27-14-10-9-20-17-30-26 1 13 2 26 3 40z m-55-41c1 10 6 20 13 27 9-10 17-20 26-30-13 1-26 2-39 3z m57-5c10 9 20 17 30 26 6-9 9-19 9-29-13 1-26 2-39 3z m-1-7c13-1 26-2 39-3-2-10-7-20-14-27-8 10-17 20-25 30z m-353-3c4 2 8 2 12 2 102 0 203 0 304 0 5 0 10 0 14-2 6-3 9-10 8-17-1-3-3-7-6-9-38-44-77-87-115-131-3-3-5-6-9-9-5-4-11-7-16-9-5-1-9-3-13-3 0-28 0-57 0-86 0-10 5-20 12-26 13-11 26-21 40-32 2-2 5-4 5-7 0-3-4-4-7-4-37 0-75 0-113 0-3 0-6 0-7 3-1 1 0 3 1 4 1 3 4 4 6 6 11 10 21 19 32 28 4 3 6 7 8 11 3 5 5 11 5 17 0 29 0 57 0 86-6 0-12 2-17 4-7 2-13 6-18 11-43 46-87 92-130 138-2 2-4 6-5 9-1 7 3 14 9 16z m347-2c9-10 17-20 25-29-8-6-18-9-28-9 1 13 2 25 3 38z m-335-14c102 0 204 0 305 0-38-44-77-88-116-132-5-7-13-10-22-12-6 0-13 0-19 0-9 1-18 5-24 12-41 44-83 88-124 132z m59-29c3 3 8 3 11 3 58 0 115 0 173 0 3 0 8 0 10-3 2-3 0-7-3-9-27-30-55-59-83-88-6-6-16-5-21 0-28 30-56 59-84 89-1 1-2 2-3 4-1 1 0 3 0 4z"/>
<glyph unicode="&#116;" d="M391 457c14 0 28-1 41-8 11-7 20-16 26-26 16-25 13-60-6-82-8-10-19-18-32-22-9-4-19-5-29-4-2 1-3 2-4 4-2 3 0 8 4 8 6 0 11 0 17 1 13 2 26 10 35 20 17 19 18 50 3 71-7 11-18 19-30 23-8 3-17 3-26 3-13-2-26-8-35-18-10-10-15-23-16-36-1-5-7-7-10-4-2 1-3 3-2 5 0 9 3 18 7 26 5 10 13 18 21 25 11 8 23 13 36 14z m-22-32c8 6 19 9 29 9-1-13-2-26-4-40-8 11-17 21-25 31z m36 9c10-2 20-7 27-14-10-9-20-17-30-26 1 13 2 26 3 40z m-55-41c1 10 6 20 13 27 9-10 17-20 26-30-13 1-26 2-39 3z m57-5c10 9 20 17 30 26 6-9 9-19 9-29-13 1-26 2-39 3z m-1-7c13-1 26-2 39-3-2-10-7-20-14-27-8 10-17 20-25 30z m-353-3c4 2 8 2 12 2 102 0 203 0 305 0 7 0 14-1 18-7 5-6 3-15-2-20-39-44-78-89-117-133-4-5-9-10-15-13-7-3-14-7-22-7 0-28 0-57 0-86 0-10 5-20 12-26 13-11 26-21 39-32 3-2 6-4 6-7 0-3-4-4-7-4-37 0-75 0-113 0-3 0-7 1-7 4 0 3 2 5 4 7 12 10 23 20 35 30 5 4 8 9 10 15 2 4 3 9 3 14 0 28 0 57 0 85-6 0-13 2-18 4-8 3-14 8-19 14-43 45-85 89-127 134-3 3-5 6-6 10-2 6 3 14 9 16z m347-2c9-10 17-20 25-29-8-6-18-9-28-9 1 13 2 25 3 38z m-335-14c102 0 204 0 305 0-38-44-77-88-115-132-6-6-14-10-23-12-6 0-13 0-19 0-8 1-16 5-22 10-42 45-84 89-126 134z m65-24c60 1 120 0 179 0 4 0 9 1 11-2 2-4 0-7-2-9-11-12-22-23-32-35-16-16-32-32-47-49-3-3-5-6-8-8-6-5-15-4-20 1-28 29-55 58-83 87-2 3-5 5-6 8-1 2 0 3 0 5 2 2 6 2 8 2z"/>
<glyph unicode="&#117;" d="M391 457c14 0 28-1 41-8 11-7 20-16 26-26 16-25 13-60-6-82-8-10-19-18-32-22-9-4-20-5-29-4-3 1-6 4-5 8 1 2 2 4 4 4 6 0 12-1 17 1 14 2 25 9 34 18 17 18 21 48 8 69-6 10-14 18-23 23-12 7-26 8-40 6-15-3-28-12-37-24-6-9-10-19-10-29 0-5-7-7-10-4-2 1-3 3-2 5 1 13 5 25 12 35 4 5 9 10 13 14 11 9 25 15 39 16z m-22-32c8 6 19 9 29 9-1-13-2-26-4-40-8 11-17 21-25 31z m36 9c10-2 20-7 27-14-10-9-20-18-30-26 1 13 2 26 3 40z m-55-41c1 10 6 20 13 27 9-10 17-20 26-30-13 1-26 2-39 3z m57-5c10 9 20 17 30 26 6-9 9-19 9-29-13 1-26 2-39 3z m-1-7c13-1 26-2 39-3-2-10-7-20-14-27-8 10-17 20-25 30z m-353-3c4 2 8 2 12 2 102 0 203 0 305 0 7 0 14-1 18-7 5-6 3-15-2-20-37-43-75-85-112-128-6-6-11-13-18-17-8-4-16-7-24-8 0-28 0-57 0-86 0-10 5-20 12-26 13-11 26-21 39-32 3-2 6-4 6-7 0-3-4-4-7-4-37 0-75 0-113 0-3 0-7 1-7 4 0 3 2 5 4 7 12 10 23 20 35 30 3 3 6 7 8 11 3 5 5 11 5 17 0 29 0 57 0 86-6 0-12 2-17 4-7 2-13 6-18 11-43 46-87 92-130 138-2 2-4 6-5 9-1 7 3 14 9 16z m347-2c9-10 17-20 25-29-8-6-18-9-28-9 1 13 2 25 3 38z m-335-14c102 0 204 0 305 0-38-44-77-88-115-132-6-6-14-10-23-12-6 0-13 0-19 0-9 1-17 5-23 12-42 44-83 88-125 132z m60-22c4 1 7 1 11 1 57 0 114 0 171 0 4 0 8 0 11-1 2 0 4-1 5-4 0-3-2-6-4-8-19-21-39-42-59-62-9-10-18-20-28-30-6-7-17-5-23 1-12 13-24 25-36 38-15 17-31 33-47 50-2 2-5 5-6 8-1 1 0 3 0 5 1 1 3 2 5 2z"/>
<glyph unicode="&#118;" d="M391 457c14 0 28-1 41-8 11-7 20-16 26-26 15-23 14-53-1-75-7-11-17-20-29-26-11-6-25-8-38-6-1 0-3 1-3 3-2 3 0 8 4 8 5 0 9 0 14 0 24 3 45 22 50 46 3 13 2 27-4 39-6 11-14 21-26 26-11 6-24 8-36 6-13-1-24-7-33-16-10-9-16-21-17-34 0-3 0-5-2-7-2-2-5-2-8-1-1 2-3 3-2 5 0 10 3 19 7 28 4 7 10 14 16 20 11 10 26 17 41 18z m-22-32c8 6 19 9 29 9-1-13-2-26-4-40-8 11-17 21-25 31z m36 9c10-2 20-7 27-14-10-9-20-17-30-26 1 13 2 26 3 40z m-55-41c1 10 6 20 13 27 9-10 17-20 26-30-13 1-26 2-39 3z m57-5c10 9 20 17 30 26 6-9 9-19 9-29-13 1-26 2-39 3z m-1-7c13-1 26-2 39-3-2-10-7-20-14-27-8 10-17 20-25 30z m-353-3c4 2 8 2 12 2 101 0 203 0 304 0 5 0 10 0 14-2 6-3 9-11 7-17-1-4-3-8-6-11-39-44-78-89-118-133-4-5-10-9-17-12-5-3-11-5-17-5 0-28 0-57 0-86 0-11 6-23 16-29 11-10 23-19 35-28 2-2 5-4 6-8 0-3-4-4-7-4-37 0-75 0-113 0-3 0-7 1-7 4 0 3 2 5 4 7 12 10 23 20 35 30 3 3 6 7 8 11 3 5 5 11 5 17 0 29 0 57 0 86-6 0-12 2-17 4-7 2-13 6-18 11-43 46-87 92-130 138-2 2-4 6-5 9-1 7 3 14 9 16z m347-2c9-10 17-20 25-29-8-6-18-9-28-9 1 13 2 25 3 38z m-335-14c102 0 204 0 305 0-38-44-77-88-116-132-5-6-13-10-21-12-5 0-10 0-15 0-11-1-22 4-29 12-41 44-83 88-124 132z m57-20c3 1 6 0 8 0 61 0 122 1 183 0 4 0 8 1 11-2 2-3 0-7-3-10-11-12-23-24-34-37-18-19-36-38-54-57-4-4-11-5-17-4-4 2-7 5-9 8-29 30-57 60-85 90-2 2-5 5-4 8 0 2 3 3 4 4z"/>
<glyph unicode="&#119;" d="M391 457c14 0 28-1 41-8 11-7 20-16 26-26 16-25 13-60-6-82-8-10-19-18-32-22-9-4-19-5-29-4-3 1-6 4-5 8 1 2 2 4 4 4 5 0 10 0 15 0 24 3 45 22 50 46 3 13 2 27-4 39-5 10-13 19-23 25-9 5-20 8-31 8-15 0-30-6-41-17-8-7-14-18-16-29-1-3-1-6-2-9 0-5-7-6-9-3-2 1-3 3-2 5 0 9 3 18 7 26 5 10 13 18 21 25 11 8 23 13 36 14z m-22-32c8 6 19 9 29 9-1-13-2-26-4-40-8 11-17 21-25 31z m36 9c10-2 20-7 27-14-10-9-20-17-30-26 1 13 2 26 3 40z m-55-41c1 10 6 20 13 27 9-10 17-20 26-30-13 1-26 2-39 3z m57-5c10 9 20 17 30 26 6-9 9-19 9-29-13 1-26 2-39 3z m-1-7c13-1 26-2 39-3-2-10-7-20-14-27-8 10-17 20-25 30z m-353-3c4 2 8 2 12 2 102 0 203 0 304 0 5 0 10 0 14-2 6-3 9-10 8-17-1-3-3-7-6-9-38-44-77-87-115-131-3-3-5-6-9-9-5-4-11-7-16-9-5-1-9-3-13-3 0-28 0-57 0-86 0-11 6-22 15-29 12-9 24-19 36-28 2-2 5-4 6-8 0-3-4-4-7-4-37 0-75 0-113 0-3 0-7 1-7 4 0 3 2 5 4 7 12 10 23 20 35 30 3 3 6 7 8 11 3 5 5 11 5 17 0 29 0 57 0 86-6 0-12 2-18 4-6 3-12 6-17 11-43 46-87 92-130 138-2 2-4 6-5 9-1 7 3 14 9 16z m347-2c9-10 17-20 25-29-8-6-18-9-28-9 1 13 2 25 3 38z m-335-14c102 0 204 0 305 0-38-44-77-88-115-132-6-6-14-10-23-12-6 0-13 0-19 0-9 1-17 5-23 12-42 44-83 88-125 132z m61-18c62 0 125 0 187 0 3 0 7 0 10-1 3-1 4-5 2-7-1-3-4-5-6-8-11-11-21-23-32-34-17-19-35-37-53-56-3-3-7-6-11-6-5-1-10 1-14 5-29 32-59 63-88 94-2 2-4 4-4 7 0 1 0 3 1 4 2 2 5 2 8 2z"/>
<glyph unicode="&#120;" d="M391 457c14 0 28-1 41-8 11-7 20-16 26-26 15-23 14-53-1-75-7-11-17-20-29-26-11-6-25-8-38-6-3 1-5 4-4 7 1 2 2 4 5 4 4 0 9 0 14 0 24 3 45 22 50 46 3 13 2 27-4 39-5 10-13 19-23 25-9 5-20 8-31 8-15 0-30-6-41-17-10-9-16-22-17-36 0-2-1-5-4-6-4-2-9 2-8 6 1 13 5 25 12 35 4 5 9 10 13 14 11 9 25 15 39 16z m-22-32c8 6 19 9 29 9-1-13-2-26-4-40-8 11-17 21-25 31z m36 9c10-2 20-7 27-14-10-9-20-17-30-26 1 13 2 26 3 40z m-55-41c1 10 6 20 13 27 9-10 17-20 26-30-13 1-26 2-39 3z m57-5c10 9 20 17 30 26 6-9 9-19 9-29-13 1-26 2-39 3z m-1-7c13-1 26-2 39-3-2-10-7-20-14-27-8 10-17 20-25 30z m-353-3c4 2 8 2 12 2 99 0 198 0 296 0 5 0 11 0 16 0 4-1 9-3 12-7 2-5 3-10 1-14-2-4-5-7-7-10-38-43-75-85-112-127-4-4-6-8-10-10-4-3-7-5-11-7-6-2-12-5-18-5 0-28 0-57 0-86 0-10 5-20 12-26 13-10 25-20 37-30 3-3 7-5 8-9 0-3-4-4-7-4-37 0-75 0-113 0-3 0-7 1-7 4 0 3 2 5 4 7 12 10 23 20 35 30 3 3 6 7 8 11 3 5 5 11 5 17 0 29 0 57 0 86-6 0-12 2-18 4-6 3-12 6-17 11-43 46-87 92-130 138-2 2-4 6-5 9-1 7 3 14 9 16z m347-2c9-10 17-20 25-29-8-6-18-9-28-9 1 13 2 25 3 38z m-335-14c102 0 204 0 305 0-38-44-77-88-115-132-6-6-14-10-23-12-6 0-13 0-19 0-8 1-16 5-21 10-43 45-85 89-127 134z m55-17c3 1 6 1 9 1 63 0 125 0 187 0 3-1 8 0 10-3 2-3 1-7-2-9-19-21-39-42-58-63-12-11-23-23-34-35-4-5-12-6-18-3-4 2-7 7-10 10-28 30-57 59-84 89-2 3-5 6-4 9 0 2 2 3 4 4z"/>
<glyph unicode="&#121;" d="M391 457c14 0 28-1 41-8 11-7 20-16 26-26 16-25 13-60-6-82-8-10-19-18-32-22-9-4-19-5-29-4-2 1-3 2-4 4-2 3 0 8 4 8 6 0 11 0 16 1 13 2 25 9 34 18 17 18 21 48 8 69-6 10-14 18-23 23-12 7-26 8-40 6-15-2-28-12-37-24-6-9-10-19-10-29-1-5-7-7-10-4-2 1-3 3-2 5 0 9 3 18 7 26 5 10 13 18 21 25 11 8 23 13 36 14z m-22-32c8 6 19 9 29 9-1-13-2-26-4-40-8 11-17 21-25 31z m36 9c10-2 20-7 27-14-10-9-20-17-30-26 1 13 2 26 3 40z m-55-41c1 10 6 20 13 27 9-10 17-20 26-30-13 1-26 2-39 3z m57-5c10 9 20 17 30 26 6-9 9-19 9-29-13 1-26 2-39 3z m-1-7c13-1 26-2 39-3-2-10-7-20-14-27-8 10-17 20-25 30z m-353-3c4 2 8 2 12 2 102 0 203 0 305 0 7 0 14-1 18-7 5-6 3-15-2-20-38-44-76-87-114-130-4-4-7-9-12-12-5-4-10-6-15-8-5-1-9-3-13-3 0-27 0-54 0-82-1-13 5-26 16-33 11-9 23-19 34-28 2-1 4-3 6-5 1-2 1-3 0-4-1-3-3-3-6-3-37 0-75 0-113 0-3 0-7 1-7 4 0 3 2 5 4 7 12 10 23 20 35 30 3 3 6 7 8 11 3 5 5 11 5 16 0 29 0 58 0 87-6 0-12 2-17 4-7 2-13 6-18 11-43 46-87 92-130 138-2 2-4 6-5 9-1 7 3 14 9 16z m347-2c9-10 17-20 25-29-8-6-18-9-28-9 1 13 2 25 3 38z m-335-14c102 0 204 0 305 0-38-44-77-88-116-132-5-7-13-10-22-12-6 0-13 0-19 0-9 1-18 5-24 12-41 44-83 88-124 132z m55-16c2 1 4 1 7 1 63 0 126 0 190 0 3 0 8 0 10-3 2-4 0-8-3-11-12-12-23-24-34-36-18-19-36-38-54-58-3-3-6-6-10-7-5-1-12 0-16 4-31 32-61 65-92 98-2 2-4 5-3 8 0 3 3 4 5 4z"/>
<glyph unicode="&#122;" d="M391 457c14 0 28-1 41-8 11-7 20-16 26-26 16-25 13-60-6-82-8-10-19-18-32-22-9-4-20-5-29-4-3 1-6 4-5 8 1 2 2 4 5 4 4 0 9 0 14 0 24 3 45 22 50 46 3 13 2 27-4 39-6 11-14 21-26 26-11 6-24 8-36 6-13-1-24-7-33-16-10-9-16-21-17-34 0-3 0-5-2-7-2-2-6-2-8 0-2 1-3 3-2 5 0 10 3 21 8 30 5 8 12 15 20 21 10 8 23 13 36 14z m-22-32c8 6 19 9 29 9-1-13-2-26-4-40-8 11-17 21-25 31z m36 9c10-2 20-7 27-14-10-9-20-17-30-26 1 13 2 26 3 40z m-55-41c1 10 6 20 13 27 9-10 17-20 26-30-13 1-26 2-39 3z m57-5c10 9 20 17 30 26 6-9 9-19 9-29-13 1-26 2-39 3z m-1-7c13-1 26-2 39-3-2-10-7-20-14-27-8 10-17 20-25 30z m-353-3c4 2 8 2 12 2 102 0 203 0 305 0 7 0 14-1 18-7 5-6 3-15-2-20-38-43-75-86-113-128-5-6-10-13-17-17-8-4-16-7-24-8 0-27 0-55 0-82-1-11 4-23 12-30 13-11 26-21 39-32 3-2 6-4 6-7 0-3-4-4-7-4-37 0-75 0-113 0-3 0-7 1-7 4 0 3 2 5 4 7 12 10 23 20 35 30 4 3 6 7 8 11 3 6 5 12 5 18 0 28 0 57 0 85-6 0-12 2-18 4-7 3-14 7-19 13-42 45-85 90-127 135-3 3-5 6-6 10-2 6 3 14 9 16z m347-2c9-10 17-20 25-29-8-6-18-9-28-9 1 13 2 25 3 38z m-335-14c102 0 204 0 305 0-38-44-77-88-116-132-5-6-13-10-21-12-5 0-10 0-15 0-11-1-22 4-29 12-41 44-83 88-124 132z m55-15c2 0 4 0 7 0 63 0 127 0 190 0 4 0 7 1 10-2 3-2 2-6 0-8-3-4-7-7-10-11-27-29-54-57-81-87-3-2-6-6-10-7-5-1-12 0-16 5-31 32-61 65-92 97-2 3-5 6-4 9 1 3 3 4 6 4z"/>
<glyph unicode="&#65;" d="M391 457c14 0 28-1 41-8 11-7 20-16 26-26 16-25 13-60-6-82-8-10-19-18-32-22-9-4-20-5-29-4-3 1-6 4-5 8 1 2 2 4 5 4 5 0 11-1 16 1 13 2 25 9 34 18 17 18 21 48 8 69-6 10-13 18-23 23-11 6-25 8-37 6-10-1-19-5-26-10-9-7-17-16-21-27-2-5-3-11-3-16-1-5-7-7-10-4-2 1-3 3-2 5 1 13 5 25 12 35 4 5 9 10 13 14 11 9 25 15 39 16z m-22-32c8 6 19 9 29 9-1-13-2-26-4-40-8 11-17 21-25 31z m36 9c10-2 20-7 27-14-10-9-20-17-30-26 1 13 2 26 3 40z m-55-41c1 10 6 20 13 27 9-10 17-20 26-30-13 1-26 2-39 3z m57-5c10 9 20 17 30 26 6-9 9-19 9-29-13 1-26 2-39 3z m-1-7c13-1 26-2 39-3-2-10-7-20-14-27-8 10-17 20-25 30z m-353-3c4 2 10 2 15 2 100 0 199 0 299 0 6 0 12 0 17-3 6-3 9-11 6-18-2-4-5-7-8-11-38-43-77-87-116-131-6-7-14-11-22-14-4-2-8-3-12-3 0-25 0-51 0-77 0-5-1-11 1-16 2-8 7-16 14-21 11-10 23-19 35-28 2-3 6-5 7-9 0-3-4-4-7-4-37 0-75 0-113 0-3 0-7 1-7 4 0 3 2 5 4 7 11 10 23 20 35 29 3 3 6 8 8 12 3 5 5 11 5 17 0 29 0 57 0 86-6 0-12 2-17 4-7 2-13 6-18 11-43 46-85 91-128 136-3 3-6 6-7 10-2 7 2 15 9 17z m347-2c9-10 17-20 25-29-8-6-18-9-28-9 1 13 2 25 3 38z m-335-14c102 0 204 0 305 0-38-44-77-88-116-132-5-7-13-10-22-12-6 0-13 0-19 0-9 1-18 5-24 12-41 44-83 88-124 132z m49-18c3 4 7 3 11 4 63 0 125 0 188 0 4 0 7 0 10-1 3 0 5-1 6-4 1-3-2-6-4-8-11-12-22-24-33-36-19-20-38-40-56-60-3-3-6-6-10-7-5-1-12 0-16 5-29 30-58 61-87 92-3 3-7 6-9 11-1 1 0 3 0 4z"/>
<glyph unicode="&#66;" d="M391 457c14 0 28-1 41-8 11-7 20-16 26-26 16-25 13-59-5-81-7-8-15-15-25-20-11-6-25-8-38-6-2 1-4 3-4 6 0 2 2 5 5 5 6 0 11 0 17 1 13 2 24 9 33 18 17 18 21 48 8 69-6 10-13 18-23 23-11 6-25 8-37 6-10-1-19-5-26-10-9-7-17-16-21-27-2-5-3-11-3-16-1-5-7-7-10-4-2 1-3 3-2 5 1 13 5 25 12 35 4 5 9 10 13 14 11 9 25 15 39 16z m-22-32c8 6 19 9 29 9-1-13-2-26-4-40-8 11-17 21-25 31z m36 9c10-2 20-7 27-14-10-9-20-17-30-26 1 13 2 26 3 40z m-55-41c1 10 6 20 13 27 9-10 17-20 26-30-13 1-26 2-39 3z m57-5c10 9 20 17 30 26 6-9 9-19 9-29-13 1-26 2-39 3z m-1-7c13-1 26-2 39-3-2-10-7-20-14-27-8 10-17 20-25 30z m-353-3c4 2 8 2 12 2 102 0 203 0 304 0 5 0 10 0 14-2 7-4 10-12 7-18-1-5-5-8-8-12-38-43-77-87-116-131-4-5-10-9-16-12-6-2-12-5-18-5 0-28 0-57 0-86 0-10 5-20 12-26 13-11 26-21 39-31 2-2 6-4 6-8 0-3-4-4-7-4-37 0-75 0-113 0-3 0-7 1-7 4 0 3 2 5 4 7 12 10 23 20 35 30 3 3 6 7 8 11 3 5 5 11 5 17 0 29 0 57 0 86-6 0-12 2-17 4-7 2-13 6-18 11-43 46-87 92-130 138-2 2-4 6-5 9-1 7 3 14 9 16z m347-2c9-10 17-20 25-29-8-6-18-9-28-9 1 13 2 25 3 38z m-335-14c102 0 204 0 305 0-37-42-74-84-111-127-4-4-7-8-12-11-5-3-10-5-15-6-7 0-13 0-20 0-8 1-17 5-22 12-42 44-83 88-125 132z m58-14c65 0 130 0 195 0 3 0 8 0 11-3 1-4-1-8-4-10-29-32-59-63-88-94-3-4-7-8-12-9-3-1-7-1-10 1-3 1-5 3-7 5-30 32-60 64-90 96-3 3-6 7-4 11 2 3 6 3 9 3z"/>
<glyph unicode="&#67;" d="M391 457c14 0 28-1 41-8 11-7 20-16 26-26 16-25 13-59-5-81-7-8-15-15-25-20-11-6-25-8-38-6-2 1-4 3-4 6 0 2 2 5 5 5 6 0 11 0 17 1 13 2 24 9 33 18 17 18 21 48 8 69-6 10-13 18-23 23-11 6-25 8-37 6-10-1-19-5-26-10-9-7-17-16-21-27-2-5-3-11-3-16-1-5-7-7-10-4-2 1-3 3-2 5 1 13 5 25 12 35 4 5 9 10 13 14 11 9 25 15 39 16z m-22-32c8 6 19 9 29 9-1-13-2-26-4-40-8 11-17 21-25 31z m36 9c10-2 20-7 27-14-10-9-20-17-30-26 1 13 2 26 3 40z m-55-41c1 10 6 20 13 27 9-10 17-20 26-30-13 1-26 2-39 3z m57-5c10 9 20 17 30 26 6-9 9-19 9-29-13 1-26 2-39 3z m-1-7c13-1 26-2 39-3-2-10-7-20-14-27-8 10-17 20-25 30z m-353-3c4 2 8 2 12 2 102 0 203 0 304 0 5 0 10 0 14-2 7-4 10-12 7-18-1-5-5-8-8-12-38-43-77-87-116-131-4-5-10-9-16-12-6-2-12-5-18-5 0-28 0-57 0-86 0-10 5-20 12-26 13-11 26-21 39-31 2-2 6-4 6-8 0-3-4-4-7-4-37 0-75 0-113 0-3 0-7 1-7 4 0 3 2 5 4 7 12 10 23 20 35 30 3 3 6 7 8 11 3 5 5 11 5 17 0 29 0 57 0 86-6 0-12 2-17 4-7 2-13 6-18 11-43 46-87 92-130 138-2 2-4 6-5 9-1 7 3 14 9 16z m347-2c9-10 17-20 25-29-8-6-18-9-28-9 1 13 2 25 3 38z m-335-14c102 0 204 0 305 0-37-42-74-84-111-127-4-4-7-8-12-11-5-3-10-5-15-6-7 0-13 0-20 0-8 1-17 5-22 12-42 44-83 88-125 132z m58-14c65 0 130 0 195 0 3 0 8 0 11-3 1-4-1-8-4-10-29-32-59-63-88-94-3-4-7-8-12-9-3-1-7-1-10 1-3 1-5 3-7 5-30 32-60 64-90 96-3 3-6 7-4 11 2 3 6 3 9 3z"/>
<glyph unicode="&#68;" d="M391 457c14 0 28-1 41-8 11-7 20-16 26-26 16-25 13-59-5-81-7-8-15-15-25-20-11-6-25-8-38-6-2 1-4 3-4 6 0 2 2 5 5 5 6 0 11 0 17 1 13 2 24 9 33 18 17 18 21 48 8 69-6 10-13 18-23 23-11 6-25 8-37 6-10-1-19-5-26-10-9-7-17-16-21-27-2-5-3-11-3-16-1-5-7-7-10-4-2 1-3 3-2 5 1 13 5 25 12 35 4 5 9 10 13 14 11 9 25 15 39 16z m-22-32c8 6 19 9 29 9-1-13-2-26-4-40-8 11-17 21-25 31z m36 9c10-2 20-7 27-14-10-9-20-17-30-26 1 13 2 26 3 40z m-55-41c1 10 6 20 13 27 9-10 17-20 26-30-13 1-26 2-39 3z m57-5c10 9 20 17 30 26 6-9 9-19 9-29-13 1-26 2-39 3z m-1-7c13-1 26-2 39-3-2-10-7-20-14-27-8 10-17 20-25 30z m-353-3c4 2 8 2 12 2 102 0 203 0 304 0 5 0 10 0 14-2 7-4 10-12 7-18-1-5-5-8-8-12-38-43-77-87-116-131-4-5-10-9-16-12-6-2-12-5-18-5 0-28 0-57 0-86 0-10 5-20 12-26 13-11 26-21 39-31 2-2 6-4 6-8 0-3-4-4-7-4-37 0-75 0-113 0-3 0-7 1-7 4 0 3 2 5 4 7 12 10 23 20 35 30 3 3 6 7 8 11 3 5 5 11 5 17 0 29 0 57 0 86-6 0-12 2-17 4-7 2-13 6-18 11-43 46-87 92-130 138-2 2-4 6-5 9-1 7 3 14 9 16z m347-2c9-10 17-20 25-29-8-6-18-9-28-9 1 13 2 25 3 38z m-335-14c102 0 204 0 305 0-37-42-74-84-111-127-4-4-7-8-12-11-5-3-10-5-15-6-7 0-13 0-20 0-8 1-17 5-22 12-42 44-83 88-125 132z m58-14c65 0 130 0 195 0 3 0 8 0 11-3 1-4-1-8-4-10-29-32-59-63-88-94-3-4-7-8-12-9-3-1-7-1-10 1-3 1-5 3-7 5-30 32-60 64-90 96-3 3-6 7-4 11 2 3 6 3 9 3z"/>
<glyph unicode="&#69;" d="M391 457c14 0 28-1 41-8 11-7 20-16 26-26 16-25 13-59-5-81-7-8-15-15-25-20-11-6-25-8-38-6-2 1-4 3-4 6 0 2 2 5 5 5 6 0 11 0 17 1 13 2 24 9 33 18 17 18 21 48 8 69-6 10-13 18-23 23-11 6-25 8-37 6-10-1-19-5-26-10-9-7-17-16-21-27-2-5-3-11-3-16-1-5-7-7-10-4-2 1-3 3-2 5 1 13 5 25 12 35 4 5 9 10 13 14 11 9 25 15 39 16z m-22-32c8 6 19 9 29 9-1-13-2-26-4-40-8 11-17 21-25 31z m36 9c10-2 20-7 27-14-10-9-20-17-30-26 1 13 2 26 3 40z m-55-41c1 10 6 20 13 27 9-10 17-20 26-30-13 1-26 2-39 3z m57-5c10 9 20 17 30 26 6-9 9-19 9-29-13 1-26 2-39 3z m-1-7c13-1 26-2 39-3-2-10-7-20-14-27-8 10-17 20-25 30z m-353-3c4 2 8 2 12 2 102 0 203 0 304 0 5 0 10 0 14-2 7-4 10-12 7-18-1-5-5-8-8-12-38-43-77-87-116-131-4-5-10-9-16-12-6-2-12-5-18-5 0-28 0-57 0-86 0-10 5-20 12-26 13-11 26-21 39-31 2-2 6-4 6-8 0-3-4-4-7-4-37 0-75 0-113 0-3 0-7 1-7 4 0 3 2 5 4 7 12 10 23 20 35 30 3 3 6 7 8 11 3 5 5 11 5 17 0 29 0 57 0 86-6 0-12 2-17 4-7 2-13 6-18 11-43 46-87 92-130 138-2 2-4 6-5 9-1 7 3 14 9 16z m347-2c9-10 17-20 25-29-8-6-18-9-28-9 1 13 2 25 3 38z m-335-14c102 0 204 0 305 0-37-42-74-84-111-127-4-4-7-8-12-11-5-3-10-5-15-6-7 0-13 0-20 0-8 1-17 5-22 12-42 44-83 88-125 132z m58-14c65 0 130 0 195 0 3 0 8 0 11-3 1-4-1-8-4-10-29-32-59-63-88-94-3-4-7-8-12-9-3-1-7-1-10 1-3 1-5 3-7 5-30 32-60 64-90 96-3 3-6 7-4 11 2 3 6 3 9 3z"/>
<glyph unicode="&#70;" d="M391 457c14 0 28-1 41-8 11-7 20-16 26-26 16-25 13-59-5-81-7-8-15-15-25-20-11-6-25-8-38-6-2 1-4 3-4 6 0 2 2 5 5 5 6 0 11 0 17 1 13 2 24 9 33 18 17 18 21 48 8 69-6 10-13 18-23 23-11 6-25 8-37 6-10-1-19-5-26-10-9-7-17-16-21-27-2-5-3-11-3-16-1-5-7-7-10-4-2 1-3 3-2 5 1 13 5 25 12 35 4 5 9 10 13 14 11 9 25 15 39 16z m-22-32c8 6 19 9 29 9-1-13-2-26-4-40-8 11-17 21-25 31z m36 9c10-2 20-7 27-14-10-9-20-17-30-26 1 13 2 26 3 40z m-55-41c1 10 6 20 13 27 9-10 17-20 26-30-13 1-26 2-39 3z m57-5c10 9 20 17 30 26 6-9 9-19 9-29-13 1-26 2-39 3z m-1-7c13-1 26-2 39-3-2-10-7-20-14-27-8 10-17 20-25 30z m-353-3c4 2 8 2 12 2 102 0 203 0 304 0 5 0 10 0 14-2 7-4 10-12 7-18-1-5-5-8-8-12-38-43-77-87-116-131-4-5-10-9-16-12-6-2-12-5-18-5 0-28 0-57 0-86 0-10 5-20 12-26 13-11 26-21 39-31 2-2 6-4 6-8 0-3-4-4-7-4-37 0-75 0-113 0-3 0-7 1-7 4 0 3 2 5 4 7 12 10 23 20 35 30 3 3 6 7 8 11 3 5 5 11 5 17 0 29 0 57 0 86-6 0-12 2-17 4-7 2-13 6-18 11-43 46-87 92-130 138-2 2-4 6-5 9-1 7 3 14 9 16z m347-2c9-10 17-20 25-29-8-6-18-9-28-9 1 13 2 25 3 38z m-335-14c102 0 204 0 305 0-37-42-74-84-111-127-4-4-7-8-12-11-5-3-10-5-15-6-7 0-13 0-20 0-8 1-17 5-22 12-42 44-83 88-125 132z m58-14c65 0 130 0 195 0 3 0 8 0 11-3 1-4-1-8-4-10-29-32-59-63-88-94-3-4-7-8-12-9-3-1-7-1-10 1-3 1-5 3-7 5-30 32-60 64-90 96-3 3-6 7-4 11 2 3 6 3 9 3z"/>
<glyph unicode="&#71;" d="M391 457c14 0 28-1 41-8 11-7 20-16 26-26 16-25 13-59-5-81-7-8-15-15-25-20-11-6-25-8-38-6-2 1-4 3-4 6 0 2 2 5 5 5 6 0 11 0 17 1 13 2 24 9 33 18 17 18 21 48 8 69-6 10-13 18-23 23-11 6-25 8-37 6-10-1-19-5-26-10-9-7-17-16-21-27-2-5-3-11-3-16-1-5-7-7-10-4-2 1-3 3-2 5 1 13 5 25 12 35 4 5 9 10 13 14 11 9 25 15 39 16z m-22-32c8 6 19 9 29 9-1-13-2-26-4-40-8 11-17 21-25 31z m36 9c10-2 20-7 27-14-10-9-20-17-30-26 1 13 2 26 3 40z m-55-41c1 10 6 20 13 27 9-10 17-20 26-30-13 1-26 2-39 3z m57-5c10 9 20 17 30 26 6-9 9-19 9-29-13 1-26 2-39 3z m-1-7c13-1 26-2 39-3-2-10-7-20-14-27-8 10-17 20-25 30z m-353-3c4 2 8 2 12 2 102 0 203 0 304 0 5 0 10 0 14-2 7-4 10-12 7-18-1-5-5-8-8-12-38-43-77-87-116-131-4-5-10-9-16-12-6-2-12-5-18-5 0-28 0-57 0-86 0-10 5-20 12-26 13-11 26-21 39-31 2-2 6-4 6-8 0-3-4-4-7-4-37 0-75 0-113 0-3 0-7 1-7 4 0 3 2 5 4 7 12 10 23 20 35 30 3 3 6 7 8 11 3 5 5 11 5 17 0 29 0 57 0 86-6 0-12 2-17 4-7 2-13 6-18 11-43 46-87 92-130 138-2 2-4 6-5 9-1 7 3 14 9 16z m347-2c9-10 17-20 25-29-8-6-18-9-28-9 1 13 2 25 3 38z m-335-14c102 0 204 0 305 0-37-42-74-84-111-127-4-4-7-8-12-11-5-3-10-5-15-6-7 0-13 0-20 0-8 1-17 5-22 12-42 44-83 88-125 132z m58-14c65 0 130 0 195 0 3 0 8 0 11-3 1-4-1-8-4-10-29-32-59-63-88-94-3-4-7-8-12-9-3-1-7-1-10 1-3 1-5 3-7 5-30 32-60 64-90 96-3 3-6 7-4 11 2 3 6 3 9 3z"/>
<glyph unicode="&#72;" d="M391 457c14 0 28-1 41-8 11-7 20-16 26-26 16-25 13-59-5-81-7-8-15-15-25-20-11-6-25-8-38-6-2 1-4 3-4 6 0 2 2 5 5 5 6 0 11 0 17 1 13 2 24 9 33 18 17 18 21 48 8 69-6 10-13 18-23 23-11 6-25 8-37 6-10-1-19-5-26-10-9-7-17-16-21-27-2-5-3-11-3-16-1-5-7-7-10-4-2 1-3 3-2 5 1 13 5 25 12 35 4 5 9 10 13 14 11 9 25 15 39 16z m-22-32c8 6 19 9 29 9-1-13-2-26-4-40-8 11-17 21-25 31z m36 9c10-2 20-7 27-14-10-9-20-17-30-26 1 13 2 26 3 40z m-55-41c1 10 6 20 13 27 9-10 17-20 26-30-13 1-26 2-39 3z m57-5c10 9 20 17 30 26 6-9 9-19 9-29-13 1-26 2-39 3z m-1-7c13-1 26-2 39-3-2-10-7-20-14-27-8 10-17 20-25 30z m-353-3c4 2 8 2 12 2 102 0 203 0 304 0 5 0 10 0 14-2 7-4 10-12 7-18-1-5-5-8-8-12-38-43-77-87-116-131-4-5-10-9-16-12-6-2-12-5-18-5 0-28 0-57 0-86 0-10 5-20 12-26 13-11 26-21 39-31 2-2 6-4 6-8 0-3-4-4-7-4-37 0-75 0-113 0-3 0-7 1-7 4 0 3 2 5 4 7 12 10 23 20 35 30 3 3 6 7 8 11 3 5 5 11 5 17 0 29 0 57 0 86-6 0-12 2-17 4-7 2-13 6-18 11-43 46-87 92-130 138-2 2-4 6-5 9-1 7 3 14 9 16z m347-2c9-10 17-20 25-29-8-6-18-9-28-9 1 13 2 25 3 38z m-335-14c102 0 204 0 305 0-37-42-74-84-111-127-4-4-7-8-12-11-5-3-10-5-15-6-7 0-13 0-20 0-8 1-17 5-22 12-42 44-83 88-125 132z m58-14c65 0 130 0 195 0 3 0 8 0 11-3 1-4-1-8-4-10-29-32-59-63-88-94-3-4-7-8-12-9-3-1-7-1-10 1-3 1-5 3-7 5-30 32-60 64-90 96-3 3-6 7-4 11 2 3 6 3 9 3z"/>
<glyph unicode="&#73;" d="M391 457c14 0 29-1 41-8 11-7 20-16 26-26 15-23 14-54-1-76-9-13-22-24-37-28-10-4-20-5-29-4-3 1-6 4-5 7 1 3 3 5 5 5 4 0 8 0 11 0 15 1 29 8 39 19 17 18 21 48 8 69-6 10-13 18-23 23-11 6-25 8-38 6-18-2-33-14-42-29-4-8-7-16-7-25-1-4-7-6-10-3-2 1-3 3-2 5 0 9 3 18 7 26 5 10 13 18 21 25 11 8 23 13 36 14z m-22-32c8 6 19 9 29 9-1-13-2-26-4-39 0 0 0 0-1 0-8 10-16 20-24 30z m36 9c10-2 20-7 27-14-10-9-20-18-30-26 1 13 2 26 3 40z m-55-41c1 10 6 20 13 27 9-10 17-20 26-30-13 1-26 2-39 3z m57-5c10 9 20 17 30 26 6-9 9-19 9-29-13 1-26 2-39 3z m-1-7c13-1 26-2 39-3-2-10-7-20-14-27-8 10-17 20-25 30z m-353-3c4 2 8 2 12 2 51 0 102 0 153 0 4-5 11-8 18-8 7-1 14 3 19 8 38 0 76 0 114 0 5 0 10 0 15-3 5-3 8-10 7-16-1-3-4-7-6-9-40-45-79-90-119-135-6-7-15-12-24-15-4-1-7-2-10-2 0-28 0-57 0-86 0-10 5-20 12-26 14-11 27-22 41-33 2-2 4-4 4-7-1-2-4-3-7-3-37 0-75 0-113 0-3 0-6 0-7 3-1 1 0 3 1 4 1 2 3 4 5 6 11 9 22 18 33 28 3 3 6 7 8 11 3 5 5 11 5 17 0 29 0 57 0 86-6 0-12 2-17 4-7 2-13 6-18 11-43 46-87 92-130 138-2 2-4 6-5 9-1 7 3 14 9 16z m347-2c9-10 17-20 25-29-8-6-18-9-28-9 1 13 2 25 3 38z m-335-14c102 0 204 0 306 0-39-44-78-88-116-132-6-6-14-10-23-12-6 0-13 0-19 0-8 1-16 5-21 10-43 45-85 89-127 134z m58-14c65 0 130 0 194 0 4 0 9 0 12-3 1-4-1-8-4-10-30-33-60-65-90-97-3-3-6-6-10-6-4 0-7-1-10 1-3 1-5 3-7 5-30 32-60 64-90 96-3 3-6 7-4 11 2 3 6 3 9 3z"/>
<glyph unicode="&#74;" d="M391 457c14 0 28-1 41-8 11-7 20-16 26-26 16-25 13-59-5-81-7-8-15-15-25-20-11-6-25-8-38-6-3 1-5 4-4 7 1 2 2 4 5 4 4 0 9 0 14 0 24 3 45 22 50 46 3 13 2 27-4 39-5 10-13 19-23 25-9 5-20 8-31 8-15 0-30-6-41-17-9-9-16-21-17-34 0-3 0-5-2-7-2-2-6-2-8 0-2 1-3 3-2 5 0 11 3 21 9 30 5 8 11 15 19 21 10 8 23 13 36 14z m-22-32c8 6 19 9 29 9-1-13-2-26-4-39 0 0 0 0-1 1-8 9-16 19-24 29z m36 9c10-2 20-7 27-14-10-9-20-17-30-26 1 13 2 26 3 40z m-55-41c1 10 6 20 13 27 9-10 17-20 26-30-13 1-26 2-39 3z m57-5c10 9 20 17 30 26 6-9 9-19 9-29-13 1-26 2-39 3z m-1-7c13-1 26-2 39-3-2-10-7-20-14-27-8 10-17 20-25 30z m-352-2c5 1 11 1 17 1 46 0 93 0 139 0 1-7 4-13 9-18-51 0-103 0-154 0 42-44 83-88 125-132 5-7 14-11 22-12 6 0 12 0 18 0 4 0 8 1 11 3 5 2 10 5 13 9 39 44 78 88 116 132-40 0-80 0-120 0 6 4 9 11 9 18 37 0 75 0 112 0 6 0 14-1 17-7 5-6 3-15-2-20-39-45-79-89-118-134-4-6-10-10-17-13-6-3-13-6-19-6 0-28 0-57 0-86 0-10 5-20 12-26 13-11 26-21 39-31 2-2 6-4 6-8 0-3-4-4-7-4-37 0-75 0-113 0-3 0-7 1-7 4 0 3 2 5 4 7 12 10 23 20 35 30 5 4 8 9 10 15 2 4 3 9 3 14 0 28 0 57 0 85-6 0-12 2-17 4-7 2-13 6-18 11-43 46-86 91-129 137-3 3-5 6-6 10-2 7 3 15 10 17z m346-3c9-10 17-20 25-29-8-6-18-9-28-9 1 13 2 25 3 38z m-277-28c64 0 128 0 192 0 3 0 7 0 10-1 2 0 4-2 4-4 1-3-2-6-4-9-30-31-59-63-89-95-3-3-6-6-11-7-3-1-7-1-10 1-4 1-6 5-9 7-29 32-59 63-88 94-3 3-6 7-4 11 2 3 6 3 9 3z"/>
<glyph unicode="&#75;" d="M391 457c14 0 28-1 41-8 11-7 20-16 26-26 16-25 13-60-6-82-8-10-19-18-32-22-9-4-20-5-29-4-3 1-6 4-5 8 1 2 2 4 4 4 5 0 10 0 15 0 24 3 45 22 50 46 3 13 2 27-4 39-6 11-14 21-26 26-11 6-24 8-36 6-13-1-24-7-33-16-10-9-16-21-17-34 0-3 0-5-2-7-2-1-5-2-7-1-2 1-4 3-3 5 0 10 3 19 7 27 5 10 13 18 21 25 11 8 23 13 36 14z m-22-32c8 6 19 9 29 9-1-13-2-26-4-40-8 11-17 21-25 31z m36 9c10-2 20-7 27-14-10-9-20-17-30-26 1 13 2 26 3 40z m-55-41c1 10 6 20 13 27 9-10 17-20 26-30-13 1-26 2-39 3z m57-5c10 9 20 17 30 26 6-9 9-19 9-29-13 1-26 2-39 3z m-354-10c4 2 8 2 12 2 50 0 99 0 149 0-4-5-6-12-6-18-47 0-95 0-143 0 42-44 83-88 125-132 5-7 14-11 22-12 6 0 12 0 18 0 4 0 8 2 12 3 5 2 9 5 12 9 39 44 78 88 116 132-37 0-75 0-113 0 1 6-1 13-5 18 39 0 78 0 117 0 5 0 10 0 14-2 6-3 9-11 8-17-1-3-3-6-6-9-39-44-78-89-117-133-4-5-9-10-15-12-7-4-14-7-21-7 0-28 0-57 0-86 0-11 6-23 16-29 12-10 25-21 38-31 1-1 3-3 3-6-1-2-4-3-7-3-37 0-75 0-113 0-3 0-7 1-7 4 0 3 2 5 4 7 12 10 23 20 35 30 4 3 6 7 8 11 3 6 5 12 5 18 0 28 0 57 0 85-7 0-13 2-19 5-7 2-13 7-18 13-43 45-85 90-128 135-2 2-4 6-5 9-1 7 3 14 9 16z m353 3c13-1 26-2 39-3-2-10-7-20-14-27-8 10-17 20-25 30z m-6-5c9-10 17-20 25-29-8-6-18-9-28-9 1 13 2 25 3 38z m-281-29c3 1 7 1 10 1 29 0 57 0 86 0 3-4 9-7 15-8 8-1 16 2 21 8 22 0 44 0 66 0 2 0 5 0 8-1 2 0 4-2 4-4 1-3-2-6-4-9-30-32-60-64-90-96-3-3-6-6-10-6-4 0-7-1-10 1-3 1-5 3-7 5-30 32-60 64-90 96-2 3-5 6-4 9 0 3 2 4 5 4z"/>
<glyph unicode="&#76;" d="M391 457c14 0 29-1 41-8 11-7 20-16 26-26 16-25 13-60-6-82-8-10-19-18-32-22-9-4-19-5-29-4-2 1-3 2-4 4-2 3 0 8 4 8 5 0 9 0 14 0 24 3 45 22 50 46 3 13 2 27-4 39-6 11-14 21-26 26-11 6-24 8-37 6-9-1-18-5-25-10-9-7-17-17-21-28-2-5-3-10-3-15 0-5-7-7-10-4-1 1-3 2-2 4 0 15 6 29 15 39 7 9 15 16 25 21 8 3 16 5 24 6z m-22-32c8 6 19 9 29 9-1-13-2-26-4-40-8 11-17 21-25 31z m36 9c10-2 20-7 27-14-10-9-20-17-30-26 1 13 2 26 3 40z m-55-41c1 10 6 20 13 27 9-10 17-20 26-30-13 1-26 2-39 3z m57-5c10 9 20 17 30 26 6-9 9-19 9-29-13 1-26 2-39 3z m-1-7c13-1 26-2 39-3-2-10-7-20-14-27-8 10-17 20-25 30z m-353-3c4 2 8 2 12 2 63 0 125 0 188 0-4-4-8-8-11-12-6 3-12 3-18 2-4-2-9-4-12-8-49 0-98 0-147 0 42-44 83-88 125-132 5-7 14-11 22-12 6 0 12 0 18 0 4 0 8 2 12 3 5 2 9 5 12 9 39 44 78 88 116 132-39 0-78 0-118 0 6 5 11 12 15 18 34 0 68 0 102 0 5 0 10 0 14-2 7-4 10-12 7-18-1-5-5-8-8-12-38-43-77-87-116-131-6-7-14-11-22-14-4-2-8-3-12-3 0-28 0-57 0-86 0-10 5-20 12-26 14-12 28-23 42-34 1-1 3-3 3-6-1-2-4-3-7-3-37 0-75 0-113 0-3 0-7 1-7 4 0 3 2 5 4 7 12 10 23 20 35 30 4 3 6 7 8 11 3 6 5 12 5 18 0 28 0 57 0 85-7 0-13 2-19 5-7 2-13 7-18 13-42 44-84 88-126 133-3 3-6 6-7 10-2 7 2 15 9 17z m347-2c9-10 17-20 25-29-8-6-18-9-28-9 1 13 2 25 3 38z m-281-29c3 1 7 1 11 1 25 0 51 0 76 0 0-8 3-17 10-22 8-6 21-6 29 1 7 5 11 13 10 21 21 0 42 0 63 0 4 0 8 0 11-3 1-4-1-8-4-10-28-30-56-60-84-90-4-4-7-8-11-11-6-4-16-3-21 3-30 32-60 64-91 96-2 3-5 6-4 10 0 3 2 4 5 4z"/>
<glyph unicode="&#77;" d="M391 457c14 0 29-1 41-8 11-7 20-16 26-26 16-25 13-60-6-82-8-10-19-18-32-22-9-4-19-5-29-4-3 1-6 4-5 7 1 3 2 5 5 5 5 0 11-1 16 1 14 2 25 9 34 18 17 18 21 48 8 69-6 10-14 18-23 23-12 7-27 8-40 6-15-3-28-12-37-25-6-8-10-18-10-28-1-5-7-7-10-4-2 1-3 3-2 5 1 14 6 28 15 38 7 9 16 17 27 21 7 4 15 5 22 6z m-22-32c8 6 19 9 29 9-1-13-2-26-4-40-8 11-17 21-25 31z m36 9c10-2 20-7 27-14-10-9-20-17-30-26 1 13 2 26 3 40z m-55-41c1 10 6 20 13 27 9-10 17-20 26-30-13 1-26 2-39 3z m57-5c10 9 20 17 30 26 6-9 9-19 9-29-13 1-26 2-39 3z m-1-7c13-1 26-2 39-3-2-10-7-20-14-27-8 10-17 20-25 30z m-354-3c5 2 11 2 16 2 66 0 133 0 199 0-2-7-5-13-9-18-65 0-129 0-193 0 42-45 84-89 127-134 5-5 12-9 20-10 6 0 12 0 18 0 4 0 8 1 11 3 5 2 10 5 13 9 39 44 78 88 116 132-32 0-65 0-98 0 3 6 6 12 7 18 25 0 50 0 76 0 7 0 14 0 22 0 6-1 12-5 13-11 2-6 0-12-4-17-39-43-78-87-116-131-3-3-5-6-9-9-5-4-10-7-16-9-5-1-9-3-13-3 0-28 0-57 0-86 0-10 5-20 12-26 14-12 28-23 42-34 1-1 3-3 3-6-1-2-4-3-7-3-37 0-75 0-113 0-3 0-7 1-7 4 0 3 2 5 4 7 12 10 23 20 35 30 3 3 6 7 8 11 3 5 5 11 5 17 0 29 0 57 0 86-6 0-12 2-17 4-7 2-13 6-18 11-42 45-84 89-126 134-3 3-7 7-9 12-2 6 2 14 8 17z m348-2c9-10 17-20 25-29-8-6-18-9-28-9 1 13 2 25 3 38z m-282-29c5 1 9 1 13 1 29 0 58 0 87 0-5-3-9-6-12-11-4-9-3-19 3-27 2-3 6-6 11-8 5-2 11-2 17 0 10 4 17 16 15 27 0 3-1 6-3 9 4 3 8 6 12 10 19 0 39 0 58 0 3 0 8 0 10-3 1-4-1-8-4-10-30-33-60-65-90-97-3-3-6-6-10-6-4 0-7-1-10 1-3 1-5 3-7 5-30 32-60 64-90 96-2 2-5 5-4 9 0 3 2 4 4 4z m120 1c2 0 3 0 5 0-1-1-1-1-2-2-1 1-2 1-3 2z"/>
<glyph unicode="&#78;" d="M391 457c14 0 28-1 41-8 11-7 20-16 26-26 16-25 13-60-6-82-8-10-19-18-32-22-9-4-19-5-29-4-3 1-6 4-5 8 1 2 2 4 4 4 6 0 12-1 17 1 14 2 25 9 34 18 17 18 21 48 8 69-6 10-13 18-23 23-11 6-25 8-38 6-12-1-24-7-32-16-11-10-16-24-17-37-1-5-7-7-10-4-2 1-3 3-2 5 0 9 3 18 7 27 4 7 10 14 16 20 11 10 26 17 41 18z m-22-32c8 6 19 9 29 9-1-13-2-26-4-40-8 11-17 21-25 31z m36 9c10-2 20-7 27-14-10-9-20-17-30-26 1 13 2 26 3 40z m-55-41c1 10 6 20 13 27 9-10 17-20 26-30-13 1-26 2-39 3z m57-5c10 9 20 17 30 26 6-9 9-19 9-29-13 1-26 2-39 3z m-1-7c13-1 26-2 39-3-2-10-7-20-14-27-8 10-17 20-25 30z m-353-3c4 2 8 2 12 2 102 0 203 0 305 0 7 0 14-1 18-7 5-6 3-15-2-20-38-43-75-86-113-129-5-5-10-12-17-16-7-4-16-7-24-8 0-28 0-57 0-86 0-10 5-20 12-26 13-11 26-21 39-32 3-2 6-4 6-7 0-3-4-4-7-4-37 0-75 0-113 0-3 0-7 1-7 4 0 3 2 5 4 7 12 10 23 20 35 30 3 3 6 7 8 11 3 5 5 11 5 17 0 29 0 57 0 86-6 0-12 2-17 4-7 2-13 6-18 11-43 46-87 92-130 138-2 2-4 6-5 9-1 7 3 14 9 16z m347-2c9-10 17-20 25-29-8-6-18-9-28-9 1 13 2 25 3 38z m-129-14c1 2 2 5 5 5 2 0 4 0 5-1 2-1 2-2 3-4 29 0 58 0 86 0-38-44-77-88-116-132-5-6-13-10-21-12-7 0-14 0-20 0-9 1-18 6-24 13-41 44-83 87-124 131 69 0 138 0 206 0z m-152-15c2 1 5 1 8 1 47 0 94 0 141 0-6-11-16-19-27-25-10 8-27 6-34-4-9-10-6-27 4-35 4-3 10-5 15-5 12 0 23 10 25 22 0 4-1 9-3 13 7 3 12 7 17 12 7 6 13 13 16 22 13 0 25 0 37 0 4 0 8 0 11-3 1-4-1-8-4-10-28-31-57-61-85-92-4-3-6-7-10-9-7-4-16-3-21 3-30 32-61 65-91 97-2 2-5 5-4 9 0 3 2 4 5 4z"/>
<glyph unicode="&#79;" d="M391 457c14 0 28-1 41-8 11-7 20-16 26-26 15-23 14-53-1-75-7-11-17-20-29-26-11-6-25-8-38-6-3 1-5 4-4 7 1 2 2 4 5 4 4 0 9 0 14 0 24 3 45 22 50 46 3 13 2 27-4 39-6 11-14 21-26 26-11 6-24 8-36 6-13-1-24-7-33-16-10-9-16-21-17-34 0-3 0-5-2-7-2-1-5-2-7-1-2 1-4 3-3 5 0 10 3 19 7 27 5 10 13 18 21 25 11 8 23 13 36 14z m-22-32c8 6 19 9 29 9-1-13-2-26-4-40-8 11-17 21-25 31z m36 9c10-2 20-7 27-14-10-9-20-17-30-26 1 13 2 26 3 40z m-55-41c1 10 6 20 13 27 9-10 17-20 26-30-13 1-26 2-39 3z m57-5c10 9 20 17 30 26 6-9 9-19 9-29-13 1-26 2-39 3z m-1-7c13-1 26-2 39-3-2-10-7-20-14-27-8 10-17 20-25 30z m-353-3c4 2 8 2 12 2 102 0 203 0 305 0 6 0 13-1 17-6 6-5 5-14 0-20-8-9-16-18-23-27-30-34-61-68-91-102-5-6-10-13-17-17-8-4-16-7-24-8 0-28 0-57 0-86 0-10 5-20 12-26 13-10 25-20 37-30 3-3 7-5 8-9 0-3-4-4-7-4-37 0-75 0-113 0-3 0-6 0-7 3-1 1 0 3 1 4 1 2 3 4 5 6 11 9 22 18 33 28 4 3 6 7 8 11 3 5 5 11 5 17 0 29 0 57 0 86-6 0-12 2-17 4-7 2-13 6-18 11-43 46-87 92-130 138-2 2-4 6-5 9-1 7 3 14 9 16z m347-2c9-10 17-20 25-29-8-6-18-9-28-9 1 13 2 25 3 38z m-335-14c102 0 204 0 305 0-38-44-77-88-116-132-5-6-13-10-21-12-5 0-10 0-15 0-10 0-20 3-26 10-43 45-85 89-127 134z m58-14c65 0 130 0 195 0 3 0 8 0 10-3 2-2 1-4 0-6-1-3-4-5-6-7-29-32-58-63-88-94-3-4-7-7-12-6-5-1-10 2-14 6-30 32-60 64-90 96-3 3-6 7-4 11 2 3 6 3 9 3z m152-16c0 3 3 5 5 6 4 0 7-3 7-6 0-13-9-24-19-32-7-5-13-10-21-12 2-8 1-16-4-22-4-5-9-9-16-10-4 0-8 0-12 1-7 3-13 9-15 16-2 5-1 11 0 16 3 7 9 12 15 14 9 3 19 1 26-5 9 4 19 10 26 17 4 5 8 11 8 17z"/>
<glyph unicode="&#80;" d="M391 457c14 0 28-1 41-8 11-7 20-16 26-26 15-23 14-53-1-75-7-11-17-20-29-26-11-6-25-8-38-6-2 1-4 3-4 6 0 2 2 5 5 5 5 0 9 0 14 0 24 3 45 22 50 46 3 13 2 27-4 39-6 11-14 21-26 26-11 6-24 8-36 6-13-1-24-7-33-16-10-9-16-21-17-34 0-3 0-5-2-7-2-1-5-2-7-1-2 1-4 3-3 5 0 10 3 19 7 27 5 10 13 18 21 25 11 8 23 13 36 14z m-22-32c8 6 19 9 29 9-1-13-2-26-4-40-8 11-17 21-25 31z m36 9c10-2 20-7 27-14-10-9-20-17-30-26 1 13 2 26 3 40z m-55-41c1 10 6 20 13 27 9-10 17-20 26-30-13 1-26 2-39 3z m57-5c10 9 20 17 30 26 6-9 9-19 9-29-13 1-26 2-39 3z m-1-7c13-1 26-2 39-3-2-10-7-20-14-27-8 10-17 20-25 30z m-353-3c4 2 9 2 13 2 101 0 203 0 305 0 6 0 14-1 17-7 5-6 3-15-2-20-39-45-79-89-118-134-4-5-9-10-15-12-7-4-14-7-21-7 0-28 0-57 0-86 0-11 6-22 15-29 12-10 24-19 36-29 3-2 6-4 6-7 0-3-4-4-7-4-37 0-75 0-113 0-3 0-7 1-7 4 0 3 2 5 4 7 8 7 16 14 25 21 5 5 11 8 15 14 4 7 8 15 8 24 0 28 0 57 0 85-6 0-12 2-17 4-7 2-13 6-18 11-43 46-87 92-130 138-2 2-4 6-5 9-1 7 3 14 9 16z m347-2c9-10 17-20 25-29-8-6-18-9-28-9 1 13 2 25 3 38z m-335-14c102 0 204 0 305 0-38-44-77-88-115-132-6-6-14-10-23-12-6 0-13 0-19 0-8 1-16 5-21 10-43 45-85 89-127 134z m58-14c65 0 130 0 195 0 3 0 8 0 11-3 1-4-1-8-4-10-28-31-57-61-85-91-3-4-6-7-10-10-7-4-16-3-21 3-31 33-61 65-91 97-3 3-6 7-4 11 2 3 6 3 9 3z m152-20c0 4 3 6 7 6 3 0 6-4 5-7-1-12-9-22-18-30-7-5-14-10-22-13 2-7 1-16-4-22-4-5-9-9-16-10-4 0-8 0-12 1-7 3-13 9-15 17-2 6-1 13 2 19 3 4 6 8 11 10 9 4 20 2 28-5 10 5 19 10 26 18 4 5 8 10 8 16z"/>
<glyph unicode="&#81;" d="M391 457c14 0 28-1 41-8 11-7 20-16 26-26 16-25 13-60-6-82-8-10-19-18-32-22-9-4-20-5-29-4-3 1-6 4-5 7 1 2 2 5 4 5 5 0 10 0 15 0 24 3 45 22 50 46 3 13 2 27-4 39-5 10-13 19-23 25-9 5-20 8-31 8-13 0-27-5-37-13-4-4-7-7-11-11-6-8-9-18-10-28 0-2 0-4-2-6-2-2-6-2-8 0-1 1-3 2-2 4 0 10 3 19 7 27 5 10 13 18 21 25 11 8 23 13 36 14z m-22-32c8 6 19 9 29 9-1-13-2-26-4-40-8 11-17 21-25 31z m36 9c10-2 20-7 27-14-10-9-20-18-30-26 1 13 2 26 3 40z m-55-41c1 10 6 20 13 27 9-10 17-20 26-30-13 1-26 2-39 3z m57-5c10 9 20 17 30 26 6-9 9-19 9-29-13 1-26 2-39 3z m-1-7c13-1 26-2 39-3-2-10-7-20-14-27-8 10-17 20-25 30z m-353-3c4 2 8 2 12 2 102 0 203 0 304 0 5 0 11 0 15-3 5-3 8-10 7-16-1-3-3-7-6-9-40-45-79-90-119-135-6-8-15-12-25-15-3-1-6-2-9-2 0-28 0-57 0-86 0-10 5-20 12-26 13-11 26-21 39-32 3-2 6-4 6-7 0-3-4-4-7-4-37 0-75 0-113 0-3 0-7 1-7 4 0 3 2 5 4 7 12 10 23 20 35 30 3 3 6 7 8 11 3 5 5 11 5 17 0 29 0 57 0 86-6 0-12 2-17 4-7 2-13 6-18 11-43 46-87 92-130 138-2 2-4 6-5 9-1 7 3 14 9 16z m347-2c9-10 17-20 25-29-8-6-18-9-28-9 1 13 2 25 3 38z m-335-14c102 0 204 0 305 0-38-44-77-88-116-132-5-6-13-10-22-12-6 0-13 0-19 0-9 1-18 5-24 12-41 44-83 88-124 132z m58-14c64 0 128 0 192 0 3 0 7 0 10-1 2 0 4-2 4-4 1-3-2-6-4-9-29-31-58-61-87-92-2-3-5-6-9-8-6-4-15-3-20 3-30 32-60 64-90 96-2 2-4 5-5 7-1 2 0 5 1 6 3 2 5 2 8 2z m152-22c1 5 8 7 10 3 3-2 2-6 1-8-2-10-8-18-15-24-7-7-15-12-24-16 2-7 1-15-3-21-2-3-5-5-8-7-6-4-15-5-22-2-7 3-12 9-14 16-2 5-1 11 1 16 2 6 8 12 14 14 9 3 19 1 26-5 9 4 18 9 25 16 5 5 9 11 9 18z"/>
<glyph unicode="&#82;" d="M391 457c14 0 28-1 41-8 11-7 20-16 26-26 16-25 13-60-6-82-8-10-19-18-32-22-9-4-20-5-29-4-2 1-3 2-4 4-2 3 0 8 4 8 6 0 11 0 16 1 14 2 25 9 34 18 17 18 21 48 8 69-6 10-13 18-23 23-11 6-25 8-37 6-10-1-19-5-26-10-9-7-17-16-21-28-2-5-3-10-3-15-1-5-7-7-10-4-2 1-3 3-2 5 1 13 5 25 12 35 4 5 9 10 13 14 11 9 25 15 39 16z m-22-32c8 6 19 9 29 9-1-13-2-26-4-40-8 11-17 21-25 31z m36 9c10-2 20-7 27-14-10-9-20-17-30-26 1 13 2 26 3 40z m-55-41c1 10 6 20 13 27 9-10 17-20 26-30-13 1-26 2-39 3z m57-5c10 9 20 17 30 26 6-9 9-19 9-29-13 1-26 2-39 3z m-1-7c13-1 26-2 39-3-2-10-7-20-14-27-8 10-17 20-25 30z m-353-3c4 2 10 2 15 2 84 0 167 0 251 0 18 0 35 0 53 0 6 0 13-2 17-7 4-7 2-15-3-20-39-45-79-89-118-134-4-6-10-10-17-13-6-3-13-6-19-6 0-28 0-57 0-86 0-10 5-20 12-26 13-11 26-21 39-32 3-2 6-4 6-7 0-3-4-4-7-4-37 0-75 0-113 0-3 0-7 1-7 4 0 3 2 5 4 7 12 10 23 20 35 30 3 3 6 7 8 11 3 5 5 11 5 17 0 29 0 57 0 86-6 0-12 2-17 4-7 2-13 6-18 11-43 46-85 91-128 136-3 3-6 6-7 10-2 7 2 15 9 17z m347-2c9-10 17-20 25-29-8-6-18-9-28-9 1 13 2 25 3 38z m-335-14c102 0 204 0 306 0-39-44-78-88-116-132-6-6-14-10-23-12-6 0-13 0-19 0-6 1-12 3-18 7-3 2-5 5-7 7-41 44-82 87-123 130z m58-14c65 0 130 0 195 0 3 0 8 0 11-3 1-4-1-8-4-10-28-30-56-60-84-90-4-4-7-8-11-11-6-4-16-3-21 3-30 32-61 65-91 97-3 3-6 6-4 11 2 3 6 3 9 3z m152-26c0 3 3 6 7 6 3 0 6-4 5-8-1-12-10-22-19-30-7-5-13-10-21-12 2-7 1-15-3-22-4-5-10-9-16-10-5-1-9 0-14 1-7 3-12 9-14 16-2 6-1 13 2 19 3 5 7 9 13 11 9 3 19 1 26-5 9 4 18 9 25 17 5 4 9 10 9 17z"/>
<glyph unicode="&#83;" d="M391 457c14 0 28-1 41-8 11-7 20-16 26-26 16-25 13-60-6-82-8-10-19-18-32-22-9-4-20-5-29-4-3 1-6 4-5 8 1 2 2 4 5 4 4 0 9 0 14 0 24 3 45 22 50 46 3 13 2 27-4 39-6 11-14 21-26 26-11 6-24 8-36 6-13-1-24-7-33-16-10-9-16-21-17-34 0-2 0-5-2-7-2-2-7-2-9 1-2 2-1 5-1 8 2 15 8 29 19 39 12 12 28 21 45 22z m-22-32c8 6 19 9 29 9-1-13-2-26-4-40-8 11-17 21-25 31z m36 9c10-2 20-7 27-14-10-9-20-17-30-26 1 13 2 26 3 40z m-55-41c1 10 6 20 13 27 9-10 17-20 26-30-13 1-26 2-39 3z m57-5c10 9 20 17 30 26 6-9 9-19 9-29-13 1-26 2-39 3z m-1-7c13-1 26-2 39-3-2-10-7-20-14-27-8 10-17 20-25 30z m-353-3c4 2 8 2 12 2 102 0 203 0 304 0 5 0 11 0 15-3 6-3 8-11 6-17-2-6-6-9-9-13-37-42-73-83-109-124-3-3-5-6-8-9-6-5-13-9-20-11-4-2-8-3-12-3 0-27 0-54 0-81-1-13 5-27 16-34 12-10 23-19 35-29 2-1 6-4 6-7 0-3-4-4-7-4-37 0-75 0-113 0-3 0-6 0-7 3-1 1 0 3 0 4 2 2 4 4 6 6 11 9 22 18 33 28 4 3 6 7 8 11 3 6 5 12 5 18 0 28 0 57 0 85-6 0-12 2-18 4-6 3-12 6-17 11-43 46-85 91-128 136-3 3-6 6-7 11-2 6 3 14 9 16z m347-2c9-10 17-20 25-29-8-6-18-9-28-9 1 13 2 25 3 38z m-335-14c102 0 204 0 305 0-38-44-77-88-116-132-5-6-13-10-22-12-6 0-13 0-19 0-9 1-18 5-24 12-41 44-83 88-124 132z m58-14c65 0 130 0 195 0 3 0 8 0 11-3 1-4-1-8-4-10-28-30-56-60-84-90-4-4-7-8-11-11-6-4-16-3-21 3-30 32-61 65-91 97-3 3-6 7-4 11 2 3 6 3 9 3z m152-29c0 3 3 6 6 6 3 0 7-3 6-7-1-11-8-21-16-28-8-6-15-12-24-15 2-7 1-14-2-20-2-3-5-6-8-8-7-5-17-5-25-1-5 3-9 7-11 12-3 6-3 13 0 18 2 6 6 11 11 13 10 5 21 3 29-4 9 4 18 10 25 17 5 4 9 10 9 17z"/>
<glyph unicode="&#84;" d="M391 457c14 0 28-1 41-8 11-7 20-16 26-26 16-25 13-60-6-82-8-10-19-18-32-22-9-4-19-5-29-4-2 1-3 2-4 4-2 3 0 8 4 8 6 0 11 0 17 1 13 2 24 9 33 18 17 18 21 48 8 69-6 10-13 18-23 23-11 6-25 8-37 6-10-1-19-5-26-10-10-7-18-17-21-28-2-5-3-10-3-15 0-5-7-7-10-4-2 1-3 3-2 5 1 13 5 25 12 35 4 5 9 10 13 14 11 9 25 15 39 16z m-22-32c8 6 19 9 29 9-1-13-2-26-4-40-8 11-17 21-25 31z m36 9c10-2 20-7 27-14-10-9-20-18-30-26 1 13 2 26 3 40z m-55-41c1 10 6 20 13 27 9-10 17-20 26-30-13 1-26 2-39 3z m57-5c10 9 20 17 30 26 6-9 9-19 9-29-13 1-26 2-39 3z m-1-7c13-1 26-2 39-3-2-10-7-20-14-27-8 10-17 20-25 30z m-353-3c4 2 8 2 12 2 102 0 203 0 304 0 5 0 11 0 15-3 5-3 8-10 7-16-1-3-3-7-6-9-40-45-79-90-119-135-4-5-9-8-14-11-7-3-13-6-20-6 0-28 0-57 0-86 0-10 5-20 12-26 13-11 26-21 39-32 3-2 6-4 6-7 0-3-4-4-7-4-37 0-75 0-113 0-3 0-7 1-7 4 0 3 2 5 4 7 12 10 23 20 35 30 3 3 6 7 8 11 3 5 5 11 5 16 0 29 0 58 0 87-6 0-12 2-17 4-7 2-13 6-18 11-43 46-87 92-130 138-2 2-4 6-5 9-1 7 3 14 9 16z m347-2c9-10 17-20 25-29-8-6-18-9-28-9 1 13 2 25 3 38z m-335-14c102 0 204 0 305 0-38-44-77-88-115-132-6-6-14-10-23-12-6 0-13 0-19 0-9 1-17 5-23 12-42 44-83 88-125 132z m58-14c65 0 130 0 195 0 3 0 8 0 11-3 1-4-1-8-4-10-28-31-57-61-85-92-4-3-6-7-10-9-7-4-16-3-21 3-31 33-61 65-91 97-3 3-6 7-4 11 2 3 6 3 9 3z m152-27c0 5 8 7 11 3 2-2 1-5 1-8-3-10-10-19-17-25-7-6-15-11-23-14 2-8 1-16-4-22-4-5-9-9-16-10-4-1-8-1-12 1-7 3-13 9-15 16-2 7-1 14 2 20 3 3 5 6 9 8 9 6 22 4 30-3 9 4 19 10 26 17 4 5 8 11 8 17z"/>
<glyph unicode="&#85;" d="M391 457c14 0 28-1 41-8 11-7 20-16 26-26 16-25 13-60-6-82-8-10-19-18-32-22-9-4-19-5-29-4-2 1-3 2-4 4-2 3 0 8 4 8 6 0 11 0 17 1 13 2 24 9 33 18 17 18 21 48 8 69-6 10-13 18-23 23-11 6-25 8-37 6-10-1-19-5-26-10-9-7-17-16-21-27-2-5-3-11-3-16-1-5-7-7-10-4-2 1-3 3-2 5 1 13 5 25 12 35 4 5 9 10 13 14 11 9 25 15 39 16z m-22-32c8 6 19 9 29 9-1-13-2-26-4-40-8 11-17 21-25 31z m36 9c10-2 20-7 27-14-10-9-20-18-30-26 1 13 2 26 3 40z m-55-41c1 10 6 20 13 27 9-10 17-20 26-30-13 1-26 2-39 3z m57-5c10 9 20 17 30 26 6-9 9-19 9-29-13 1-26 2-39 3z m-1-7c13-1 26-2 39-3-2-10-7-20-14-27-8 10-17 20-25 30z m-353-3c4 2 8 2 12 2 102 0 203 0 304 0 5 0 10 0 14-2 7-4 10-12 7-18-1-5-5-8-8-12-38-43-77-87-116-131-6-7-14-11-22-14-4-2-8-3-12-3 0-27 0-54 0-81-1-13 5-27 16-34 11-9 23-19 34-28 2-1 4-3 6-5 1-2 1-3 0-4-1-3-3-3-6-3-37 0-75 0-113 0-3 0-7 1-7 4 0 3 2 5 4 7 12 10 23 20 35 30 3 3 6 7 8 11 3 5 5 11 5 16 0 29 0 58 0 87-6 0-12 2-17 4-7 2-13 6-18 11-43 46-87 92-130 138-2 2-4 6-5 9-1 7 3 14 9 16z m347-2c9-10 17-20 25-29-8-6-18-9-28-9 1 13 2 25 3 38z m-335-14c102 0 204 0 305 0-38-44-77-88-115-132-6-6-14-10-23-12-6 0-13 0-19 0-9 1-17 5-23 12-42 44-83 88-125 132z m58-14c65 0 130 0 195 0 3 0 8 0 11-3 1-4-1-8-4-10-30-33-60-65-90-97-3-3-6-6-10-6-4-1-7-1-10 1-3 1-5 3-7 5-29 31-59 63-88 94-3 2-5 5-6 8-1 2 0 5 1 6 3 2 5 2 8 2z m152-25c0 3 3 6 7 5 3 0 5-3 5-6-1-11-8-21-16-28-7-6-15-12-24-16 2-7 1-15-3-21-2-3-5-5-8-7-6-4-15-5-22-2-6 3-12 9-14 16-1 5-1 10 0 15 3 7 9 13 16 15 8 3 18 1 25-5 9 4 18 9 26 17 4 4 8 10 8 17z"/>
<glyph unicode="&#86;" d="M391 457c14 0 28-1 41-8 11-7 20-16 26-26 15-23 14-53-1-75-7-11-17-20-29-26-11-6-25-8-38-6-3 1-5 5-3 9 2 3 7 2 10 2 14-1 27 5 38 13 9 8 16 18 20 30 3 14 2 28-4 41-5 11-13 20-23 26-9 5-20 8-31 8-12 0-24-4-34-11-9-7-17-16-21-28-2-5-3-10-3-15-1-5-7-7-10-4-2 1-3 3-2 5 1 13 5 25 12 35 4 5 9 10 13 14 11 9 25 15 39 16z m-22-32c8 6 19 9 29 9-1-13-2-26-4-40-8 11-17 21-25 31z m36 9c10-2 20-7 27-14-10-9-20-17-30-26 1 13 2 26 3 40z m-55-41c1 10 6 20 13 27 9-10 17-20 26-30-13 1-26 2-39 3z m57-5c10 9 20 17 30 26 6-9 9-19 9-29-13 1-26 2-39 3z m-1-7c13-1 26-2 39-3-2-10-7-20-14-27-8 10-17 20-25 30z m-353-3c4 2 8 2 12 2 102 0 203 0 305 0 6 0 13-1 17-6 6-5 5-14 0-20-8-9-16-18-23-27-30-34-61-68-91-102-5-6-10-13-17-17-8-4-16-7-24-8 0-27 0-54 0-81-1-13 5-27 16-34 12-10 25-21 38-31 1-1 3-3 3-6-1-2-4-3-7-3-37 0-75 0-113 0-3 0-6 0-7 3-1 1 0 3 1 4 1 2 3 4 5 6 11 9 22 18 33 28 3 3 6 7 8 11 3 5 5 11 5 17 0 29 0 57 0 86-6 0-12 2-17 4-7 2-13 6-18 11-43 46-87 92-130 138-2 2-4 6-5 9-1 7 3 14 9 16z m347-2c9-10 17-20 25-29-8-6-18-9-28-9 1 13 2 25 3 38z m-335-14c102 0 204 0 305 0-38-44-77-88-116-132-5-6-11-9-18-11-4-1-9-1-14-1-4 0-9 0-13 1-7 1-13 5-18 9-42 45-84 89-126 134z m58-14c65 0 130 0 195 0 3 0 8 0 11-3 1-4-1-8-4-10-28-30-56-60-84-90-4-4-7-8-11-11-6-4-16-3-21 3-30 32-60 64-90 96-2 2-4 5-5 7-1 2 0 5 1 6 3 2 5 2 8 2z m152-23c0 5 8 7 11 3 2-2 1-6 1-8-3-11-10-19-17-26-7-5-15-11-23-14 2-7 1-16-4-22-4-5-9-9-16-10-4 0-8 0-12 2-7 3-13 8-15 16-2 5-1 11 1 17 3 6 8 11 14 13 9 3 19 1 26-6 9 5 19 10 26 18 4 5 8 10 8 17z"/>
<glyph unicode="&#87;" d="M391 457c14 0 28-1 41-8 11-7 20-16 26-26 15-23 14-53-1-75-7-11-17-20-29-26-11-6-25-8-38-6-1 0-3 1-3 3-2 3 0 8 4 8 5 0 9 0 14 0 24 3 45 22 50 46 3 13 2 27-4 39-5 10-13 19-23 25-9 5-20 8-31 8-15 0-30-6-41-17-8-7-14-18-16-29-1-3-1-6-2-9 0-5-7-6-9-3-2 1-3 3-2 5 0 10 3 20 8 29 5 9 12 16 20 22 10 8 23 13 36 14z m-22-32c8 6 19 9 29 9-1-13-2-26-4-40-8 11-17 21-25 31z m36 9c10-2 20-7 27-14-10-9-20-17-30-26 1 13 2 26 3 40z m-55-41c1 10 6 20 13 27 9-10 17-20 26-30-13 1-26 2-39 3z m57-5c10 9 20 17 30 26 6-9 9-19 9-29-13 1-26 2-39 3z m-1-7c13-1 26-2 39-3-2-10-7-20-14-27-8 10-17 20-25 30z m-353-3c4 2 8 2 12 2 102 0 203 0 305 0 6 0 13-1 17-6 6-5 5-14 0-20-8-9-16-18-23-27-30-34-60-68-90-102-6-6-11-13-18-17-8-4-16-7-24-8 0-28 0-57 0-86 0-11 6-22 15-29 12-9 24-19 35-28 3-2 6-4 7-8 0-3-4-4-7-4-37 0-75 0-113 0-3 0-6 0-7 3-1 1 0 3 0 4 2 2 4 4 6 6 11 9 22 18 32 27 4 3 6 6 8 10 4 6 6 13 6 20 0 28 0 57 0 85-6 0-12 2-18 4-6 3-12 6-17 11-43 46-87 92-130 138-2 2-4 6-5 9-1 7 3 14 9 16z m347-2c9-10 17-20 25-29-8-6-18-9-28-9 1 13 2 25 3 38z m-335-14c102 0 204 0 305 0-38-44-77-88-115-132-6-6-14-10-23-12-6 0-13 0-19 0-8 1-16 5-22 10-42 45-84 89-126 134z m58-14c65 0 130 0 195 0 3 0 8 0 10-3 2-2 1-4 0-6-1-3-4-5-6-7-29-32-58-63-88-94-3-4-7-7-12-6-6-1-10 2-14 6-29 31-59 63-88 94-2 2-5 5-6 8-1 2-1 5 1 6 3 2 5 2 8 2z m152-22c0 4 3 7 7 6 3 0 6-3 5-6-1-12-8-22-16-29-8-6-15-12-24-15 2-7 1-15-4-21-2-3-4-5-7-7-7-5-17-5-24-1-5 3-9 7-11 12-3 6-3 12-1 18 3 7 8 12 15 15 9 3 19 1 26-6 9 5 18 10 26 18 4 4 8 10 8 16z"/>
<glyph unicode="&#88;" d="M391 457c14 0 28-1 41-8 11-7 20-16 26-26 15-23 14-53-1-75-7-11-17-20-29-26-11-6-25-8-38-6-2 1-4 3-4 6 0 2 2 5 5 5 5 0 9 0 14 0 24 3 45 22 50 46 3 13 2 27-4 39-6 11-14 21-26 26-11 6-24 8-36 6-13-1-24-7-33-16-10-9-16-21-17-34 0-3 0-5-2-7-2-1-5-2-7-1-2 1-4 3-3 5 0 10 3 19 7 27 5 10 13 18 21 25 11 8 23 13 36 14z m-22-32c8 6 19 9 29 9-1-13-2-26-4-40-8 11-17 21-25 31z m36 9c10-2 20-7 27-14-10-9-20-17-30-26 1 13 2 26 3 40z m-55-41c1 10 6 20 13 27 9-10 17-20 26-30-13 1-26 2-39 3z m57-5c10 9 20 17 30 26 6-9 9-19 9-29-13 1-26 2-39 3z m-1-7c13-1 26-2 39-3-2-10-7-20-14-27-8 10-17 20-25 30z m-353-3c4 2 9 2 13 2 101 0 203 0 305 0 6 0 14-1 17-7 5-6 3-15-2-20-39-45-79-89-118-134-4-5-9-10-15-12-7-4-14-7-21-7 0-28 0-57 0-86 0-11 6-22 15-29 12-10 24-19 36-29 3-2 6-4 6-7 0-3-4-4-7-4-37 0-75 0-113 0-3 0-7 1-7 4 0 3 2 5 4 7 8 7 16 14 25 21 5 5 11 8 15 14 4 7 8 15 8 24 0 28 0 57 0 85-6 0-12 2-17 4-7 2-13 6-18 11-43 46-87 92-130 138-2 2-4 6-5 9-1 7 3 14 9 16z m347-2c9-10 17-20 25-29-8-6-18-9-28-9 1 13 2 25 3 38z m-335-14c102 0 204 0 305 0-38-44-77-88-115-132-6-6-14-10-23-12-6 0-13 0-19 0-8 1-16 5-21 10-43 45-85 89-127 134z m58-14c65 0 130 0 195 0 3 0 8 0 11-3 1-4-1-8-4-10-28-31-57-61-85-91-3-4-6-7-10-10-7-4-16-3-21 3-31 33-61 65-91 97-3 3-6 7-4 11 2 3 6 3 9 3z m152-20c0 4 3 6 7 6 3 0 6-4 5-7-1-12-9-22-18-30-7-5-14-10-22-13 2-7 1-16-4-22-4-5-9-9-16-10-4 0-8 0-12 1-7 3-13 9-15 17-2 6-1 13 2 19 3 4 6 8 11 10 9 4 20 2 28-5 10 5 19 10 26 18 4 5 8 10 8 16z"/>
<glyph unicode="&#89;" d="M391 457c14 0 28-1 41-8 11-7 20-16 26-26 16-25 13-60-6-82-8-10-19-18-32-22-9-4-19-5-29-4-2 1-3 2-4 4-2 3 0 8 4 8 6 0 11 0 17 1 13 2 24 9 33 18 17 18 21 48 8 69-6 10-13 18-23 23-11 6-25 8-37 6-10-1-19-5-26-10-9-7-17-16-21-28-2-5-3-10-3-15-1-5-7-7-10-4-2 1-3 3-2 5 1 13 5 25 12 35 4 5 9 10 13 14 11 9 25 15 39 16z m-22-32c8 6 19 9 29 9-1-13-2-26-4-40-8 11-17 21-25 31z m36 9c10-2 20-7 27-14-10-9-20-18-30-26 1 13 2 26 3 40z m-55-41c1 10 6 20 13 27 9-10 17-20 26-30-13 1-26 2-39 3z m57-5c10 9 20 17 30 26 6-9 9-19 9-29-13 1-26 2-39 3z m-1-7c13-1 26-2 39-3-2-10-7-20-14-27-8 10-17 20-25 30z m-353-3c4 2 8 2 12 2 102 0 203 0 304 0 5 0 11 0 15-3 6-3 8-11 6-17-2-6-6-9-9-13-36-41-72-82-108-122-5-6-10-13-17-17-8-4-16-7-24-8 0-28 0-57 0-86 0-10 5-20 12-26 13-11 26-21 39-32 3-2 6-4 6-7 0-3-4-4-7-4-37 0-75 0-113 0-3 0-6 0-7 3-1 1 0 3 0 4 2 2 4 4 6 6 11 9 22 18 33 28 4 3 6 7 8 11 3 6 5 12 5 18 0 28 0 57 0 85-6 0-13 2-18 4-8 3-14 8-19 14-43 45-85 89-127 134-3 3-5 6-6 10-1 7 3 14 9 16z m347-2c9-10 17-20 25-29-8-6-18-9-28-9 1 13 2 25 3 38z m-335-14c102 0 204 0 305 0-38-44-77-88-116-132-5-6-11-9-18-11-4-1-9-1-14-1-4 0-9 0-13 1-7 1-13 5-18 9-42 45-84 89-126 134z m58-14c65 0 130 0 195 0 3 0 8 0 11-3 1-4-1-8-4-10-28-30-56-60-84-90-4-4-7-8-11-11-6-4-16-3-21 3-30 32-61 65-91 97-3 3-6 6-4 11 2 3 6 3 9 3z m152-18c0 3 3 6 7 6 3 0 6-4 5-7-1-11-8-21-16-28-8-6-15-12-24-15 2-7 1-14-2-20-2-3-5-6-8-8-7-5-17-5-24-2-6 3-11 8-13 14-2 6-2 12 1 17 2 6 6 11 11 13 10 5 21 3 29-4 9 4 18 10 26 17 4 5 8 11 8 17z"/>
<glyph unicode="&#90;" d="M391 457c14 0 28-1 41-8 11-7 20-16 26-26 15-23 14-53-1-75-7-11-17-20-29-26-11-6-25-8-38-6-3 1-5 4-4 7 1 2 2 4 5 4 4 0 9 0 14 0 24 3 45 22 50 46 3 13 2 27-4 39-6 11-14 21-26 26-11 6-24 8-36 6-13-1-24-7-33-16-10-9-16-21-17-34 0-3 0-5-2-7-2-1-5-2-7-1-2 1-4 3-3 5 0 10 3 19 7 27 5 10 13 18 21 25 11 8 23 13 36 14z m-22-32c8 6 19 9 29 9-1-13-2-26-4-40-8 11-17 21-25 31z m36 9c10-2 20-7 27-14-10-9-20-17-30-26 1 13 2 26 3 40z m-55-41c1 10 6 20 13 27 9-10 17-20 26-30-13 1-26 2-39 3z m57-5c10 9 20 17 30 26 6-9 9-19 9-29-13 1-26 2-39 3z m-1-7c13-1 26-2 39-3-2-10-7-20-14-27-8 10-17 20-25 30z m-353-3c4 2 8 2 12 2 102 0 203 0 305 0 6 0 13-1 17-6 6-5 5-14 0-20-8-9-16-18-23-27-30-34-61-68-91-102-5-6-10-13-17-17-8-4-16-7-24-8 0-28 0-57 0-86 0-10 5-20 12-26 13-10 25-20 37-30 3-3 7-5 8-9 0-3-4-4-7-4-37 0-75 0-113 0-3 0-6 0-7 3-1 1 0 3 1 4 1 2 3 4 5 6 11 9 22 18 33 28 4 3 6 7 8 11 3 5 5 11 5 17 0 29 0 57 0 86-6 0-12 2-17 4-7 2-13 6-18 11-43 46-87 92-130 138-2 2-4 6-5 9-1 7 3 14 9 16z m347-2c9-10 17-20 25-29-8-6-18-9-28-9 1 13 2 25 3 38z m-335-14c102 0 204 0 305 0-38-44-77-88-116-132-5-6-13-10-21-12-5 0-10 0-15 0-10 0-20 3-26 10-43 45-85 89-127 134z m58-14c65 0 130 0 195 0 3 0 8 0 10-3 2-2 1-4 0-6-1-3-4-5-6-7-29-32-58-63-88-94-3-4-7-7-12-6-5-1-10 2-14 6-30 32-60 64-90 96-3 3-6 7-4 11 2 3 6 3 9 3z m152-16c0 3 3 5 5 6 4 0 7-3 7-6 0-13-9-24-19-32-7-5-13-10-21-12 2-8 1-16-4-22-4-5-9-9-16-10-4 0-8 0-12 1-7 3-13 9-15 16-2 5-1 11 0 16 3 7 9 12 15 14 9 3 19 1 26-5 9 4 19 10 26 17 4 5 8 11 8 17z"/>
<glyph unicode="&#48;" d="M391 457c14 0 28-1 41-8 11-7 20-16 26-26 16-25 13-60-6-82-8-10-19-18-32-22-9-4-19-5-29-4-2 1-3 2-4 3-2 3 0 8 3 9 6 0 12-1 18 1 13 2 24 9 33 18 17 18 21 48 8 69-6 10-13 18-23 23-11 6-25 8-38 6-12-1-24-7-32-16-11-10-16-24-17-37-1-5-7-7-10-4-2 1-3 3-2 5 0 9 3 18 7 26 5 10 13 18 21 25 11 8 23 13 36 14z m-22-32c8 6 19 9 29 9-1-13-2-26-4-40-8 11-17 21-25 31z m36 9c10-2 20-7 27-14-10-9-20-17-30-26 1 13 2 26 3 40z m-55-41c1 10 6 20 13 27 9-10 17-20 26-30-13 1-26 2-39 3z m57-5c10 9 20 17 30 26 6-9 9-19 9-29-13 1-26 2-39 3z m-1-7c13-1 26-2 39-3-2-10-7-20-14-27-8 10-17 20-25 30z m-353-3c4 2 8 2 12 2 102 0 203 0 305 0 7 0 14-1 18-7 5-6 3-15-2-20-38-43-75-86-113-128-3-4-6-7-9-10-5-6-13-9-20-12-4-2-8-3-12-3 0-28 0-57 0-86 0-11 6-22 15-29 11-9 23-18 34-27 3-2 7-5 8-9 0-3-4-4-7-4-37 0-75 0-113 0-3 0-6 0-7 3-1 1 0 3 0 4 2 2 4 4 6 6 11 9 22 18 33 28 4 3 6 7 8 11 3 6 5 12 5 18 0 28 0 57 0 85-6 0-12 2-18 4-7 3-14 7-19 13-43 45-85 91-128 136-2 2-4 6-5 9-1 7 3 14 9 16z m347-2c9-10 17-20 25-29-8-6-18-9-28-9 1 13 2 25 3 38z m-335-14c102 0 204 0 305 0-38-44-77-88-115-132-6-6-14-10-23-12-6 0-13 0-19 0-9 1-17 5-23 12-42 44-83 88-125 132z m58-14c65 0 130 0 195 0 3 0 8 0 11-3 1-4-1-8-4-10-28-30-56-60-84-90-4-4-7-8-11-11-6-4-16-3-21 3-30 32-61 65-91 97-3 3-6 6-4 11 2 3 6 3 9 3z m152-19c0 4 3 7 7 6 3 0 6-3 5-7-1-11-8-21-17-28-7-6-15-12-23-15 2-6 1-13-2-19-2-4-5-6-8-9-6-4-15-5-22-2-7 3-13 8-15 16-2 5-1 11 1 16 2 6 7 11 14 14 9 3 19 1 26-6 9 4 18 10 25 17 5 5 9 10 9 17z"/>
<glyph unicode="&#49;" d="M391 457c14 0 28-1 41-8 11-7 20-16 26-26 15-23 14-53-1-75-7-11-17-20-29-26-11-6-25-8-38-6-3 1-5 4-4 7 1 2 2 4 4 4 5 0 10 0 15 0 24 3 45 22 50 46 3 13 2 27-4 39-5 10-13 19-23 25-9 5-20 8-31 8-15 0-30-6-41-17-9-9-16-21-17-34 0-3 0-5-2-7-2-1-5-2-7-1-2 1-4 3-3 5 0 10 3 19 7 27 5 10 13 18 21 25 11 8 23 13 36 14z m-22-32c8 6 19 9 29 9-1-13-2-26-4-40-8 11-17 21-25 31z m36 9c10-2 20-7 27-14-10-9-20-17-30-26 1 13 2 26 3 40z m-55-41c1 10 6 20 13 27 9-10 17-20 26-30-13 1-26 2-39 3z m57-5c10 9 20 17 30 26 6-9 9-19 9-29-13 1-26 2-39 3z m-1-7c13-1 26-2 39-3-2-10-7-20-14-27-8 10-17 20-25 30z m-353-3c4 2 8 2 12 2 102 0 203 0 304 0 5 0 10 0 14-2 6-3 9-10 8-17-1-3-3-7-6-9-40-45-79-90-119-135-6-8-15-12-25-15-3-1-6-2-9-2 0-28 0-57 0-86 0-10 5-20 12-26 13-11 26-21 39-32 3-2 6-4 6-7 0-3-4-4-7-4-37 0-75 0-113 0-3 0-7 1-7 4 0 3 2 5 4 7 8 7 17 14 25 21 5 5 11 9 15 15 4 6 8 14 8 22 0 29 0 57 0 86-6 0-12 2-17 4-7 2-13 6-18 11-43 46-87 92-130 138-2 2-4 6-5 9-1 7 3 14 9 16z m347-2c9-10 17-20 25-29-8-6-18-9-28-9 1 13 2 25 3 38z m-335-14c102 0 204 0 305 0-38-44-77-88-116-132-3-4-8-7-13-9-3-2-7-3-11-3-6 0-12 0-18 0-8 1-17 5-22 12-42 44-83 88-125 132z m58-14c65 0 130 0 195 0 3 0 8 0 11-3 1-4-1-8-4-10-28-31-57-61-85-92-4-3-6-7-10-9-7-4-16-3-21 3-30 32-60 64-90 96-2 2-4 5-5 7-1 2 0 5 1 6 3 2 5 2 8 2z m152-21c0 3 3 6 7 5 3 0 6-3 5-6-1-12-8-22-17-29-7-6-15-11-23-14 2-8 1-16-4-22-4-5-9-9-16-10-4-1-8 0-12 1-7 3-13 9-15 16-2 6-1 13 2 19 3 5 7 9 13 11 9 3 19 1 26-5 9 4 18 9 25 17 5 4 9 10 9 17z"/>
<glyph unicode="&#50;" d="M391 457c14 0 28-1 41-8 11-7 20-16 26-26 16-25 13-60-6-82-8-10-19-18-32-22-9-4-19-5-29-4-2 1-3 2-4 4-2 3 0 8 4 8 6 0 11 0 17 1 13 2 24 9 33 18 17 18 21 48 8 69-6 10-14 18-23 23-12 7-26 8-40 6-15-3-28-12-37-24-6-9-10-19-10-29-1-5-7-7-10-4-2 1-3 3-2 5 0 9 3 18 7 26 5 10 13 18 21 25 11 8 23 13 36 14z m-22-32c8 6 19 9 29 9-1-13-2-26-4-40-8 11-17 21-25 31z m36 9c10-2 20-7 27-14-10-9-20-17-30-26 1 13 2 26 3 40z m-55-41c1 10 6 20 13 27 9-10 17-20 26-30-13 1-26 2-39 3z m57-5c10 9 20 17 30 26 6-9 9-19 9-29-13 1-26 2-39 3z m-1-7c13-1 26-2 39-3-2-10-7-20-14-27-8 10-17 20-25 30z m-353-3c4 2 8 2 12 2 102 0 203 0 305 0 7 0 14-1 18-7 5-6 3-15-2-20-37-43-75-85-112-128-6-6-11-13-18-17-8-4-16-7-24-8 0-28 0-57 0-86 0-11 6-22 15-29 12-9 23-18 34-27 3-3 7-5 8-9 0-3-4-4-7-4-37 0-75 0-113 0-3 0-6 0-7 3-1 1 0 3 0 4 2 2 4 4 6 6 11 9 22 18 33 28 4 3 6 7 8 11 3 6 5 12 5 18 0 28 0 57 0 85-6 0-13 2-18 4-8 3-14 8-19 14-43 45-85 89-127 134-3 3-5 6-6 10-1 7 3 14 9 16z m347-2c9-10 17-20 25-29-8-6-18-9-28-9 1 13 2 25 3 38z m-335-14c102 0 204 0 305 0-38-44-77-88-115-132-6-6-14-10-23-12-6 0-13 0-19 0-9 1-17 5-23 12-42 44-83 88-125 132z m58-14c65 0 130 0 195 0 3 0 8 0 11-3 1-4-1-8-4-10-28-31-57-61-85-91-3-4-6-7-10-10-7-4-16-3-21 3-30 32-61 65-91 97-3 3-6 6-4 11 2 3 6 3 9 3z m152-23c0 2 3 4 5 5 4 1 7-2 7-6 0-8-4-16-10-23-3-4-8-7-12-11-6-4-12-8-18-10 2-7 1-16-4-22-2-2-4-4-7-6-7-5-16-5-24-1-5 3-9 7-11 12-3 6-3 12-1 18 3 7 8 12 15 15 9 2 19 1 26-6 9 4 18 10 25 17 5 5 9 11 9 18z"/>
<glyph unicode="&#51;" d="M391 457c14 0 28-1 41-8 11-7 20-16 26-26 15-23 14-53-1-75-7-11-17-20-29-26-11-6-25-8-38-6-3 1-5 4-4 7 1 2 2 4 5 4 4 0 9 0 14 0 24 3 45 22 50 46 3 13 2 27-4 39-6 11-14 21-26 26-11 6-24 8-36 6-13-1-24-7-33-16-10-9-16-21-17-34 0-3 0-5-2-7-2-1-5-2-7-1-2 1-4 3-3 5 0 10 3 19 7 27 5 10 13 18 21 25 11 8 23 13 36 14z m-22-32c8 6 19 9 29 9-1-13-2-26-4-40-8 11-17 21-25 31z m36 9c10-2 20-7 27-14-10-9-20-17-30-26 1 13 2 26 3 40z m-55-41c1 10 6 20 13 27 9-10 17-20 26-30-13 1-26 2-39 3z m57-5c10 9 20 17 30 26 6-9 9-19 9-29-13 1-26 2-39 3z m-1-7c13-1 26-2 39-3-2-10-7-20-14-27-8 10-17 20-25 30z m-353-3c4 2 8 2 12 2 102 0 203 0 304 0 5 0 10 0 14-2 6-3 9-10 8-17-1-3-3-7-6-9-40-45-79-90-119-135-6-7-15-12-24-15-3-1-7-2-10-2 0-27 0-54 0-81-1-13 5-27 16-34 12-10 25-21 38-31 1-1 3-3 3-6-1-2-4-3-7-3-37 0-75 0-113 0-3 0-6 0-7 3-1 1 0 3 1 4 1 2 3 4 5 6 11 9 22 18 33 28 3 3 6 7 8 11 3 5 5 11 5 17 0 29 0 57 0 86-6 0-12 2-17 4-7 2-13 6-18 11-43 46-86 91-129 137-3 3-5 6-6 10-2 6 3 14 9 16z m347-2c9-10 17-20 25-29-8-6-18-9-28-9 1 13 2 25 3 38z m-335-14c102 0 204 0 305 0-38-44-77-88-115-132-6-6-14-10-23-12-6 0-13 0-19 0-9 1-17 5-23 12-42 44-83 88-125 132z m58-14c65 0 130 0 195 0 3 0 8 0 11-3 1-4-1-8-4-10-28-30-56-60-84-90-4-4-7-8-11-11-6-4-16-3-21 3-30 32-60 64-90 96-2 2-4 5-5 7-1 2 0 5 1 6 3 2 5 2 8 2z m152-26c0 5 7 7 10 4 3-3 2-7 1-10-2-10-9-18-17-25-7-5-14-11-22-14 2-7 1-15-4-21-4-5-9-9-16-10-4-1-8-1-12 1-7 3-13 9-15 16-2 6-1 13 2 19 3 5 7 9 13 11 9 3 19 1 26-5 9 4 19 10 26 17 4 5 8 10 8 17z"/>
<glyph unicode="&#52;" d="M391 457c14 0 28-1 41-8 11-7 20-16 26-26 16-25 13-60-6-82-8-10-19-18-32-22-9-4-20-5-29-4-3 1-6 4-5 8 1 2 2 4 5 4 4 0 9 0 14 0 24 3 45 22 50 46 3 13 2 27-4 39-6 11-14 21-26 26-11 6-24 8-36 6-13-1-24-7-33-16-10-9-16-21-17-34 0-2 0-5-2-7-2-2-7-2-9 1-2 2-1 5-1 8 2 15 8 29 19 39 12 12 28 21 45 22z m-22-32c8 6 19 9 29 9-1-13-2-26-4-40-8 11-17 21-25 31z m36 9c10-2 20-7 27-14-10-9-20-17-30-26 1 13 2 26 3 40z m-55-41c1 10 6 20 13 27 9-10 17-20 26-30-13 1-26 2-39 3z m57-5c10 9 20 17 30 26 6-9 9-19 9-29-13 1-26 2-39 3z m-1-7c13-1 26-2 39-3-2-10-7-20-14-27-8 10-17 20-25 30z m-353-3c4 2 8 2 12 2 102 0 203 0 304 0 5 0 11 0 15-3 6-3 8-11 6-17-2-6-6-9-9-13-37-42-73-83-109-124-3-3-5-6-8-9-6-5-13-9-20-11-4-2-8-3-12-3 0-27 0-54 0-81-1-13 5-27 16-34 12-10 23-19 35-29 2-1 6-4 6-7 0-3-4-4-7-4-37 0-75 0-113 0-3 0-6 0-7 3-1 1 0 3 0 4 2 2 4 4 6 6 11 9 22 18 33 28 4 3 6 7 8 11 3 6 5 12 5 18 0 28 0 57 0 85-6 0-12 2-18 4-6 3-12 6-17 11-43 46-85 91-128 136-3 3-6 6-7 11-2 6 3 14 9 16z m347-2c9-10 17-20 25-29-8-6-18-9-28-9 1 13 2 25 3 38z m-335-14c102 0 204 0 305 0-38-44-77-88-116-132-5-6-13-10-22-12-6 0-13 0-19 0-9 1-18 5-24 12-41 44-83 88-124 132z m58-14c65 0 130 0 195 0 3 0 8 0 11-3 1-4-1-8-4-10-28-30-56-60-84-90-4-4-7-8-11-11-6-4-16-3-21 3-30 32-61 65-91 97-3 3-6 7-4 11 2 3 6 3 9 3z m152-29c0 3 3 6 6 6 3 0 7-3 6-7-1-11-8-21-16-28-8-6-15-12-24-15 2-7 1-14-2-20-2-3-5-6-8-8-7-5-17-5-25-1-5 3-9 7-11 12-3 6-3 13 0 18 2 6 6 11 11 13 10 5 21 3 29-4 9 4 18 10 25 17 5 4 9 10 9 17z"/>
<glyph unicode="&#53;" d="M391 457c14 0 28-1 41-8 11-7 20-16 26-26 15-23 14-53-1-75-7-11-17-20-29-26-11-6-25-8-38-6-3 1-5 4-4 7 1 2 2 4 5 4 4 0 9 0 14 0 24 3 45 22 50 46 3 13 2 27-4 39-5 10-13 19-23 25-9 5-20 8-31 8-15 0-30-6-41-17-9-9-16-21-17-34 0-3 0-5-2-7-2-1-5-2-7-1-2 1-4 3-3 5 0 10 3 19 7 27 5 10 13 18 21 25 11 8 23 13 36 14z m-22-32c8 6 19 9 29 9-1-13-2-26-4-40-8 11-17 21-25 31z m36 9c10-2 20-7 27-14-10-9-20-17-30-26 1 13 2 26 3 40z m-55-41c1 10 6 20 13 27 9-10 17-20 26-30-13 1-26 2-39 3z m57-5c10 9 20 17 30 26 6-9 9-19 9-29-13 1-26 2-39 3z m-1-7c13-1 26-2 39-3-2-10-7-20-14-27-8 10-17 20-25 30z m-353-3c4 2 8 2 12 2 102 0 203 0 304 0 5 0 10 0 14-2 6-3 9-10 8-17-1-3-3-7-6-9-40-45-79-90-119-135-4-5-10-9-16-12-6-2-12-5-18-5 0-28 0-57 0-86 0-10 5-20 12-26 13-10 25-20 37-30 3-3 7-5 8-9 0-3-4-4-7-4-37 0-75 0-113 0-3 0-6 0-7 3-1 1 0 3 1 4 1 2 3 4 5 6 11 9 22 18 33 28 4 3 6 7 8 11 3 5 5 11 5 17 0 29 0 57 0 86-6 0-12 2-17 4-7 2-13 6-18 11-43 46-87 92-130 138-2 2-4 6-5 9-1 7 3 14 9 16z m347-2c9-10 17-20 25-29-8-6-18-9-28-9 1 13 2 25 3 38z m-335-14c102 0 204 0 305 0-38-44-77-88-115-132-6-6-14-10-23-12-6 0-13 0-19 0-8 1-16 5-22 10-42 45-84 89-126 134z m58-14c65 0 130 0 195 0 3 0 8 0 11-3 1-4-1-8-4-10-29-32-59-63-88-94-3-4-7-8-12-9-3-1-7-1-10 1-3 1-5 3-7 5-30 32-60 64-90 96-3 3-6 7-4 11 2 3 6 3 9 3z m152-28c0 3 3 6 6 6 3 0 7-4 6-7-1-8-5-16-10-22-4-5-10-9-15-13-5-3-10-6-15-8 2-8 1-16-4-22-4-5-9-9-16-10-4 0-8 0-12 1-7 3-13 9-15 16-2 7-1 14 2 20 3 3 5 6 9 8 9 6 22 4 30-3 9 4 19 10 26 18 4 4 8 10 8 16z"/>
<glyph unicode="&#54;" d="M391 457c14 0 28-1 41-8 11-7 20-16 26-26 16-25 13-60-6-82-8-10-19-18-32-22-9-4-19-5-29-4-3 1-6 4-5 8 1 2 2 4 4 4 5 0 10 0 15 0 24 3 45 22 50 46 3 13 2 27-4 39-6 11-14 21-26 26-11 6-24 8-36 6-13-1-25-7-33-16-11-10-16-24-17-37-1-5-7-7-10-4-2 1-3 3-2 5 0 9 3 18 7 26 5 10 13 18 21 25 11 8 23 13 36 14z m-22-32c8 6 19 9 29 9-1-13-2-26-4-40-8 11-17 21-25 31z m36 9c10-2 20-7 27-14-10-9-20-18-30-26 1 13 2 26 3 40z m-55-41c1 10 6 20 13 27 9-10 17-20 26-30-13 1-26 2-39 3z m57-5c10 9 20 17 30 26 6-9 9-19 9-29-13 1-26 2-39 3z m-1-7c13-1 26-2 39-3-2-10-7-20-14-27-8 10-17 20-25 30z m-352-2c5 1 11 1 16 1 100 0 200 0 300 0 7 0 14-1 18-7 5-6 3-15-2-20-39-45-79-89-118-134-4-6-10-10-17-13-6-3-13-6-19-6 0-28 0-57 0-86 0-10 5-20 12-26 13-10 25-20 37-30 3-2 5-4 7-6 1-2 1-3 0-4-1-3-3-3-6-3-37 0-75 0-113 0-3 0-7 1-7 4 0 3 2 5 4 7 12 10 23 20 35 30 3 3 6 7 8 11 3 5 5 11 5 16 0 29 0 58 0 87-6 0-12 2-17 4-7 2-13 6-18 11-43 46-87 92-130 138-2 2-4 6-5 9-2 7 3 15 10 17z m346-3c9-10 17-20 25-29-8-6-18-9-28-9 1 13 2 25 3 38z m-335-14c102 0 204 0 305 0-38-44-77-88-116-133-5-5-11-8-17-10-6-2-12-1-18-1-10-1-20 3-27 10-43 45-85 89-127 134z m58-14c64 0 128 0 192 0 3 0 7 0 10-1 2 0 4-2 4-4 1-3-2-6-4-9-30-32-60-64-90-96-4-4-8-7-13-6-5-1-10 2-14 6-30 32-60 64-90 96-3 3-6 7-4 11 2 3 6 3 9 3z m152-27c0 3 3 6 7 6 3 0 6-4 5-7-1-12-9-22-18-29-7-6-14-11-22-14 2-7 1-15-3-21-4-6-10-10-16-11-5 0-9 0-14 2-6 2-12 8-14 15-1 5-1 11 0 16 3 7 9 13 16 15 8 2 18 0 25-6 10 4 19 10 26 18 4 4 8 10 8 16z"/>
<glyph unicode="&#55;" d="M391 457c14 0 28-1 41-8 11-7 20-16 26-26 15-23 14-53-1-75-7-11-17-20-29-26-11-6-25-8-38-6-3 1-5 4-4 7 1 2 2 4 5 4 4 0 9 0 14 0 24 3 45 22 50 46 3 13 2 27-4 39-6 11-14 21-26 26-11 6-24 8-36 6-13-1-24-7-33-16-10-9-16-21-17-34 0-3 0-5-2-7-2-1-5-2-7-1-2 1-4 3-3 5 0 10 3 19 7 27 5 10 13 18 21 25 11 8 23 13 36 14z m-22-32c8 6 19 9 29 9-1-13-2-26-4-40-8 11-17 21-25 31z m36 9c10-2 20-7 27-14-10-9-20-17-30-26 1 13 2 26 3 40z m-55-41c1 10 6 20 13 27 9-10 17-20 26-30-13 1-26 2-39 3z m57-5c10 9 20 17 30 26 6-9 9-19 9-29-13 1-26 2-39 3z m-1-7c13-1 26-2 39-3-2-10-7-20-14-27-8 10-17 20-25 30z m-353-3c4 2 8 2 12 2 102 0 203 0 304 0 5 0 10 0 14-2 6-3 9-10 8-17-1-3-3-7-6-9-40-45-79-90-119-135-4-5-10-9-16-12-6-2-12-5-18-5 0-28 0-57 0-86 0-11 6-22 15-29 13-10 26-20 38-30 2-2 4-4 4-7-1-2-4-3-7-3-37 0-75 0-113 0-3 0-7 1-7 4 0 3 2 5 4 7 12 10 23 20 35 30 4 3 6 7 8 11 3 6 5 12 5 18 0 28 0 57 0 85-6 0-12 2-18 4-6 3-12 6-17 11-43 46-87 92-130 138-2 2-4 6-5 9-1 7 3 14 9 16z m347-2c9-10 17-20 25-29-8-6-18-9-28-9 1 13 2 25 3 38z m-335-14c102 0 204 0 305 0-38-44-77-88-116-132-5-6-13-10-21-12-5 0-10 0-15 0-11-1-22 4-29 12-41 44-83 88-124 132z m58-14c65 0 130 0 195 0 3 0 8 0 11-3 1-4-1-8-4-10-28-30-56-60-84-90-4-4-7-8-11-11-6-4-16-3-21 3-30 32-61 65-91 97-3 3-6 6-4 11 2 3 6 3 9 3z m152-25c0 4 8 7 11 3 2-3 1-6 0-9-2-10-9-19-17-25-7-6-14-11-22-14 2-7 1-14-2-20-2-4-6-6-9-9-5-3-11-4-17-3-6 1-12 5-15 10-5 6-6 15-4 23 3 6 7 11 12 13 10 5 21 3 29-4 10 4 19 10 26 18 5 5 8 10 8 17z"/>
<glyph unicode="&#56;" d="M391 457c14 0 28-1 41-8 11-7 20-16 26-26 16-25 13-60-6-82-8-10-19-18-32-22-9-4-19-5-29-4-3 1-6 4-5 8 1 2 2 4 5 4 4 0 9 0 14 0 24 3 45 22 50 46 3 13 2 27-4 39-6 11-14 21-26 26-11 6-24 8-36 6-13-1-24-7-33-16-10-9-16-21-17-34 0-3 0-5-2-7-2-2-5-2-8-1-1 2-3 3-2 5 0 10 3 19 7 28 4 7 10 14 16 20 11 10 26 17 41 18z m-22-32c8 6 19 9 29 9-1-13-2-26-4-40-8 11-17 21-25 31z m36 9c10-2 20-7 27-14-10-9-20-17-30-26 1 13 2 26 3 40z m-55-41c1 10 6 20 13 27 9-10 17-20 26-30-13 1-26 2-39 3z m57-5c10 9 20 17 30 26 6-9 9-19 9-29-13 1-26 2-39 3z m-1-7c13-1 26-2 39-3-2-10-7-20-14-27-8 10-17 20-25 30z m-353-3c5 2 10 2 16 2 98 0 195 0 293 0 5 0 10 0 16-1 4 0 8-2 10-6 3-4 4-10 2-14-2-4-5-7-7-10-39-44-78-88-117-132-4-5-10-9-16-12-6-2-12-5-18-5 0-28 0-57 0-86 0-10 5-20 12-26 14-11 28-23 42-34 1-1 3-3 3-6-1-2-4-3-7-3-37 0-75 0-113 0-3 0-7 1-7 4 0 3 2 5 4 7 12 10 23 20 35 30 3 3 6 7 8 11 3 5 5 11 5 16 0 29 0 58 0 87-6 0-12 2-17 4-7 2-13 6-18 11-42 45-84 89-126 134-4 4-7 7-9 12-2 7 2 15 9 17z m347-2c9-10 17-20 25-29-8-6-18-9-28-9 1 13 2 25 3 38z m-335-14c102 0 204 0 305 0-38-44-77-88-116-132-3-4-8-7-13-9-3-2-7-3-11-3-6 0-12 0-18 0-8 1-17 5-22 12-42 44-83 88-125 132z m58-14c64 0 128 0 192 0 3 0 7 0 10-1 2 0 4-2 4-4 1-3-2-6-4-9-28-30-56-59-84-89-3-3-6-7-10-11-7-4-17-3-22 3-30 32-61 65-91 97-3 3-6 6-4 11 2 3 6 3 9 3z m152-25c0 3 4 6 7 6 3 0 6-4 5-7-1-12-8-22-17-29-7-6-15-11-23-14 2-8 1-16-4-22-4-5-9-9-16-10-4 0-8 0-12 1-7 3-13 9-15 16-2 6-1 13 1 18 3 5 7 9 12 12 9 3 21 2 28-5 10 4 19 10 26 18 4 4 8 10 8 16z"/>
<glyph unicode="&#57;" d="M391 457c14 0 28-1 41-8 11-7 20-16 26-26 16-25 13-60-6-82-8-10-19-18-32-22-9-4-19-5-29-4-2 1-3 2-4 4-2 3 0 8 4 8 6 0 11 0 16 1 14 2 25 9 34 18 17 18 21 48 8 69-6 10-13 18-23 23-11 6-25 8-37 6-10-1-19-5-26-10-9-7-17-16-21-28-2-5-3-10-3-15-1-5-7-7-10-4-2 1-3 3-2 5 1 13 5 25 12 35 4 5 9 10 13 14 11 9 25 15 39 16z m-22-32c8 6 19 9 29 9-1-13-2-26-4-40-8 11-17 21-25 31z m36 9c10-2 20-7 27-14-10-9-20-17-30-26 1 13 2 26 3 40z m-55-41c1 10 6 20 13 27 9-10 17-20 26-30-13 1-26 2-39 3z m57-5c10 9 20 17 30 26 6-9 9-19 9-29-13 1-26 2-39 3z m-1-7c13-1 26-2 39-3-2-10-7-20-14-27-8 10-17 20-25 30z m-353-3c4 2 10 2 15 2 101 0 201 0 302 0 7 0 14-1 18-7 5-6 3-15-2-20-38-43-75-86-113-129-3-3-6-6-9-9-5-6-13-9-20-12-4-2-8-3-12-3 0-28 0-57 0-86 0-10 5-20 12-26 14-11 28-23 42-34 1-1 3-3 3-6-1-2-4-3-7-3-37 0-75 0-113 0-3 0-7 1-7 4 0 3 2 5 4 7 12 10 23 20 35 30 3 3 6 7 8 11 3 5 5 11 5 17 0 29 0 57 0 86-6 0-12 2-17 4-7 2-13 6-18 11-43 46-85 91-128 136-3 3-6 6-7 10-2 7 2 15 9 17z m347-2c9-10 17-20 25-29-8-6-18-9-28-9 1 13 2 25 3 38z m-335-14c102 0 204 0 305 0-38-44-77-88-116-132-5-6-13-10-21-12-7 0-14 0-20 0-9 1-18 6-24 13-41 44-83 87-124 131z m58-14c62 0 124 0 186 0 5 0 10 0 15 0 2-1 5-2 5-5 1-3-2-6-4-9-28-30-57-60-85-90-3-4-6-7-10-10-7-4-16-3-21 3-30 32-61 65-91 97-3 3-6 6-4 11 2 3 6 3 9 3z m152-23c1 5 8 6 11 2 2-2 1-5 1-8-3-10-10-19-18-26-7-5-14-10-22-13 2-8 1-16-4-22-4-5-9-9-15-10-5 0-9 0-13 1-7 3-13 9-15 16-2 5-1 11 0 16 3 6 8 12 15 14 9 3 19 1 26-5 9 4 19 10 26 17 4 5 8 11 8 18z"/>
<glyph unicode="&#33;" d="M391 457c14 0 28-1 41-8 11-7 20-16 26-26 16-25 13-60-6-82-8-10-19-18-32-22-9-4-20-5-29-4-3 1-6 4-5 8 1 2 2 4 4 4 5 0 10 0 15 0 24 3 45 22 50 46 3 13 2 27-4 39-5 10-13 19-23 25-9 6-21 8-32 8-15 0-29-6-40-17-10-9-16-22-17-36 0-2-1-5-4-6-4-2-9 2-8 6 1 13 5 25 12 35 4 5 9 10 13 14 11 9 25 15 39 16z m-22-32c8 6 19 9 29 9-1-13-2-26-4-40-8 11-17 21-25 31z m36 9c10-2 20-7 27-14-10-9-20-17-30-26 1 13 2 26 3 40z m-55-41c1 10 6 20 13 27 9-10 17-20 26-30-13 1-26 2-39 3z m57-5c10 9 20 17 30 26 6-9 9-19 9-29-13 1-26 2-39 3z m-1-7c13-1 26-2 39-3-2-10-7-20-14-27-8 10-17 20-25 30z m-353-3c4 2 8 2 12 2 102 0 203 0 304 0 5 0 10 0 14-2 7-4 10-12 7-18-1-5-5-8-8-12-38-43-77-87-116-131-6-7-14-11-22-14-4-2-8-3-12-3 0-28 0-57 0-86 0-11 6-22 15-29 12-9 24-19 35-28 3-2 6-4 7-8 0-3-4-4-7-4-37 0-75 0-113 0-3 0-6 0-7 3-1 1 0 3 0 4 2 2 4 4 6 6 11 9 22 18 33 28 4 3 6 7 8 11 3 6 5 12 5 18 0 28 0 57 0 85-6 0-13 2-18 4-8 3-14 8-19 14-43 45-85 90-128 135-2 2-4 6-5 9-1 7 3 14 9 16z m347-2c9-10 17-20 25-29-8-6-18-9-28-9 1 13 2 25 3 38z m-335-14c102 0 204 0 305 0-38-44-77-88-116-132-5-6-13-10-22-12-6 0-13 0-19 0-9 1-18 5-24 12-41 44-83 88-124 132z m58-14c65 0 130 0 195 0 3 0 8 0 11-3 1-4-1-8-4-10-28-31-57-61-85-91-3-4-6-7-10-10-7-4-16-3-21 3-30 32-61 65-91 97-3 3-6 6-4 11 2 3 6 3 9 3z m152-23c0 3 3 6 7 6 3 0 6-4 5-7-1-11-8-21-16-28-8-6-15-12-24-15 2-7 1-16-4-22-2-3-4-5-7-7-7-4-16-4-24 0-5 2-9 6-11 12-3 5-3 12-1 18 3 6 8 12 15 14 9 3 19 1 26-5 9 4 18 10 26 17 4 5 8 10 8 17z"/>
<glyph unicode="&#34;" d="M391 457c14 0 28-1 41-8 11-7 20-16 26-26 16-25 13-59-5-81-7-8-15-15-25-20-11-6-25-8-38-6-2 1-4 3-4 6 0 2 2 5 5 5 6 0 11 0 16 1 14 2 25 9 34 18 17 18 21 48 8 69-6 10-13 18-23 23-11 6-25 8-37 6-10-1-19-5-26-10-9-7-17-16-21-28-2-5-3-10-3-15-1-5-7-7-10-4-2 1-3 3-2 5 1 13 5 25 12 35 4 5 9 10 13 14 11 9 25 15 39 16z m-22-32c8 6 19 9 29 9-1-13-2-26-4-40-8 11-17 21-25 31z m36 9c10-2 20-7 27-14-10-9-20-17-30-26 1 13 2 26 3 40z m-55-41c1 10 6 20 13 27 9-10 17-20 26-30-13 1-26 2-39 3z m57-5c10 9 20 17 30 26 6-9 9-19 9-29-13 1-26 2-39 3z m-1-7c13-1 26-2 39-3-2-10-7-20-14-27-8 10-17 20-25 30z m-353-3c4 2 8 2 12 2 102 0 203 0 305 0 7 0 14-1 18-7 5-6 3-15-2-20-40-46-80-91-120-136-4-6-10-9-17-12-5-3-11-5-17-5 0-27 0-54 0-81-1-13 5-27 16-34 11-9 23-19 34-28 2-1 4-3 6-5 1-2 1-3 0-4-1-3-3-3-6-3-37 0-75 0-113 0-3 0-7 1-7 4 0 3 2 5 4 7 12 10 23 20 35 30 3 3 6 7 8 11 3 5 5 11 5 16 0 29 0 58 0 87-6 0-12 2-17 4-7 2-13 6-18 11-43 46-87 92-130 138-2 2-4 6-5 9-1 7 3 14 9 16z m347-2c9-10 17-20 25-29-8-6-18-9-28-9 1 13 2 25 3 38z m-335-14c102 0 204 0 305 0-37-42-74-84-111-127-4-4-7-8-12-11-5-3-10-5-15-6-6 0-13 0-19 0-9 1-17 5-23 12-42 44-83 88-125 132z m58-14c65 0 130 0 195 0 3 0 8 0 11-3 1-4-1-8-4-10-29-31-58-62-87-93-4-4-7-9-13-10-3-1-7-1-10 1-3 1-5 3-7 5-29 31-58 62-88 94-2 2-5 5-6 8-1 2-1 5 1 6 3 2 5 2 8 2z m152-22c0 5 7 7 10 4 3-3 2-7 1-11-3-11-12-20-22-27-5-4-11-8-17-10 2-8 1-16-4-23-4-4-9-8-16-9-4 0-8 0-12 1-7 3-13 9-15 16-2 7-1 14 3 20 2 3 4 6 7 8 10 6 23 4 31-3 8 4 16 8 23 15 6 5 11 11 11 19z"/>
<glyph unicode="&#35;" d="M391 457c14 0 28-1 41-8 11-7 20-16 26-26 15-23 14-54-1-76-9-13-22-23-37-28-9-4-20-5-29-4-3 1-6 4-5 8 1 2 2 4 4 4 5 0 10 0 15 0 24 3 45 22 50 46 3 13 2 27-4 39-6 11-14 21-26 26-11 6-24 8-36 6-13-1-24-7-33-16-10-9-16-21-17-34 0-3 0-5-2-7-2-2-5-2-8-1-1 2-3 3-2 5 0 10 3 19 7 28 4 7 10 14 16 20 11 10 26 17 41 18z m-22-32c8 6 19 9 29 9-1-13-2-26-4-40-8 11-17 21-25 31z m36 9c10-2 20-7 27-14-10-9-20-17-30-26 1 13 2 26 3 40z m-55-41c1 10 6 20 13 27 9-10 17-20 26-30-13 1-26 2-39 3z m57-5c10 9 20 17 30 26 6-9 9-19 9-29-13 1-26 2-39 3z m-1-7c13-1 26-2 39-3-2-10-7-20-14-27-8 10-17 20-25 30z m-353-3c4 2 8 2 12 2 102 0 203 0 304 0 5 0 10 0 14-2 6-3 9-10 8-17-1-4-4-7-7-11-39-44-78-89-118-133-4-5-10-9-16-12-6-2-12-5-18-5 0-28 0-57 0-86 0-10 5-20 12-26 13-11 26-21 39-32 3-2 6-4 6-7 0-3-4-4-7-4-37 0-75 0-113 0-3 0-6 0-7 3-1 1 0 3 1 4 1 2 3 4 5 6 11 9 22 18 33 28 3 3 6 7 8 11 3 5 5 11 5 17 0 29 0 57 0 86-6 0-12 2-17 4-7 2-13 6-18 11-43 46-86 92-129 137-3 3-5 6-6 10-1 7 3 14 9 16z m347-2c9-10 17-20 25-29-8-6-18-9-28-9 1 13 2 25 3 38z m-335-14c102 0 204 0 305 0-38-44-77-88-115-132-6-6-14-10-23-12-6 0-13 0-19 0-8 1-16 5-21 10-43 45-85 89-127 134z m58-14c65 0 130 0 195 0 3 0 8 0 11-3 1-4-1-8-4-10-28-31-57-61-85-92-4-3-6-7-10-9-7-4-16-3-21 3-31 33-61 65-91 97-3 3-6 7-4 11 2 3 6 3 9 3z m152-21c0 3 3 6 7 6 3 0 5-4 5-7-1-11-8-20-16-28-7-6-15-12-24-15 2-7 1-14-2-20-2-3-5-6-8-8-7-5-18-6-26-1-4 3-8 6-10 11-2 5-3 12-1 18 3 7 8 13 16 16 8 2 18 0 25-6 9 4 18 9 25 17 5 4 9 10 9 17z"/>
<glyph unicode="&#36;" d="M391 457c14 0 28-1 41-8 11-7 20-16 26-26 16-25 13-60-6-82-8-10-19-18-32-22-9-4-19-5-29-4-3 1-6 4-5 8 1 2 2 4 5 4 4 0 9 0 14 0 24 3 45 22 50 46 3 13 2 27-4 39-5 10-13 19-23 25-9 5-20 8-31 8-15 0-30-6-41-17-9-9-16-21-17-34 0-3 0-5-2-7-2-2-6-2-8 0-2 1-3 3-2 5 0 10 3 20 8 29 5 9 12 16 20 22 10 8 23 13 36 14z m-22-32c8 6 19 9 29 9-1-13-2-27-4-40-8 11-17 21-25 31z m36 9c10-2 20-7 27-14-10-9-20-17-30-26 1 13 2 26 3 40z m-55-41c1 10 6 20 13 27 9-10 17-20 26-30-13 1-26 2-39 3z m57-5c10 9 20 17 30 26 6-9 9-19 9-29-13 1-26 2-39 3z m-1-7c13-1 26-2 39-3-2-10-7-20-14-27-8 10-17 20-25 30z m-353-3c4 2 8 2 12 2 102 0 203 0 305 0 6 0 13-1 17-6 6-5 5-14 0-20-8-9-16-18-23-27-32-35-63-71-94-106-4-5-9-10-15-13-7-4-15-8-23-8 0-28 0-57 0-86 0-11 6-22 15-29 12-9 23-18 34-27 3-3 7-5 8-9 0-3-4-4-7-4-37 0-75 0-113 0-3 0-7 1-7 4 0 3 2 5 4 7 8 7 16 14 25 21 5 5 11 8 15 14 4 7 8 15 8 24 0 28 0 57 0 85-6 0-12 2-17 4-7 2-13 6-18 11-43 46-87 92-130 138-2 2-4 6-5 9-1 7 3 14 9 16z m347-2c9-10 17-20 25-29-8-6-18-9-28-9 1 13 2 25 3 38z m-335-14c102 0 204 0 305 0-38-44-77-88-115-132-6-6-14-10-23-12-6 0-13 0-19 0-9 1-17 5-23 12-42 44-83 88-125 132z m58-14c65 0 130 0 195 0 3 0 8 0 11-3 1-4-1-8-4-10-28-30-56-60-84-90-4-4-7-8-11-11-6-4-16-3-21 3-30 32-61 65-91 97-3 3-6 6-4 11 2 3 6 3 9 3z m152-20c0 4 4 6 7 6 3 0 6-4 5-7-1-12-8-21-17-29-7-5-15-11-23-14 2-8 1-16-4-22-4-5-9-9-16-10-4 0-8 0-12 1-7 3-13 9-15 16-2 6-1 12 1 17 3 6 8 11 14 13 9 3 19 1 26-5 9 4 19 10 26 18 4 4 8 10 8 16z"/>
<glyph unicode="&#37;" d="M391 457c14 0 28-1 41-8 11-7 20-16 26-26 15-23 14-53-1-75-7-11-17-20-29-26-11-6-25-8-38-6-3 1-5 4-4 7 1 2 2 4 5 4 4 0 9 0 14 0 24 3 45 22 50 46 3 13 2 27-4 39-5 10-13 19-23 25-9 5-20 8-31 8-15 0-30-6-41-17-9-9-16-21-17-34 0-3 0-5-2-7-2-2-5-2-7-1-2 1-4 3-3 5 0 10 3 19 7 27 5 10 13 18 21 25 11 8 23 13 36 14z m-22-32c8 6 19 9 29 9-1-13-2-26-4-40-8 11-17 21-25 31z m36 9c10-2 20-7 27-14-10-9-20-17-30-26 1 13 2 26 3 40z m-55-41c1 10 6 20 13 27 9-10 17-20 26-30-13 1-26 2-39 3z m57-5c10 9 20 17 30 26 6-9 9-19 9-29-13 1-26 2-39 3z m-1-7c13-1 26-2 39-3-2-10-7-20-14-27-8 10-17 20-25 30z m-353-3c4 2 8 2 12 2 102 0 203 0 305 0 7 0 14-1 18-7 5-6 3-15-2-20-38-44-77-87-115-131-3-4-7-8-11-11-5-4-10-6-15-8-5-1-9-3-13-3 0-27 0-55 0-82-1-11 4-23 12-30 12-10 24-19 36-29 3-3 7-5 9-9 1-3-3-5-6-5-38 0-76 0-113 0-3 0-7 0-8 3-1 1 0 3 1 4 1 2 3 4 5 6 11 9 22 18 32 27 3 2 5 5 7 7 4 7 7 14 7 22 0 29 0 57 0 86-6 0-12 2-17 4-7 2-13 6-18 11-43 46-87 92-130 138-2 2-4 6-5 9-1 7 3 14 9 16z m347-2c9-10 17-20 25-29-8-6-18-9-28-9 1 13 2 25 3 38z m-335-14c102 0 204 0 305 0-38-44-77-88-115-132-6-6-14-10-23-12-6 0-13 0-19 0-8 1-16 5-21 10-43 45-85 89-127 134z m58-14c62 0 123 0 185 0 5 0 11 0 16 0 2-1 5-2 5-5 1-3-2-6-4-9-28-30-57-60-85-90-3-4-6-7-10-10-7-4-16-3-21 3-30 32-61 65-91 97-3 3-6 7-4 11 2 3 6 3 9 3z m152-19c0 5 7 7 10 4 3-3 2-7 1-11-3-11-12-21-22-27-5-5-11-8-17-10 2-8 1-16-4-23-4-4-9-8-16-9-4-1-8 0-12 1-7 3-13 9-15 16-2 7-1 14 2 20 3 3 5 6 9 8 9 6 22 4 30-3 8 3 15 8 22 13 6 6 12 13 12 21z"/>
<glyph unicode="&#38;" d="M391 457c14 0 28-1 41-8 11-7 20-16 26-26 16-25 13-60-6-82-8-10-19-18-32-22-9-4-19-5-29-4-2 1-3 2-4 4-2 3 0 8 4 8 6 0 11 0 17 1 13 2 24 9 33 18 17 18 21 48 8 69-6 10-13 18-23 23-11 6-25 8-38 6-12-1-24-7-32-16-11-10-16-24-17-37-1-5-7-7-10-4-2 1-3 3-2 5 0 9 3 18 7 27 4 7 10 14 16 20 11 10 26 17 41 18z m-22-32c8 6 19 9 29 9-1-13-2-26-4-40-8 11-17 21-25 31z m36 9c10-2 20-7 27-14-10-9-20-17-30-26 1 13 2 26 3 40z m-55-41c1 10 6 20 13 27 9-10 17-20 26-30-13 1-26 2-39 3z m57-5c10 9 20 17 30 26 6-9 9-19 9-29-13 1-26 2-39 3z m-1-7c13-1 26-2 39-3-2-10-7-20-14-27-8 10-17 20-25 30z m-353-3c4 2 10 2 15 2 101 0 201 0 302 0 7 0 14-1 18-7 5-6 3-15-2-20-38-44-76-87-114-130-4-4-7-9-12-12-5-4-10-6-15-8-5-1-9-3-13-3 0-28 0-57 0-86 0-10 5-20 12-26 13-11 26-21 39-32 3-2 6-4 6-7 0-3-4-4-7-4-37 0-75 0-113 0-3 0-7 1-7 4 0 3 2 5 4 7 12 10 23 20 35 30 3 3 6 7 8 11 3 5 5 11 5 17 0 29 0 57 0 86-6 0-12 2-17 4-7 2-13 6-18 11-43 46-85 91-128 136-3 3-6 6-7 10-2 7 2 15 9 17z m347-2c9-10 17-20 25-29-8-6-18-9-28-9 1 13 2 25 3 38z m-335-14c102 0 204 0 305 0-37-42-74-84-111-127-4-4-7-8-12-11-5-3-10-5-15-6-7 0-13 0-20 0-8 1-15 5-20 10-43 45-85 89-127 134z m58-14c65 0 130 0 195 0 3 0 8 0 11-3 1-4-1-8-4-10-28-30-56-60-84-90-4-4-7-8-11-11-6-4-16-3-21 3-30 32-61 65-91 97-3 3-6 6-4 11 2 3 6 3 9 3z m154-14c3 3 10 1 10-4 0-9-5-17-10-24-5-5-10-8-15-12-5-4-10-7-15-8 2-8 1-16-4-22-4-5-9-9-15-10-5-1-9-1-13 1-7 3-13 9-15 16-2 6-1 13 2 19 3 5 7 9 13 11 9 3 19 1 26-5 9 4 18 9 25 16 4 4 7 9 9 15 0 2 0 5 2 7z"/>
<glyph unicode="&#39;" d="M391 457c14 0 28-1 41-8 11-7 20-16 26-26 15-23 14-53-1-75-7-11-17-20-29-26-11-6-25-8-38-6-3 1-5 4-4 7 1 2 2 4 5 4 4 0 9 0 14 0 24 3 45 22 50 46 3 13 2 27-4 39-6 11-14 21-26 26-11 6-24 8-36 6-13-1-24-7-33-16-10-9-16-21-17-34 0-3 0-5-2-7-2-1-5-2-7-1-2 1-4 3-3 5 0 10 3 19 7 27 5 10 13 18 21 25 11 8 23 13 36 14z m-22-32c8 6 19 9 29 9-1-13-2-26-4-40-8 11-17 21-25 31z m36 9c10-2 20-7 27-14-10-9-20-18-30-26 1 13 2 26 3 40z m-55-41c1 10 6 20 13 27 9-10 17-20 26-30-13 1-26 2-39 3z m57-5c10 9 20 17 30 26 6-9 9-19 9-29-13 1-26 2-39 3z m-1-7c13-1 26-2 39-3-2-10-7-20-14-27-8 10-17 20-25 30z m-353-3c4 2 8 2 12 2 102 0 203 0 304 0 5 0 10 0 14-2 6-3 9-10 8-17-1-3-3-7-6-9-39-45-79-90-118-135-5-5-11-9-17-12-6-2-12-5-18-5 0-28 0-57 0-86 0-11 6-22 15-29 13-10 26-20 39-31 1-1 3-3 3-6-1-2-4-3-7-3-37 0-75 0-113 0-3 0-6 0-7 3-1 1 0 3 0 4 2 2 4 4 6 6 11 9 22 18 33 28 4 3 6 7 8 11 3 6 5 12 5 18 0 28 0 57 0 85-6 0-12 2-18 4-6 3-12 6-17 11-43 46-87 92-130 138-2 2-4 6-5 9-1 7 3 14 9 16z m347-2c9-10 17-20 25-29-8-6-18-9-28-9 1 13 2 25 3 38z m-335-14c102 0 204 0 306 0-39-44-78-88-116-132-6-6-14-10-23-12-6 0-13 0-19 0-8 1-16 4-21 10-43 45-85 89-127 134z m58-14c65 0 130 0 195 0 3 0 8 0 11-3 1-4-1-8-4-10-27-30-55-59-83-89-3-4-7-8-11-11-4-3-9-4-14-3-3 1-6 3-9 6-29 31-59 63-88 94-3 2-5 5-6 8-1 2 0 5 1 6 3 2 5 2 8 2z m152-17c0 3 3 6 6 5 3 1 7-3 6-6-1-12-8-22-17-29-7-6-15-11-23-14 2-7 1-14-2-20-2-3-5-6-8-8-7-5-17-6-25-2-5 3-9 8-11 13-3 6-3 12 0 18 2 6 6 10 11 13 10 4 21 3 29-4 9 4 18 9 25 16 5 5 9 11 9 18z"/>
<glyph unicode="&#40;" d="M391 457c14 0 28-1 41-8 11-7 20-16 26-26 15-23 14-53-1-75-7-11-17-20-29-26-11-6-25-8-38-6-3 1-5 4-4 7 1 2 2 4 5 4 4 0 9 0 14 0 24 3 45 22 50 46 3 13 2 27-4 39-6 11-14 21-26 26-11 6-24 8-36 6-13-1-24-7-33-16-10-9-16-21-17-34 0-3 0-5-2-7-2-1-5-2-7-1-2 1-4 3-3 5 0 10 3 19 7 27 5 10 13 18 21 25 11 8 23 13 36 14z m-22-32c8 6 19 9 29 9-1-13-2-26-4-40-8 11-17 21-25 31z m36 9c10-2 20-7 27-14-10-9-20-17-30-26 1 13 2 26 3 40z m-55-41c1 10 6 20 13 27 9-10 17-20 26-30-13 1-26 2-39 3z m57-5c10 9 20 17 30 26 6-9 9-19 9-29-13 1-26 2-39 3z m-1-7c13-1 26-2 39-3-2-10-7-20-14-27-8 10-17 20-25 30z m-353-3c4 2 8 2 12 2 102 0 203 0 305 0 6 0 13-1 17-6 6-5 5-14 0-20-8-9-16-18-23-27-30-34-61-68-91-102-5-6-10-13-17-17-8-4-16-7-24-8 0-28 0-57 0-86 0-10 5-20 12-26 13-10 25-20 37-30 3-3 7-5 8-9 0-3-4-4-7-4-37 0-75 0-113 0-3 0-6 0-7 3-1 1 0 3 1 4 1 2 3 4 5 6 11 9 22 18 33 28 4 3 6 7 8 11 3 5 5 11 5 17 0 29 0 57 0 86-6 0-12 2-17 4-7 2-13 6-18 11-43 46-87 92-130 138-2 2-4 6-5 9-1 7 3 14 9 16z m347-2c9-10 17-20 25-29-8-6-18-9-28-9 1 13 2 25 3 38z m-335-14c102 0 204 0 305 0-38-44-77-88-116-132-5-6-13-10-21-12-5 0-10 0-15 0-10 0-20 3-26 10-43 45-85 89-127 134z m58-14c65 0 130 0 195 0 3 0 8 0 10-3 2-2 1-4 0-6-1-3-4-5-6-7-29-32-58-63-88-94-3-4-7-7-12-6-5-1-10 2-14 6-30 32-60 64-90 96-3 3-6 7-4 11 2 3 6 3 9 3z m152-16c0 3 3 5 5 6 4 0 7-3 7-6 0-13-9-24-19-32-7-5-13-10-21-12 2-8 1-16-4-22-4-5-9-9-16-10-4 0-8 0-12 1-7 3-13 9-15 16-2 5-1 11 0 16 3 7 9 12 15 14 9 3 19 1 26-5 9 4 19 10 26 17 4 5 8 11 8 17z"/>
</font>
</defs>
</svg>
