<?xml version="1.0" standalone="no"?>
<!DOCTYPE svg PUBLIC "-//W3C//DTD SVG 1.1//EN" "http://www.w3.org/Graphics/SVG/1.1/DTD/svg11.dtd" >
<svg xmlns="http://www.w3.org/2000/svg" xmlns:xlink="http://www.w3.org/1999/xlink" version="1.1">
<metadata></metadata>
<defs>
<font id="relaxandorder-bartenbartender" horiz-adv-x="2048" >
<font-face units-per-em="2048" ascent="1920" descent="-128" />
<missing-glyph horiz-adv-x="500" />
<glyph horiz-adv-x="0" />
<glyph unicode="&#xd;" />
<glyph unicode="!" d="M176 1448q-8 48 36 64q16 8 48 8h1216q40 0 56 -8q48 -28 28 -72q0 -8 -32 -48q-152 -172 -464 -524q-28 -32 -88 -56q-24 -12 -48 -12v-344q0 -68 60 -116q36 -28 140 -112q24 -16 28 -32q0 -16 -28 -16h-452q-24 0 -28 12v16l24 24q88 72 132 112q16 12 32 44 q20 40 20 72v340q-32 0 -72 16q-44 16 -76 56q-84 92 -254 272t-258 268q-12 12 -20 36zM260 1448h1220q-152 -176 -464 -528q-28 -36 -88 -48h-76q-60 8 -96 48q-80 88 -248 264t-248 264zM456 1380q8 12 36 12h780q32 0 44 -12q8 -24 -16 -40q-48 -56 -106 -116t-126 -134 t-108 -114q-16 -24 -40 -40q-52 -28 -84 12q-60 64 -182 194t-182 194q-24 24 -16 44zM800 1128q24 44 60 56q60 20 104 -20q52 24 104 68q32 40 32 68q0 24 28 24t20 -28q-4 -60 -64 -112q-68 -52 -96 -60q16 -52 -16 -88q-12 -16 -28 -28q-44 -24 -96 0q-32 12 -44 48 q-20 32 -4 72zM1308 1568q8 80 48 140q16 20 52 56q72 56 156 64q104 0 164 -32q68 -44 104 -104q48 -76 40 -168t-64 -160q-52 -64 -128 -88q-52 -24 -116 -16q-24 8 -20 32q8 16 16 16h60q72 8 128 60t72 124q20 84 -16 156q-32 64 -92 100q-48 32 -128 32q-92 0 -160 -68 q-60 -56 -68 -144q0 -20 -16 -24q-12 -4 -24 4t-8 20zM1400 1572q8 64 52 108q16 -20 52 -60t52 -60zM1476 1700q48 36 116 36q-8 -104 -16 -160l-32 40t-36 44t-32 40zM1588 1352q4 28 8 78t4 74q20 -20 52 -60t48 -56q-48 -36 -112 -36zM1608 1576q8 104 12 160 q64 -12 108 -56q-20 -20 -60 -54t-60 -50zM1624 1524l156 -12q-12 -64 -56 -108q-16 20 -50 60t-50 60zM1628 1552q20 20 60 54t60 50q36 -56 36 -116z" />
<glyph unicode="&#x22;" d="M176 1448q-8 48 36 64q16 8 48 8h1220q52 0 72 -28q32 -40 -8 -80q-160 -184 -480 -544q-16 -28 -68 -48q-32 -20 -68 -20v-324q-8 -92 64 -136q20 -16 66 -54t70 -58q8 -4 24 -20q4 -12 0 -16q-4 -12 -24 -12h-452q-28 0 -28 16q0 12 16 28q24 20 70 60t70 60 q20 20 32 44q20 32 20 64v348q-28 0 -68 16q-40 12 -72 44q-84 92 -258 276t-262 276q-12 12 -20 36zM260 1448h1220q-296 -336 -444 -508q-36 -36 -48 -44q-28 -16 -60 -24h-76q-56 8 -92 48q-84 88 -250 264t-250 264zM456 1360q-8 16 4 24t32 8h780q32 0 44 -12 q8 -24 -16 -40l-348 -372q-36 -36 -52 -40q-24 -8 -40 4q-12 4 -28 20q-232 248 -352 376q-20 20 -24 32zM800 1068q-12 44 12 80q16 24 28 32q64 40 124 -12q64 32 92 60q44 36 44 76q0 16 16 20t24 -4q12 -12 4 -44q-16 -56 -88 -108q-36 -28 -68 -40q12 -52 -16 -92 q-32 -32 -64 -36q-32 0 -48 4q-48 20 -60 64zM1308 1568q8 80 48 140q16 20 52 56q72 56 156 64q104 0 164 -32q68 -44 104 -104q48 -76 42 -166t-62 -158q-48 -52 -100 -80q-68 -36 -152 -24q-16 8 -16 24q0 20 20 20q44 0 64 4q76 12 136 72q52 56 62 134t-30 142t-92 92 q-68 36 -148 24q-56 -4 -104 -40q-64 -48 -84 -112q-12 -32 -12 -60q-4 -16 -18 -20t-22 4q-16 8 -8 20zM1400 1572q8 64 52 108q16 -20 52 -60t52 -60zM1476 1700q48 36 116 36q-8 -104 -16 -160l-32 40t-36 44t-32 40zM1588 1352q4 28 8 78t4 74q20 -20 52 -60t48 -56 q-48 -36 -112 -36zM1608 1576q8 104 12 160q64 -12 108 -56q-20 -20 -60 -54t-60 -50zM1624 1524l156 -12q-12 -64 -56 -108q-16 20 -50 60t-50 60zM1628 1552q20 20 60 54t60 50q36 -56 36 -116z" />
<glyph unicode="#" d="M176 1448q-8 48 36 64q16 8 48 8h1216q40 0 56 -8q40 -20 32 -68q-4 -12 -28 -44q-452 -512 -472 -532q-20 -28 -64 -48q-60 -20 -72 -20v-344q0 -64 48 -104q24 -24 76 -66t80 -62q24 -16 24 -28q0 -16 -28 -16h-452q-24 0 -28 12q-8 8 4 16q4 8 20 24q88 72 132 112 q20 20 32 44q20 32 20 68v344q-28 0 -68 16q-40 12 -72 44q-344 368 -516 548q-20 20 -24 40zM260 1448h1220q-76 -88 -230 -264t-230 -264q-36 -36 -92 -48h-76q-52 8 -84 40q-332 348 -508 536zM456 1380q8 12 36 12h780q32 0 44 -12q8 -24 -16 -40q-56 -64 -170 -186 t-170 -182q-8 -4 -20 -18t-20 -18q-52 -28 -84 12q-124 132 -364 388q-24 24 -16 44zM800 1132q20 48 64 64q56 12 100 -24q68 28 100 68q36 28 36 68q0 24 28 24q20 0 20 -28q-4 -52 -64 -112q-52 -44 -96 -60q12 -40 -8 -80q-12 -20 -32 -32q-52 -36 -104 -4 q-32 24 -40 44q-16 40 -4 72zM1308 1564q0 48 28 112q20 36 64 80q72 64 164 72q104 0 164 -32q68 -44 104 -104q100 -152 -4 -304q-56 -80 -148 -112q-52 -24 -116 -16q-24 8 -20 32q8 16 16 16h60q72 8 128 60t72 124q20 84 -16 156q-44 80 -104 104q-68 36 -144 24 q-72 -4 -132 -64q-60 -56 -68 -136q0 -20 -8 -28q-12 -12 -32 -4q-8 16 -8 20zM1400 1572q8 64 52 108q16 -20 52 -60t52 -60zM1476 1700q48 36 116 36q-8 -104 -16 -160l-32 40t-36 44t-32 40zM1588 1352q4 28 8 78t4 74q20 -20 52 -60t48 -56q-48 -36 -112 -36zM1608 1576 q8 104 12 160q64 -12 108 -56q-20 -20 -60 -54t-60 -50zM1624 1524l156 -12q-12 -64 -56 -108q-16 20 -50 60t-50 60zM1628 1552q20 20 60 54t60 50q36 -56 36 -116z" />
<glyph unicode="$" d="M176 1448q-8 48 36 64q16 8 48 8h1220q48 0 68 -24q40 -32 0 -80q-64 -72 -92 -108q-16 -16 -376 -424q-28 -36 -60 -52q-56 -32 -92 -32v-344q0 -68 60 -116q48 -36 136 -108q32 -32 32 -36q0 -16 -28 -16h-452q-28 0 -28 16q0 12 16 28q64 56 100 84q4 4 28 24t32 32 q32 56 32 96v340q-28 0 -68 16q-40 12 -72 44q-84 92 -258 276t-262 276q-12 12 -20 36zM260 1448h1220q-76 -88 -230 -264t-230 -264q-36 -36 -92 -48h-76q-56 8 -92 48q-84 88 -250 264t-250 264zM456 1380q8 12 36 12h780q32 0 44 -12q8 -24 -16 -40l-336 -360l-44 -44 q-48 -32 -84 12q-60 64 -182 194t-182 194q-24 24 -16 44zM800 1076q-12 32 4 68q20 40 56 52q60 20 104 -20q68 28 104 72q32 32 32 64q0 24 28 24t20 -28q-4 -60 -68 -116q-64 -44 -92 -56q12 -52 -16 -88t-64 -40q-32 0 -48 4q-48 20 -60 64zM1308 1568q0 60 32 116 q28 48 80 88q64 48 144 56q104 0 164 -32q68 -44 104 -104q48 -76 40 -168t-64 -160q-52 -64 -128 -88q-52 -24 -116 -16q-24 8 -20 32q8 16 20 16h56q72 8 128 60t72 124q20 84 -16 156q-32 64 -92 100q-56 32 -124 32q-96 0 -164 -68q-64 -64 -68 -136q0 -20 -8 -28 q-16 -16 -32 0q-16 8 -8 20zM1400 1572q8 64 52 108q16 -20 52 -60t52 -60zM1476 1700q48 36 116 36q-8 -112 -16 -160l-32 40t-36 44t-32 40zM1588 1352q4 28 8 78t4 74q20 -20 52 -60t48 -56q-48 -36 -112 -36zM1608 1576q8 104 12 160q64 -12 108 -56q-20 -20 -60 -54 t-60 -50zM1624 1524l156 -12q-12 -64 -56 -108q-16 20 -50 60t-50 60zM1628 1552q20 20 60 54t60 50q36 -56 36 -116z" />
<glyph unicode="%" d="M176 1448q-8 48 36 64q16 8 48 8h1220q52 0 72 -28q32 -40 -8 -80q-76 -88 -230 -262t-230 -262q-20 -24 -44 -44q-20 -16 -60 -32q-8 0 -26 -6t-26 -6v-328q-8 -72 48 -120q24 -20 72 -58t72 -58q4 -4 12 -10t14 -12t10 -14t-4 -14t-20 -6h-452q-28 0 -32 12q-8 8 4 16 q4 8 20 24q88 72 128 108l28 28q28 48 28 88v344q-28 0 -68 16q-40 12 -72 44q-84 92 -258 276t-262 276q-12 12 -20 36zM260 1448h1220q-76 -88 -230 -264t-230 -264q-36 -36 -92 -48h-76q-52 8 -84 40q-332 348 -508 536zM456 1380q8 12 36 12h740h64q20 -8 20 -20 q4 -8 -16 -36q-56 -60 -170 -180t-170 -180q-16 -24 -40 -40q-52 -28 -84 12q-60 64 -182 194t-182 194q-24 24 -16 44zM800 1080q-12 40 8 80q28 28 36 32q60 40 120 -12q32 12 88 52q48 48 48 84q0 16 16 20t24 -4q12 -12 4 -44q-16 -64 -88 -108q-24 -28 -68 -40 q12 -52 -16 -92q-32 -32 -64 -36q-16 -4 -48 4q-48 20 -60 64zM1308 1564q0 52 28 108q24 48 84 100q68 52 144 56q104 0 164 -32q68 -44 104 -104q100 -152 -4 -300q-44 -68 -116 -104q-68 -36 -152 -24q-24 8 -16 28q8 16 20 16h56q72 8 128 60t72 124q20 84 -16 156 q-32 64 -92 100q-56 32 -124 32q-96 0 -164 -68q-64 -64 -68 -136q0 -20 -8 -28q-12 -12 -28 -4t-12 20zM1400 1572q8 64 52 108q16 -20 52 -60t52 -60zM1476 1700q48 36 116 36q-8 -104 -16 -160l-32 40t-36 44t-32 40zM1588 1352q4 28 8 78t4 74q20 -20 52 -60t48 -56 q-48 -36 -112 -36zM1608 1576q8 104 12 160q64 -12 108 -56q-20 -20 -60 -54t-60 -50zM1624 1524l156 -12q-12 -64 -56 -108q-16 20 -50 60t-50 60zM1628 1552q20 20 60 54t60 50q36 -56 36 -116z" />
<glyph unicode="&#x26;" d="M176 1444q-16 52 36 68q16 8 60 8h1208q52 0 72 -28q32 -40 -8 -80q-152 -176 -456 -520l-16 -20q-20 -20 -32 -28q-20 -16 -60 -32q-8 0 -26 -6t-26 -6v-344q0 -64 48 -104q24 -24 76 -66t80 -62q24 -16 24 -28q0 -16 -28 -16h-452q-28 0 -28 16q0 12 16 28q24 20 70 60 t70 60q20 20 32 44q20 32 20 68v344q-28 0 -68 16q-40 12 -72 44q-352 376 -512 544q-24 24 -28 40zM260 1448h1220q-296 -336 -444 -508q-36 -36 -48 -44q-28 -16 -60 -24h-80q-44 4 -80 40q-332 348 -508 536zM456 1380q8 12 36 12h780q32 0 44 -12q8 -24 -16 -40 l-336 -360l-44 -44q-48 -32 -84 12q-60 64 -182 194t-182 194q-24 24 -16 44zM800 1084q-12 36 8 76q20 32 52 44q60 20 104 -20q64 28 100 64q24 24 36 60q0 20 8 28t24 4t16 -20q0 -40 -40 -96l-60 -48q-32 -28 -60 -32q12 -52 -16 -88t-60 -40q-32 -8 -52 4 q-48 20 -60 64zM1308 1568q0 44 28 108q20 36 64 80q72 64 164 72q104 0 164 -32q68 -44 104 -104q48 -76 40 -168t-64 -160q-52 -64 -128 -88q-52 -24 -116 -16q-12 4 -16 16q-8 8 -2 20t18 12q44 0 68 4q72 12 132 72q52 56 62 134t-30 142t-92 92q-68 36 -152 24 q-76 -8 -128 -64q-60 -56 -68 -148q-4 -16 -18 -20t-22 4q-16 8 -8 20zM1400 1572q8 64 52 108q16 -20 52 -60t52 -60zM1476 1700q48 36 116 36q-8 -104 -16 -160l-32 40t-36 44t-32 40zM1588 1352q4 28 8 78t4 74q20 -20 52 -60t48 -56q-48 -36 -112 -36zM1608 1576 q8 104 12 160q64 -12 108 -56q-20 -20 -60 -54t-60 -50zM1624 1524l156 -12q-12 -64 -56 -108q-16 20 -50 60t-50 60zM1628 1552q20 20 60 54t60 50q36 -56 36 -116z" />
<glyph unicode="'" d="M176 1448q-8 48 36 64q16 8 48 8h1216q40 0 56 -8q40 -20 32 -68q-8 -24 -24 -36q-80 -88 -238 -268t-234 -272q-28 -28 -68 -48q-60 -20 -72 -20v-344q0 -68 60 -116q104 -80 156 -124q12 -12 12 -24q-4 -12 -28 -12h-452q-24 0 -28 12v16l24 24q88 72 132 112 q16 12 32 44q20 40 20 72v340q-24 0 -72 16q-48 24 -68 44q-84 92 -258 276t-262 276q-12 12 -20 36zM260 1448h1224q-312 -352 -464 -528q-36 -36 -92 -48h-76q-56 8 -84 40q-332 348 -508 536zM456 1360q-8 12 4 24q12 8 32 8h780q32 0 44 -12q8 -24 -16 -40 q-8 -8 -332 -356q-20 -24 -44 -44t-56 -12q-20 8 -36 24q-60 64 -178 190t-174 186q-16 12 -24 32zM804 1080q-20 36 0 72q12 32 44 52q68 28 116 -16q64 28 100 64t36 72q0 28 24 20q8 4 18 -6t6 -18q-4 -68 -68 -116q-44 -40 -92 -56q12 -40 -8 -80q-12 -20 -32 -32 q-48 -36 -100 -8q-32 20 -44 52zM1308 1564q0 52 28 108q24 48 84 100q68 52 144 56q104 0 164 -32q68 -44 104 -104q100 -152 -4 -300q-44 -68 -116 -104q-68 -36 -152 -24q-24 8 -16 28q8 16 20 16h56q72 8 128 60t72 124q20 84 -16 156q-44 80 -104 104q-68 36 -144 24 q-72 -4 -132 -64q-60 -56 -68 -136q0 -20 -8 -28q-20 -8 -28 -4q-16 8 -12 20zM1400 1572q8 64 52 108q16 -20 52 -60t52 -60zM1476 1700q48 36 116 36q-8 -104 -16 -160l-32 40t-36 44t-32 40zM1588 1352q4 28 8 78t4 74q20 -20 52 -60t48 -56q-48 -36 -112 -36zM1608 1576 q8 104 12 160q64 -12 108 -56q-80 -72 -120 -104zM1624 1524l156 -12q-12 -64 -56 -108q-16 20 -50 60t-50 60zM1628 1552q20 20 60 54t60 50q36 -56 36 -116z" />
<glyph unicode="(" d="M176 1448q-8 48 36 64q16 8 48 8h1220q48 0 68 -24q40 -32 0 -80q-64 -72 -92 -108q-60 -68 -182 -204t-182 -204q-48 -56 -68 -68q-52 -28 -96 -32v-344q0 -64 48 -104q52 -40 148 -120q32 -32 32 -36q0 -16 -28 -16h-452q-24 0 -28 12q-8 8 4 16q4 8 20 24 q88 72 132 112q16 12 32 44q20 32 20 68v344q-28 0 -68 16q-40 12 -72 44q-84 92 -258 276t-262 276q-12 12 -20 36zM260 1448h1220q-152 -176 -464 -528q-28 -36 -84 -48h-60q-68 0 -104 40q-332 348 -508 536zM456 1380q8 12 36 12h780q32 0 40 -12q8 -8 0 -24 q0 -8 -24 -28q-176 -192 -352 -376q-20 -28 -48 -24q-28 -4 -56 24l-360 384q-24 24 -16 44zM800 1092q-8 20 0 64q16 40 60 56q60 20 104 -20q64 28 104 68q32 40 32 68q0 16 20 24q28 0 28 -24q0 -68 -76 -128q-60 -40 -84 -48q12 -52 -16 -88t-64 -40q-32 0 -48 4 q-48 20 -60 64zM1308 1564q0 52 28 108q24 48 84 100q68 52 144 56q104 0 164 -32q68 -44 104 -104q100 -152 -4 -300q-44 -68 -116 -104q-68 -36 -152 -24q-24 8 -16 28q8 16 20 16h56q72 8 128 60t72 124q20 84 -16 156q-44 80 -104 104q-68 36 -144 24q-72 -4 -132 -64 q-60 -56 -68 -136q0 -20 -8 -28q-20 -8 -28 -4q-16 8 -12 20zM1400 1572q8 64 52 108q16 -20 52 -60t52 -60zM1476 1700q48 36 116 36q-8 -104 -16 -160l-32 40t-36 44t-32 40zM1588 1352q4 28 8 78t4 74q20 -20 52 -60t48 -56q-48 -36 -112 -36zM1608 1576q8 104 12 160 q64 -12 108 -56q-20 -20 -60 -54t-60 -50zM1624 1524l156 -12q-12 -64 -56 -108q-16 20 -50 60t-50 60zM1628 1552q20 20 60 54t60 50q36 -56 36 -116z" />
<glyph unicode="0" d="M176 1448q-8 48 36 64q16 8 48 8h1220q52 0 72 -28q32 -40 -8 -80q-16 -20 -188 -216t-264 -296q-12 -16 -36 -40q-16 -20 -80 -48q-24 -12 -48 -12v-344q0 -68 60 -116q24 -20 70 -56t66 -52q28 -20 32 -36q0 -16 -28 -16h-452q-24 0 -28 12v16l24 24q88 72 132 112 q16 12 32 44q20 40 20 72v340q-24 0 -72 16q-52 20 -76 52q-84 88 -254 270t-258 274q-12 12 -20 36zM260 1448h1220q-76 -88 -230 -264t-230 -264q-36 -36 -92 -48h-76q-56 8 -92 48q-84 88 -250 264t-250 264zM456 1380q8 12 36 12h780q32 0 44 -12q8 -24 -16 -40 l-336 -360l-44 -44q-48 -32 -84 12q-60 64 -182 194t-182 194q-24 24 -16 44zM800 1084q-12 28 4 64q12 36 56 56q60 20 104 -24q56 24 100 68q36 36 36 68t28 24q28 0 20 -28q-4 -64 -68 -112q-52 -44 -92 -60q12 -36 -8 -76q-4 -8 -32 -36q-40 -28 -88 -8t-60 64z M1308 1568q0 48 28 104q24 48 84 100q68 52 144 56q104 0 164 -32q68 -44 104 -104q48 -76 40 -168t-64 -160q-52 -64 -128 -88q-52 -24 -116 -16q-8 4 -16 12q-16 28 12 36q60 0 72 4q72 12 132 72q52 56 62 134t-30 142t-92 92q-68 36 -152 24q-76 -8 -128 -64 q-60 -56 -68 -148q-4 -16 -18 -20t-22 4q-16 8 -8 20zM1400 1572q8 64 52 108q16 -20 52 -60t52 -60zM1476 1700q48 36 116 36q-8 -104 -16 -160l-32 40t-36 44t-32 40zM1588 1352q4 28 8 78t4 74q20 -20 52 -60t48 -56q-48 -36 -112 -36zM1608 1576q8 104 12 160 q64 -12 108 -56q-20 -20 -60 -54t-60 -50zM1624 1524l156 -12q-12 -64 -56 -108q-16 20 -50 60t-50 60zM1628 1552q20 20 60 54t60 50q36 -56 36 -116z" />
<glyph unicode="1" d="M176 1448q-8 48 36 64q16 8 48 8h1216q40 0 56 -8q40 -20 32 -68q-8 -24 -24 -36q-80 -92 -238 -272t-238 -268q-28 -40 -100 -60q-24 -8 -36 -8v-344q0 -64 48 -104q24 -24 76 -66t80 -62q24 -16 24 -28q0 -16 -28 -16h-452q-28 0 -28 16q0 12 16 28t50 44t50 40 q8 8 20 18t22 20t18 22q32 48 32 88v344q-28 0 -68 16q-40 12 -72 44q-84 92 -258 276t-262 276q-12 12 -20 36zM260 1448h1220q-152 -176 -464 -528q-16 -20 -52 -36q-20 -12 -44 -12h-72q-60 8 -88 48q-84 88 -250 264t-250 264zM456 1360q-8 12 4 24q12 8 32 8h780 q32 0 44 -12q8 -24 -16 -40q-56 -64 -170 -186t-170 -182q-8 -4 -20 -18t-20 -18q-52 -28 -84 12l-360 384q-12 12 -20 28zM800 1072q-12 36 8 76q20 32 52 44q60 20 104 -20q68 28 100 68q36 28 36 68q0 28 28 20q28 0 20 -24q-4 -68 -68 -116q-44 -40 -92 -56 q12 -52 -16 -88t-64 -40q-16 -4 -48 4q-48 20 -60 64zM1308 1564q0 52 28 108q24 48 84 100q68 52 144 56q104 0 164 -32q68 -44 104 -104q100 -152 -4 -300q-44 -68 -116 -104q-68 -36 -152 -24q-24 8 -16 28q8 16 16 16h60q72 8 128 60t72 124q20 84 -16 156 q-32 64 -92 100q-56 32 -124 32q-96 0 -164 -68q-64 -64 -68 -136q0 -20 -8 -28q-20 -8 -28 -4q-16 8 -12 20zM1400 1572q8 64 52 108q16 -20 52 -60t52 -60zM1476 1700q48 36 116 36q-8 -104 -16 -160l-32 40t-36 44t-32 40zM1588 1352q4 28 8 78t4 74q20 -20 52 -60 t48 -56q-48 -36 -112 -36zM1608 1576q8 104 12 160q64 -12 108 -56q-20 -20 -60 -54t-60 -50zM1624 1524l156 -12q-12 -64 -56 -108q-16 20 -50 60t-50 60zM1628 1552q20 20 60 54t60 50q36 -56 36 -116z" />
<glyph unicode="2" d="M176 1448q-8 48 36 64q16 8 48 8h1220q52 0 72 -28q32 -40 -8 -80q-72 -88 -224 -258t-224 -254q-64 -64 -72 -68q-52 -28 -96 -32v-344q0 -68 60 -116q48 -36 136 -108q32 -32 32 -36q0 -16 -28 -16h-452q-24 0 -28 12v16l24 24q88 72 132 112q16 12 32 44q20 40 20 72 v340q-32 0 -72 16q-44 16 -76 56q-332 348 -508 536q-20 20 -24 40zM260 1448h1220q-76 -88 -230 -264t-230 -264q-36 -36 -92 -48h-76q-56 8 -92 48q-84 88 -250 264t-250 264zM456 1380q8 12 36 12h780q32 0 44 -12q8 -24 -16 -40q-48 -56 -106 -116t-126 -134t-108 -114 q-16 -24 -40 -40q-52 -28 -84 12q-60 64 -182 194t-182 194q-24 24 -16 44zM800 1124q16 44 60 60q64 16 104 -24q56 24 100 68q36 36 36 72q0 12 20 20q28 8 28 -24q0 -44 -40 -92q-8 -8 -26 -24t-22 -20q-48 -32 -72 -40q16 -52 -16 -88q-16 -16 -28 -24q-44 -32 -96 -4 q-32 20 -44 48q-16 32 -4 72zM1308 1568q0 48 28 104q24 48 84 100q68 52 144 56q104 0 164 -32q68 -44 104 -104q48 -76 40 -168t-64 -160q-52 -64 -128 -88q-52 -24 -116 -16q-12 4 -16 16q-8 8 -2 20t18 12q44 0 68 4q72 12 132 72q52 56 62 134t-30 142q-36 60 -92 92 q-64 36 -160 24q-88 -16 -148 -96q-40 -60 -40 -116q-4 -16 -18 -20t-22 4q-16 8 -8 20zM1400 1572q8 64 52 108q16 -20 52 -60t52 -60zM1476 1700q48 36 116 36q-8 -104 -16 -160l-32 40t-36 44t-32 40zM1588 1352q4 28 8 78t4 74q20 -20 52 -60t48 -56q-48 -36 -112 -36z M1608 1576q8 104 12 160q64 -12 108 -56q-20 -20 -60 -54t-60 -50zM1624 1524l156 -12q-12 -64 -56 -108q-16 20 -50 60t-50 60zM1628 1552q20 20 60 54t60 50q36 -56 36 -116z" />
<glyph unicode="3" d="M176 1448q-4 16 6 36t30 28q16 8 48 8h1216q40 0 56 -8q40 -20 32 -68q-8 -24 -24 -36q-80 -92 -238 -272t-238 -268q-32 -40 -96 -60q-24 -8 -40 -8v-324q-8 -92 64 -136q112 -92 152 -124q12 -12 12 -24q-4 -12 -28 -12h-452q-24 0 -28 12q-8 8 4 16q4 8 20 24 q88 72 132 112q20 20 32 44q20 32 20 68v344q-28 0 -68 16q-40 12 -72 44q-84 92 -256 274t-260 274q-20 20 -24 40zM260 1448h1220q-76 -88 -230 -264t-230 -264q-36 -36 -92 -48h-76q-56 8 -92 48q-84 88 -250 264t-250 264zM456 1360q-8 12 4 24q12 8 32 8h780 q32 0 44 -12q8 -24 -16 -40l-336 -360l-44 -44q-48 -32 -84 12l-360 384q-12 12 -20 28zM800 1052q-12 36 8 76q20 32 52 44q60 20 104 -20q64 28 104 68q32 40 32 68q0 16 16 20t24 -4q12 -12 4 -40q-8 -48 -68 -100q-68 -48 -88 -56q12 -48 -16 -84t-64 -40q-28 -8 -48 4 q-48 20 -60 64zM1308 1564q0 52 28 108q24 48 84 100q68 52 144 56q104 0 164 -32q68 -44 104 -104q100 -152 -4 -300q-44 -68 -116 -104q-68 -36 -152 -24q-24 8 -16 28q8 16 20 16h56q72 8 128 60t72 124q20 84 -16 156q-44 80 -104 104q-68 36 -144 24q-72 -4 -132 -64 q-60 -56 -68 -136q0 -20 -8 -28q-20 -8 -28 -4q-16 8 -12 20zM1400 1572q8 64 52 108q16 -20 52 -60t52 -60zM1476 1700q48 36 116 36q-8 -104 -16 -160l-32 40t-36 44t-32 40zM1588 1352q4 28 8 78t4 74q20 -20 52 -60t48 -56q-48 -36 -112 -36zM1608 1576q8 104 12 160 q64 -12 108 -56q-20 -20 -60 -54t-60 -50zM1624 1524l156 -12q-12 -64 -56 -108q-16 20 -50 60t-50 60zM1628 1552q20 20 60 54t60 50q36 -56 36 -116z" />
<glyph unicode="4" d="M176 1448q-4 16 6 36t30 28q16 8 48 8h1216q44 0 60 -12q40 -20 24 -68q-4 -8 -36 -52q-148 -168 -436 -496q-8 -4 -18 -16t-14 -20q-40 -32 -80 -44q-24 -12 -48 -12v-324q-8 -92 64 -136q24 -20 70 -58t70 -58q24 -12 24 -28t-28 -16h-452q-24 0 -28 12v16l24 24 q88 72 132 112q16 12 32 44q20 40 20 72v340q-24 0 -72 16q-48 24 -68 44q-352 376 -512 544q-24 24 -28 44zM260 1448h1220q-152 -176 -464 -528q-28 -36 -88 -48h-76q-60 8 -96 48q-80 88 -248 264t-248 264zM456 1380q8 12 36 12h780q32 0 44 -12q8 -24 -16 -40 l-336 -360l-44 -44q-48 -32 -84 12q-60 64 -182 194t-182 194q-24 24 -16 44zM804 1032q-20 40 0 72q12 40 44 52q64 32 116 -16q56 24 100 68q36 28 36 68q0 24 24 24q32 0 24 -28q-4 -60 -64 -112q-68 -52 -96 -60q12 -40 -8 -80q-12 -20 -32 -32q-44 -32 -100 -4 q-32 20 -44 48zM1308 1584q12 100 76 156q84 84 180 88q104 0 164 -32q68 -44 104 -104q48 -76 40 -168t-64 -160q-52 -64 -128 -88q-52 -24 -116 -16q-24 8 -20 32q8 16 20 16h56q72 8 128 60t72 124q20 84 -16 156q-44 80 -104 104q-68 36 -144 24q-72 -4 -132 -64 q-60 -56 -68 -136q0 -20 -8 -28q-4 -8 -18 -6t-18 10q-4 4 -4 32zM1400 1572q8 64 52 108q16 -20 52 -60t52 -60zM1476 1700q48 36 116 36q-8 -104 -16 -160l-32 40t-36 44t-32 40zM1588 1352q4 28 8 78t4 74q20 -20 52 -60t48 -56q-48 -36 -112 -36zM1608 1576 q8 104 12 160q64 -12 108 -56q-20 -20 -60 -54t-60 -50zM1624 1524l156 -12q-12 -64 -56 -108q-16 20 -50 60t-50 60zM1628 1552q20 20 60 54t60 50q36 -56 36 -116z" />
<glyph unicode="5" d="M176 1448q-8 48 36 64q16 8 48 8h1216q40 0 56 -8q40 -20 32 -68q-8 -24 -24 -36q-80 -92 -238 -272t-238 -268q-20 -28 -64 -48q-60 -20 -72 -20v-344q0 -64 48 -104q52 -40 148 -120q32 -32 32 -36q0 -16 -28 -16h-452q-24 0 -28 12q-8 8 4 16q4 8 20 24q88 72 132 112 q16 12 32 44q20 32 20 68v344q-28 0 -68 16q-40 12 -72 44q-84 92 -258 276t-262 276q-12 12 -20 36zM260 1448h1220q-76 -88 -230 -264t-230 -264q-36 -36 -92 -48h-76q-48 4 -88 40q-84 88 -252 266t-252 270zM456 1380q8 12 36 12h780q32 0 44 -12q8 -24 -16 -40 q-52 -56 -110 -120t-130 -138t-112 -118q-24 -32 -48 -36q-24 -8 -40 4q-12 4 -28 20l-360 384q-24 24 -16 44zM800 1044q-12 40 8 80q28 28 36 32q60 40 120 -12q68 28 104 72q32 32 32 64q0 24 24 24q8 0 18 -10t6 -18q-4 -48 -40 -88q-8 -12 -60 -52q-40 -24 -60 -32 q12 -52 -16 -88t-64 -40q-32 0 -48 4q-48 20 -60 64zM1308 1564q0 52 28 108q24 48 84 100q68 52 144 56q104 0 164 -32q68 -44 104 -104q100 -152 -4 -300q-44 -68 -116 -104q-68 -36 -152 -24q-24 8 -16 28q8 16 20 16h56q72 8 128 60t72 124q20 84 -16 156 q-32 64 -92 100q-56 32 -124 32q-96 0 -164 -68q-64 -64 -68 -136q0 -20 -8 -28q-20 -8 -28 -4q-16 8 -12 20zM1400 1572q8 64 52 108q16 -20 52 -60t52 -60zM1476 1700q48 36 116 36q-8 -104 -16 -160l-32 40t-36 44t-32 40zM1588 1352q4 28 8 78t4 74q20 -20 52 -60 t48 -56q-48 -36 -112 -36zM1608 1576q8 104 12 160q64 -12 108 -56q-20 -20 -60 -54t-60 -50zM1624 1524l156 -12q-12 -64 -56 -108q-16 20 -50 60t-50 60zM1628 1552q20 20 60 54t60 50q36 -56 36 -116z" />
<glyph unicode="6" d="M176 1448q-16 52 40 68q20 4 64 4h1200q52 0 72 -28q32 -40 -8 -80q-80 -88 -236 -268t-236 -268q-20 -32 -68 -52q-48 -24 -76 -24v-344q0 -64 48 -104q52 -40 148 -120q12 -8 28 -24q4 -12 0 -16q-4 -12 -24 -12h-452q-28 0 -28 16q0 12 16 28q24 20 70 60t70 60 q20 20 32 44q20 32 20 64v348q-28 0 -68 16q-40 12 -72 44q-84 92 -258 276t-262 276q-12 12 -20 36zM260 1448h1220q-80 -92 -236 -270t-228 -262q-28 -28 -68 -40q-12 -4 -72 -4q-60 -8 -108 40q-332 348 -508 536zM456 1380q8 12 36 12h768q28 0 40 -4q16 0 16 -16 q4 -8 -16 -36l-360 -384q-28 -28 -52 -24q-28 -4 -56 24l-360 384q-24 24 -16 44zM800 1048q-8 32 0 64q20 48 64 60q56 12 100 -24q64 24 104 72q32 32 32 64q0 24 28 24t20 -28q-4 -64 -72 -116q-48 -40 -88 -56q12 -48 -12 -84t-64 -44q-36 0 -56 8q-44 16 -56 60z M1308 1568q0 48 28 104q24 48 84 100q68 52 144 56q104 0 164 -32q68 -44 104 -104q48 -76 40 -168t-64 -160q-52 -64 -128 -88q-52 -24 -116 -16q-24 8 -20 32q8 16 16 16h60q72 8 128 60t72 124q20 84 -16 156q-44 80 -104 104q-68 36 -144 24q-80 -8 -132 -64 q-60 -56 -68 -148q-4 -16 -18 -20t-22 4q-16 8 -8 20zM1400 1572q8 64 52 108q16 -20 52 -60t52 -60zM1476 1700q48 36 116 36q-8 -104 -16 -160l-32 40t-36 44t-32 40zM1588 1352q4 28 8 78t4 74q20 -20 52 -60t48 -56q-48 -36 -112 -36zM1608 1576q8 104 12 160 q64 -12 108 -56q-80 -72 -120 -104zM1624 1524l156 -12q-12 -64 -56 -108q-16 20 -50 60t-50 60zM1628 1552q20 20 60 54t60 50q36 -56 36 -116z" />
<glyph unicode="7" d="M176 1448q-8 48 36 64q16 8 48 8h1216q40 0 56 -8q40 -20 32 -68q-8 -24 -24 -36q-80 -92 -238 -272t-238 -268q-20 -28 -64 -48q-60 -20 -72 -20v-344q0 -68 60 -116q104 -80 152 -120q16 -16 16 -28q-4 -12 -28 -12h-452q-28 0 -28 16q0 12 16 28q24 20 70 60t70 60 q16 12 32 44q20 40 20 72v340q-24 0 -72 16q-48 24 -68 44q-84 92 -258 276t-262 276q-12 12 -20 36zM260 1448h1220q-152 -176 -464 -528q-28 -36 -84 -48h-60q-68 -8 -116 48q-80 88 -248 264t-248 264zM456 1380q8 12 36 12h780q32 0 44 -12q8 -24 -16 -40l-336 -360 l-44 -44q-48 -32 -84 12q-60 64 -182 194t-182 194q-24 24 -16 44zM800 1116q20 40 48 52q64 32 116 -16q64 24 104 72q32 32 32 68q0 12 18 18t26 -6t0 -36q-12 -56 -68 -100q-48 -40 -88 -56q12 -40 -8 -80l-36 -36q-32 -20 -68 -12q-40 8 -60 40q-32 36 -16 92z M1308 1564q0 52 28 108q24 48 84 100q68 52 144 56q104 0 164 -32q68 -44 104 -104q100 -152 -4 -300q-44 -68 -116 -104q-68 -36 -152 -24q-24 8 -16 28q8 16 20 16h56q72 8 128 60t72 124q20 84 -16 156q-44 80 -104 104q-68 36 -144 24q-72 -4 -132 -64q-60 -56 -68 -136 q0 -20 -8 -28q-20 -8 -28 -4q-16 8 -12 20zM1400 1572q8 64 52 108q16 -20 52 -60t52 -60zM1476 1700q48 36 116 36q-8 -104 -16 -160l-32 40t-36 44t-32 40zM1588 1352q4 28 8 78t4 74q20 -20 52 -60t48 -56q-48 -36 -112 -36zM1608 1576q8 104 12 160q64 -12 108 -56 q-20 -20 -60 -54t-60 -50zM1624 1524l156 -12q-12 -64 -56 -108q-16 20 -50 60t-50 60zM1628 1552q20 20 60 54t60 50q36 -56 36 -116z" />
<glyph unicode="8" d="M176 1444q-16 52 36 68q20 8 64 8h1172q40 0 64 -4q28 0 40 -24q20 -28 8 -56q-4 -8 -16 -22t-12 -18l-468 -528q-20 -28 -64 -48q-60 -20 -72 -20v-344q0 -64 48 -104q28 -20 84 -66t84 -70q12 -12 12 -24q-4 -12 -28 -12h-452q-28 0 -28 16q0 12 16 28q24 20 70 60 t70 60q20 20 32 44q20 32 20 64v348q-28 0 -68 16q-40 12 -72 44q-84 92 -252 268t-252 268q-28 28 -36 48zM260 1448h1220q-152 -176 -464 -528q-16 -20 -52 -36q-20 -12 -44 -12h-72q-60 8 -88 48q-84 88 -250 264t-250 264zM456 1380q8 12 36 12h768q28 0 40 -4 q16 0 16 -16q4 -8 -16 -36q-56 -60 -168 -178t-168 -178q-4 -4 -18 -20t-22 -24q-52 -32 -88 12q-60 64 -182 194t-182 194q-24 24 -16 44zM800 1056q-12 32 4 72q20 32 48 48q68 24 112 -20q64 24 104 72q32 32 32 64q0 24 28 24t20 -28q-4 -68 -68 -116q-44 -40 -92 -56 q12 -52 -16 -88t-64 -40q-32 0 -48 4q-48 20 -60 64zM1308 1564q0 48 28 112q20 36 64 80q72 64 164 72q104 0 164 -32q68 -44 104 -104q48 -76 40 -168t-64 -160q-52 -64 -128 -88q-52 -24 -116 -16q-24 8 -20 32q8 16 20 16h56q72 8 128 60t72 124q20 84 -16 156 q-44 80 -104 104q-68 36 -144 24q-72 -4 -132 -64q-60 -56 -68 -136q0 -20 -8 -28q-12 -12 -32 -4q-8 16 -8 20zM1400 1572q8 64 52 108q16 -20 52 -60t52 -60zM1476 1700q48 36 116 36q-8 -104 -16 -160l-32 40t-36 44t-32 40zM1588 1352q4 28 8 78t4 74q20 -20 52 -60 t48 -56q-48 -36 -112 -36zM1608 1576q8 104 12 160q64 -12 108 -56q-20 -20 -60 -54t-60 -50zM1624 1524l156 -12q-12 -64 -56 -108q-16 20 -50 60t-50 60zM1628 1552q20 20 60 54t60 50q36 -56 36 -116z" />
<glyph unicode="9" d="M176 1444q-16 52 36 68q16 8 60 8h1208q52 0 72 -28q32 -40 -8 -80q-76 -88 -226 -260t-226 -256l-36 -36q-16 -20 -80 -48q-24 -12 -48 -12v-344q0 -64 48 -104q28 -20 84 -66t84 -70q12 -12 12 -24q-4 -12 -28 -12h-452q-28 0 -28 16q0 12 16 28q24 20 70 60t70 60 q20 20 32 44q20 32 20 68v344q-28 0 -68 16q-40 12 -72 44q-352 376 -512 544q-24 24 -28 40zM260 1448h1220q-152 -176 -464 -528q-28 -36 -84 -48h-80q-56 8 -96 52q-80 88 -248 262t-248 262zM456 1380q8 12 36 12h744h60q20 -8 20 -20q4 -8 -16 -36q-56 -60 -170 -180 t-170 -180q-16 -24 -40 -40q-52 -28 -84 12q-60 64 -182 194t-182 194q-24 24 -16 44zM800 1060q-8 20 0 64q24 44 60 56q60 20 104 -20q64 28 104 68q32 40 32 72q4 16 20 18t24 -10q4 -4 4 -32q-16 -56 -72 -104q-56 -40 -88 -52q12 -52 -16 -88t-60 -40q-36 0 -52 4 q-48 20 -60 64zM1308 1568q8 80 48 140q16 20 52 56q72 56 156 64q104 0 164 -32q68 -44 104 -104q48 -76 40 -168t-64 -160q-52 -64 -128 -88q-52 -24 -116 -16q-12 4 -16 16q-8 8 -2 20t18 12q44 0 64 4q76 12 136 72q52 56 62 134t-30 142t-92 92q-68 36 -148 24 q-56 -4 -104 -40q-64 -48 -84 -112q-12 -32 -12 -60q-4 -16 -18 -20t-22 4q-16 8 -8 20zM1400 1572q8 64 52 108q16 -20 52 -60t52 -60zM1476 1700q48 36 116 36q-8 -104 -16 -160l-32 40t-36 44t-32 40zM1588 1352q4 28 8 78t4 74q20 -20 52 -60t48 -56q-48 -36 -112 -36z M1608 1576q8 104 12 160q64 -12 108 -56q-20 -20 -60 -54t-60 -50zM1624 1524l156 -12q-12 -64 -56 -108q-16 20 -50 60t-50 60zM1628 1552q20 20 60 54t60 50q36 -56 36 -116z" />
<glyph unicode="A" d="M176 1444q-4 12 -4 22q0 33 40 46q16 8 60 8h1196q48 0 68 -12q30 -16 30 -44q0 -13 -6 -28q0 -4 -32 -44q-152 -172 -464 -524q-28 -32 -88 -56q-24 -12 -48 -12v-308q0 -52 4 -64q12 -52 56 -84q44 -40 140 -112q0 -4 12 -16t16 -20q0 -16 -28 -16h-452q-28 0 -28 16 q0 12 16 28q68 64 140 116q16 16 32 48q20 32 20 68v344q-28 0 -68 16q-40 12 -72 44q-352 376 -512 544q-24 24 -28 40zM260 1448h1220q-152 -176 -464 -528q-24 -32 -88 -48h-76q-60 8 -96 48q-80 88 -248 264t-248 264zM456 1360v16q4 8 44 16h752q28 0 40 -4 q20 0 24 -16q4 -12 -16 -32l-132 -144q-152 -160 -224 -240q-24 -24 -40 -28q-9 -2 -17 -2q-28 0 -47 22q-116 120 -348 368q-32 32 -36 44zM1308 1568q8 80 48 140q16 20 52 56q72 56 156 64q104 0 164 -32q68 -44 104 -104q41 -65 41 -142q0 -13 -1 -26q-8 -92 -64 -160 q-52 -64 -128 -88q-39 -18 -85 -18q-15 0 -31 2q-24 8 -20 32q8 16 20 16q52 0 64 4q76 12 136 72q52 56 62 134q2 16 2 31q0 60 -32 111q-40 64 -92 92q-51 27 -109 27q-19 0 -39 -3q-56 -4 -104 -40q-64 -48 -84 -108q-12 -28 -12 -64q-4 -16 -18 -20t-22 4q-16 8 -8 20z M1400 1572q8 64 52 108q16 -20 52 -60t52 -60zM1476 1700q48 36 116 36q-8 -104 -16 -160l-32 40t-36 44t-32 40zM1588 1352q4 28 8 78t4 74q20 -20 52 -60t48 -56q-48 -36 -112 -36zM1608 1576q8 104 12 160q64 -12 108 -56q-20 -20 -60 -54t-60 -50zM1624 1524l156 -12 q-12 -64 -56 -108q-16 20 -50 60t-50 60zM1628 1552q20 20 60 54t60 50q36 -56 36 -116z" />
<glyph unicode="B" d="M176 1448q-1 7 -1 14q0 36 37 50q16 8 48 8h1216q40 0 56 -8q34 -20 34 -48q0 -12 -6 -24q0 -8 -32 -48q-152 -172 -464 -524q-20 -28 -64 -48q-60 -20 -72 -20v-344q0 -64 48 -104q52 -44 156 -124q24 -24 24 -32q0 -16 -28 -16h-452q-28 0 -28 16q0 12 16 28 q24 20 70 60t70 60q20 20 32 44q20 32 20 68v344q-28 0 -68 16q-40 12 -72 44q-84 92 -258 276t-262 276q-12 12 -20 36zM260 1448h1220q-296 -336 -444 -508q-36 -36 -48 -44q-28 -16 -60 -24h-80q-60 8 -88 48q-84 88 -250 264t-250 264zM456 1380q8 12 36 12h780 q32 0 44 -12q8 -24 -16 -40q-52 -56 -110 -120t-130 -138t-112 -118q-24 -32 -48 -36q-24 -8 -40 4q-12 4 -28 20l-360 384q-24 24 -16 44zM1308 1568q8 80 48 140q16 20 52 56q72 56 156 64q104 0 164 -32q68 -44 104 -104q43 -68 43 -146q0 -10 -1 -20q-6 -90 -62 -158 q-48 -52 -100 -80q-51 -27 -111 -27q-20 0 -41 3q-16 8 -16 24q0 20 20 20q44 0 68 4q72 12 132 72q52 56 62 134q2 16 2 31q0 60 -32 111q-40 64 -92 92q-51 27 -109 27q-19 0 -39 -3q-56 -4 -104 -40q-64 -48 -84 -108q-12 -28 -12 -64q-4 -16 -18 -20t-22 4q-16 8 -8 20z M1400 1572q8 64 52 108q16 -20 52 -60t52 -60zM1476 1700q48 36 116 36q-8 -104 -16 -160l-32 40t-36 44t-32 40zM1588 1352q4 28 8 78t4 74q20 -20 52 -60t48 -56q-48 -36 -112 -36zM1608 1576q8 104 12 160q64 -12 108 -56q-20 -20 -60 -54t-60 -50zM1624 1524l156 -12 q-12 -64 -56 -108q-16 20 -50 60t-50 60zM1628 1552q20 20 60 54t60 50q36 -56 36 -116z" />
<glyph unicode="C" d="M176 1448q-1 7 -1 14q0 36 37 50q16 8 48 8h1216q40 0 56 -8q34 -20 34 -48q0 -12 -6 -24q0 -8 -32 -48q-152 -172 -464 -524q-20 -28 -64 -48q-60 -20 -72 -20v-344q0 -64 48 -104q52 -44 156 -124q24 -24 24 -32q0 -16 -28 -16h-452q-28 0 -28 16q0 12 16 28 q24 20 70 60t70 60q20 20 32 44q20 32 20 68v344q-28 0 -68 16q-40 12 -72 44q-84 92 -258 276t-262 276q-12 12 -20 36zM260 1448h1220q-296 -336 -444 -508q-36 -36 -48 -44q-28 -16 -60 -24h-80q-60 8 -88 48q-84 88 -250 264t-250 264zM456 1380q8 12 36 12h780 q32 0 44 -12q8 -24 -16 -40q-52 -56 -110 -120t-130 -138t-112 -118q-24 -32 -48 -36q-24 -8 -40 4q-12 4 -28 20l-360 384q-24 24 -16 44zM1308 1568q8 80 48 140q16 20 52 56q72 56 156 64q104 0 164 -32q68 -44 104 -104q43 -68 43 -146q0 -10 -1 -20q-6 -90 -62 -158 q-48 -52 -100 -80q-51 -27 -111 -27q-20 0 -41 3q-16 8 -16 24q0 20 20 20q44 0 68 4q72 12 132 72q52 56 62 134q2 16 2 31q0 60 -32 111q-40 64 -92 92q-51 27 -109 27q-19 0 -39 -3q-56 -4 -104 -40q-64 -48 -84 -108q-12 -28 -12 -64q-4 -16 -18 -20t-22 4q-16 8 -8 20z M1400 1572q8 64 52 108q16 -20 52 -60t52 -60zM1476 1700q48 36 116 36q-8 -104 -16 -160l-32 40t-36 44t-32 40zM1588 1352q4 28 8 78t4 74q20 -20 52 -60t48 -56q-48 -36 -112 -36zM1608 1576q8 104 12 160q64 -12 108 -56q-20 -20 -60 -54t-60 -50zM1624 1524l156 -12 q-12 -64 -56 -108q-16 20 -50 60t-50 60zM1628 1552q20 20 60 54t60 50q36 -56 36 -116z" />
<glyph unicode="D" d="M176 1448q-1 7 -1 14q0 36 37 50q16 8 48 8h1216q40 0 56 -8q34 -20 34 -48q0 -12 -6 -24q0 -8 -32 -48q-152 -172 -464 -524q-20 -28 -64 -48q-60 -20 -72 -20v-344q0 -64 48 -104q52 -44 156 -124q24 -24 24 -32q0 -16 -28 -16h-452q-28 0 -28 16q0 12 16 28 q24 20 70 60t70 60q20 20 32 44q20 32 20 68v344q-28 0 -68 16q-40 12 -72 44q-84 92 -258 276t-262 276q-12 12 -20 36zM260 1448h1220q-296 -336 -444 -508q-36 -36 -48 -44q-28 -16 -60 -24h-80q-60 8 -88 48q-84 88 -250 264t-250 264zM456 1380q8 12 36 12h780 q32 0 44 -12q8 -24 -16 -40q-52 -56 -110 -120t-130 -138t-112 -118q-24 -32 -48 -36q-24 -8 -40 4q-12 4 -28 20l-360 384q-24 24 -16 44zM1308 1568q8 80 48 140q16 20 52 56q72 56 156 64q104 0 164 -32q68 -44 104 -104q43 -68 43 -146q0 -10 -1 -20q-6 -90 -62 -158 q-48 -52 -100 -80q-51 -27 -111 -27q-20 0 -41 3q-16 8 -16 24q0 20 20 20q44 0 68 4q72 12 132 72q52 56 62 134q2 16 2 31q0 60 -32 111q-40 64 -92 92q-51 27 -109 27q-19 0 -39 -3q-56 -4 -104 -40q-64 -48 -84 -108q-12 -28 -12 -64q-4 -16 -18 -20t-22 4q-16 8 -8 20z M1400 1572q8 64 52 108q16 -20 52 -60t52 -60zM1476 1700q48 36 116 36q-8 -104 -16 -160l-32 40t-36 44t-32 40zM1588 1352q4 28 8 78t4 74q20 -20 52 -60t48 -56q-48 -36 -112 -36zM1608 1576q8 104 12 160q64 -12 108 -56q-20 -20 -60 -54t-60 -50zM1624 1524l156 -12 q-12 -64 -56 -108q-16 20 -50 60t-50 60zM1628 1552q20 20 60 54t60 50q36 -56 36 -116z" />
<glyph unicode="E" d="M176 1448q-1 7 -1 14q0 36 37 50q16 8 48 8h1216q40 0 56 -8q34 -20 34 -48q0 -12 -6 -24q0 -8 -32 -48q-152 -172 -464 -524q-20 -28 -64 -48q-60 -20 -72 -20v-344q0 -64 48 -104q52 -44 156 -124q24 -24 24 -32q0 -16 -28 -16h-452q-28 0 -28 16q0 12 16 28 q24 20 70 60t70 60q20 20 32 44q20 32 20 68v344q-28 0 -68 16q-40 12 -72 44q-84 92 -258 276t-262 276q-12 12 -20 36zM260 1448h1220q-296 -336 -444 -508q-36 -36 -48 -44q-28 -16 -60 -24h-80q-60 8 -88 48q-84 88 -250 264t-250 264zM456 1380q8 12 36 12h780 q32 0 44 -12q8 -24 -16 -40q-52 -56 -110 -120t-130 -138t-112 -118q-24 -32 -48 -36q-24 -8 -40 4q-12 4 -28 20l-360 384q-24 24 -16 44zM1308 1568q8 80 48 140q16 20 52 56q72 56 156 64q104 0 164 -32q68 -44 104 -104q43 -68 43 -146q0 -10 -1 -20q-6 -90 -62 -158 q-48 -52 -100 -80q-51 -27 -111 -27q-20 0 -41 3q-16 8 -16 24q0 20 20 20q44 0 68 4q72 12 132 72q52 56 62 134q2 16 2 31q0 60 -32 111q-40 64 -92 92q-51 27 -109 27q-19 0 -39 -3q-56 -4 -104 -40q-64 -48 -84 -108q-12 -28 -12 -64q-4 -16 -18 -20t-22 4q-16 8 -8 20z M1400 1572q8 64 52 108q16 -20 52 -60t52 -60zM1476 1700q48 36 116 36q-8 -104 -16 -160l-32 40t-36 44t-32 40zM1588 1352q4 28 8 78t4 74q20 -20 52 -60t48 -56q-48 -36 -112 -36zM1608 1576q8 104 12 160q64 -12 108 -56q-20 -20 -60 -54t-60 -50zM1624 1524l156 -12 q-12 -64 -56 -108q-16 20 -50 60t-50 60zM1628 1552q20 20 60 54t60 50q36 -56 36 -116z" />
<glyph unicode="F" d="M176 1448q-1 7 -1 14q0 36 37 50q16 8 48 8h1216q40 0 56 -8q34 -20 34 -48q0 -12 -6 -24q0 -8 -32 -48q-152 -172 -464 -524q-20 -28 -64 -48q-60 -20 -72 -20v-344q0 -64 48 -104q52 -44 156 -124q24 -24 24 -32q0 -16 -28 -16h-452q-28 0 -28 16q0 12 16 28 q24 20 70 60t70 60q20 20 32 44q20 32 20 68v344q-28 0 -68 16q-40 12 -72 44q-84 92 -258 276t-262 276q-12 12 -20 36zM260 1448h1220q-296 -336 -444 -508q-36 -36 -48 -44q-28 -16 -60 -24h-80q-60 8 -88 48q-84 88 -250 264t-250 264zM456 1380q8 12 36 12h780 q32 0 44 -12q8 -24 -16 -40q-52 -56 -110 -120t-130 -138t-112 -118q-24 -32 -48 -36q-24 -8 -40 4q-12 4 -28 20l-360 384q-24 24 -16 44zM1308 1568q8 80 48 140q16 20 52 56q72 56 156 64q104 0 164 -32q68 -44 104 -104q43 -68 43 -146q0 -10 -1 -20q-6 -90 -62 -158 q-48 -52 -100 -80q-51 -27 -111 -27q-20 0 -41 3q-16 8 -16 24q0 20 20 20q44 0 68 4q72 12 132 72q52 56 62 134q2 16 2 31q0 60 -32 111q-40 64 -92 92q-51 27 -109 27q-19 0 -39 -3q-56 -4 -104 -40q-64 -48 -84 -108q-12 -28 -12 -64q-4 -16 -18 -20t-22 4q-16 8 -8 20z M1400 1572q8 64 52 108q16 -20 52 -60t52 -60zM1476 1700q48 36 116 36q-8 -104 -16 -160l-32 40t-36 44t-32 40zM1588 1352q4 28 8 78t4 74q20 -20 52 -60t48 -56q-48 -36 -112 -36zM1608 1576q8 104 12 160q64 -12 108 -56q-20 -20 -60 -54t-60 -50zM1624 1524l156 -12 q-12 -64 -56 -108q-16 20 -50 60t-50 60zM1628 1552q20 20 60 54t60 50q36 -56 36 -116z" />
<glyph unicode="G" d="M176 1448q-1 7 -1 14q0 36 37 50q16 8 48 8h1216q40 0 56 -8q34 -20 34 -48q0 -11 -6 -24q0 -8 -32 -48q-152 -172 -464 -524q-20 -28 -64 -48q-60 -20 -72 -20v-344q0 -64 48 -104q52 -44 156 -124q24 -24 24 -32q0 -16 -28 -16h-452q-28 0 -28 16q0 12 16 28 q24 20 70 60t70 60q20 20 32 44q20 32 20 68v344q-28 0 -68 16q-40 12 -72 44q-84 92 -258 276t-262 276q-12 12 -20 36zM260 1448h1220q-296 -336 -444 -508q-36 -36 -48 -44q-28 -16 -60 -24h-80q-60 8 -88 48q-84 88 -250 264t-250 264zM456 1380q8 12 36 12h780 q32 0 44 -12q8 -24 -16 -40q-52 -56 -110 -120t-130 -138t-112 -118q-24 -32 -48 -36q-24 -8 -40 4q-12 4 -28 20l-360 384q-24 24 -16 44zM1308 1568q8 80 48 140q16 20 52 56q72 56 156 64q104 0 164 -32q68 -44 104 -104q43 -68 43 -146q0 -10 -1 -20q-6 -90 -62 -158 q-48 -52 -100 -80q-51 -27 -111 -27q-20 0 -41 3q-16 8 -16 24q0 20 20 20q44 0 68 4q72 12 132 72q52 56 62 134q2 16 2 31q0 60 -32 111q-40 64 -92 92q-51 27 -109 27q-19 0 -39 -3q-56 -4 -104 -40q-64 -48 -84 -108q-12 -28 -12 -64q-4 -16 -18 -20t-22 4q-16 8 -8 20z M1400 1572q8 64 52 108q16 -20 52 -60t52 -60zM1476 1700q48 36 116 36q-8 -104 -16 -160l-32 40t-36 44t-32 40zM1588 1352q4 28 8 78t4 74q20 -20 52 -60t48 -56q-48 -36 -112 -36zM1608 1576q8 104 12 160q64 -12 108 -56q-20 -20 -60 -54t-60 -50zM1624 1524l156 -12 q-12 -64 -56 -108q-16 20 -50 60t-50 60zM1628 1552q20 20 60 54t60 50q36 -56 36 -116z" />
<glyph unicode="H" d="M176 1448q-1 7 -1 14q0 36 37 50q16 8 48 8h1216q40 0 56 -8q34 -20 34 -48q0 -12 -6 -24q0 -8 -32 -48q-152 -172 -464 -524q-20 -28 -64 -48q-60 -20 -72 -20v-344q0 -64 48 -104q52 -44 156 -124q24 -24 24 -32q0 -16 -28 -16h-452q-28 0 -28 16q0 12 16 28 q24 20 70 60t70 60q20 20 32 44q20 32 20 68v344q-28 0 -68 16q-40 12 -72 44q-84 92 -258 276t-262 276q-12 12 -20 36zM260 1448h1220q-296 -336 -444 -508q-36 -36 -48 -44q-28 -16 -60 -24h-80q-60 8 -88 48q-84 88 -250 264t-250 264zM456 1380q8 12 36 12h780 q32 0 44 -12q8 -24 -16 -40q-52 -56 -110 -120t-130 -138t-112 -118q-24 -32 -48 -36q-24 -8 -40 4q-12 4 -28 20l-360 384q-24 24 -16 44zM1308 1568q8 80 48 140q16 20 52 56q72 56 156 64q104 0 164 -32q68 -44 104 -104q43 -68 43 -146q0 -10 -1 -20q-6 -90 -62 -158 q-48 -52 -100 -80q-51 -27 -111 -27q-20 0 -41 3q-16 8 -16 24q0 20 20 20q44 0 68 4q72 12 132 72q52 56 62 134q2 16 2 31q0 60 -32 111q-40 64 -92 92q-51 27 -109 27q-19 0 -39 -3q-56 -4 -104 -40q-64 -48 -84 -108q-12 -28 -12 -64q-4 -16 -18 -20t-22 4q-16 8 -8 20z M1400 1572q8 64 52 108q16 -20 52 -60t52 -60zM1476 1700q48 36 116 36q-8 -104 -16 -160l-32 40t-36 44t-32 40zM1588 1352q4 28 8 78t4 74q20 -20 52 -60t48 -56q-48 -36 -112 -36zM1608 1576q8 104 12 160q64 -12 108 -56q-20 -20 -60 -54t-60 -50zM1624 1524l156 -12 q-12 -64 -56 -108q-16 20 -50 60t-50 60zM1628 1552q20 20 60 54t60 50q36 -56 36 -116z" />
<glyph unicode="I" d="M176 1448q-1 7 -1 14q0 36 37 50q16 8 48 8h612q24 -32 72 -32h8q36 0 68 32h456q40 0 60 -12q29 -16 29 -49q0 -7 -1 -15q-4 -20 -24 -36q-80 -92 -238 -272t-238 -268q-32 -40 -96 -60q-32 -8 -40 -8v-344q0 -64 48 -104q28 -20 82 -64t82 -68q16 -16 16 -28 q-4 -12 -28 -12h-452q-24 0 -28 12q-8 8 4 16q4 8 20 24q88 72 132 112q20 20 32 44q20 32 20 68v344q-28 0 -68 16q-40 12 -72 44q-84 92 -258 276t-262 276q-12 12 -20 36zM260 1448h1224q-312 -352 -464 -528q-36 -36 -92 -48h-76q-52 8 -84 40q-332 348 -508 536z M456 1380q8 12 36 12h776q36 0 48 -12q8 -24 -16 -40q-120 -132 -360 -388q-24 -24 -40 -24q-36 0 -40 4q-12 4 -28 20l-360 384q-24 24 -16 44zM1308 1568q0 48 28 104q24 48 84 100q68 52 144 56q108 0 164 -32q68 -44 104 -104q49 -75 49 -149q0 -77 -53 -155 q-60 -88 -148 -112q-42 -18 -86 -18q-15 0 -30 2q-28 8 -20 28t20 20h44q92 8 156 76q52 56 62 134q2 16 2 31q0 60 -32 111q-40 64 -92 92q-51 27 -111 27q-20 0 -41 -3q-104 -12 -168 -116q-28 -56 -28 -100q-4 -12 -18 -16t-22 4q-16 8 -8 20zM1400 1572q8 64 52 108 q16 -20 52 -60t52 -60zM1476 1700q48 36 116 36q-8 -104 -16 -156h-4zM1588 1352q4 28 8 78t4 74q20 -20 52 -60t48 -56q-48 -36 -112 -36zM1608 1576q8 104 12 160q64 -12 108 -56q-80 -72 -120 -104zM1624 1524l156 -12q-12 -64 -56 -108q-16 20 -50 60t-50 60zM1628 1552 q20 20 60 54t60 50q36 -56 36 -116z" />
<glyph unicode="J" d="M176 1448q-4 12 -4 21q0 35 44 47q20 4 68 4h556q8 -40 36 -72h-616q84 -88 250 -264t250 -264q28 -40 88 -48h72q24 0 44 12q36 16 52 36q312 352 464 528h-480q36 24 36 72h448q52 0 68 -28q14 -18 14 -36q0 -22 -22 -44q-80 -88 -236 -268t-236 -268q-20 -32 -68 -52 q-48 -24 -76 -24v-344q0 -64 48 -104q52 -44 156 -124q24 -24 24 -32q0 -16 -28 -16h-452q-28 0 -28 16q0 12 16 28q24 20 70 60t70 60q28 20 40 60q12 24 12 56v340q-28 0 -68 16q-40 12 -72 44q-84 92 -256 274t-260 274q-20 20 -24 40zM456 1380q8 12 36 12h768 q28 0 40 -4q16 0 16 -16q4 -8 -16 -36q-52 -56 -112 -118t-132 -140t-112 -122q-24 -24 -44 -28q-24 -8 -40 4q-8 4 -20 16t-16 12q-52 56 -110 120t-130 138t-112 118q-24 24 -16 44zM1308 1568q0 64 36 120q32 52 76 84q64 48 144 56q104 0 164 -32q68 -44 104 -104 q43 -68 43 -146q0 -10 -1 -20q-6 -90 -62 -158q-48 -52 -100 -80q-51 -27 -111 -27q-20 0 -41 3q-24 8 -16 28q8 16 20 16h56q72 8 128 60t72 124q7 30 7 58q0 52 -23 98q-32 64 -92 100q-56 32 -124 32q-96 0 -164 -68q-64 -64 -68 -136q0 -20 -8 -28q-16 -16 -32 0 q-16 8 -8 20zM1400 1572q8 64 52 108q16 -20 52 -60t52 -60zM1476 1700q48 36 116 36q-8 -104 -16 -156l-4 4q-32 36 -96 116zM1588 1352q4 28 8 78t4 74q20 -20 52 -60t48 -56q-48 -36 -112 -36zM1608 1576q8 104 12 160q64 -12 108 -56q-20 -20 -60 -54t-60 -50z M1624 1524l156 -12q-12 -64 -56 -108q-16 20 -50 60t-50 60zM1628 1552q20 20 60 54t60 50q36 -56 36 -116z" />
<glyph unicode="K" d="M176 1448q-1 7 -1 14q0 36 37 50q16 8 48 8h596q-24 -32 -24 -72h-572q84 -88 250 -264t250 -264q28 -40 88 -48h72l48 12q32 12 48 36q312 352 464 528h-452q2 9 2 17q0 30 -22 55h468q40 0 56 -8q33 -17 33 -53q0 -7 -1 -15q-4 -20 -24 -36q-80 -88 -236 -266 t-232 -266q-32 -40 -60 -48q-48 -28 -84 -28v-344q0 -76 64 -116q112 -92 152 -124q12 -12 12 -24q-4 -12 -28 -12h-452q-28 0 -28 16q0 12 16 28q24 20 70 60t70 60q16 12 32 44q20 40 20 72v340q-36 0 -76 20q-36 12 -72 52q-84 92 -254 272t-258 268q-12 12 -20 36z M456 1372q0 16 20 16q12 4 40 4h344q20 -24 60 -32q9 -1 17 -1q41 0 67 33h264q20 0 32 -4q16 0 16 -16q4 -8 -16 -36l-360 -384q-24 -24 -40 -24q-36 0 -40 4q-12 4 -28 20l-360 384q-20 28 -16 36zM1308 1564q0 52 28 108q24 48 84 100q68 52 144 56q104 0 164 -32 q68 -44 104 -104q41 -65 41 -142q0 -13 -1 -26q-8 -92 -64 -160q-52 -64 -128 -88q-39 -18 -85 -18q-15 0 -31 2q-24 8 -20 32q8 16 16 16h60q72 8 128 60t72 124q7 30 7 58q0 51 -23 98q-44 80 -104 104q-50 27 -106 27q-18 0 -38 -3q-72 -4 -132 -64q-60 -56 -68 -136 q0 -20 -8 -28q-20 -8 -28 -4q-16 8 -12 20zM1400 1572q8 64 52 108q16 -20 52 -60t52 -60zM1476 1700q48 36 116 36q-8 -104 -16 -160l-32 40t-36 44t-32 40zM1588 1352q4 28 8 78t4 74q20 -20 52 -60t48 -56q-48 -36 -112 -36zM1608 1576q8 104 12 160q64 -12 108 -56 q-20 -20 -60 -54t-60 -50zM1624 1524l156 -12q-12 -64 -56 -108q-16 20 -50 60t-50 60zM1628 1552q20 20 60 54t60 50q36 -56 36 -116z" />
<glyph unicode="L" d="M176 1444q-4 12 -4 22q0 33 40 46q16 8 48 8h752q-32 -32 -44 -48q-21 11 -46 11q-12 0 -26 -3q-40 -20 -48 -32h-588q84 -88 250 -264t250 -264q28 -40 88 -48h72l48 12q32 12 48 36q312 352 464 528h-472q28 24 60 72h408q40 0 56 -8q34 -20 34 -48q0 -12 -6 -24 q0 -8 -32 -48q-152 -172 -464 -524q-28 -32 -88 -56q-24 -12 -48 -12v-344q0 -64 48 -104q56 -48 168 -136q12 -12 12 -24q-4 -12 -28 -12h-452q-28 0 -28 16q0 12 16 28q24 20 70 60t70 60q16 12 32 44q20 40 20 72v340q-36 0 -76 20q-36 12 -72 52q-336 352 -504 532 q-24 24 -28 40zM456 1372q0 16 20 16q12 4 44 4h304q0 -60 40 -88q29 -21 56 -21q30 0 60 25q41 27 41 70q0 7 -1 14h252q32 0 44 -12q8 -24 -16 -40l-336 -360l-44 -44q-20 -13 -38 -13q-25 0 -46 25q-240 256 -364 384q-20 28 -16 40zM1308 1564q0 88 60 156q44 56 100 84 q48 20 96 24q108 0 164 -32q68 -44 104 -104q41 -65 41 -142q0 -13 -1 -26q-8 -92 -64 -160q-52 -64 -128 -88q-39 -18 -85 -18q-15 0 -31 2q-12 4 -16 16q-8 8 -2 20t18 12h56q72 8 128 60t72 124q7 30 7 58q0 51 -23 98q-44 80 -104 104q-51 27 -109 27q-19 0 -39 -3 q-52 -4 -100 -40q-60 -48 -84 -112q-12 -32 -12 -60q0 -16 -16 -20t-24 4q-12 12 -8 16zM1400 1572q8 64 52 108q16 -20 52 -60t52 -60zM1476 1700q48 36 116 36q-8 -104 -16 -160l-32 40t-36 44t-32 40zM1588 1352q4 28 8 78t4 74q20 -20 52 -60t48 -56q-48 -36 -112 -36z M1608 1576q8 104 12 160q64 -12 108 -56q-20 -20 -60 -54t-60 -50zM1624 1524l156 -12q-12 -64 -56 -108q-16 20 -50 60t-50 60zM1628 1552q20 20 60 54t60 50q36 -56 36 -116z" />
<glyph unicode="M" d="M176 1444q-4 11 -4 21q0 29 36 47q20 8 64 8h796q-12 -40 -36 -72h-772q176 -188 508 -536q36 -36 80 -40h72q24 0 44 12q36 16 52 36q312 352 464 528h-392q24 48 28 72h304h88q44 -8 52 -44q4 -10 4 -20q0 -23 -20 -48q-240 -264 -464 -524l-16 -12q-12 -16 -20 -24 q-32 -24 -64 -36q-8 0 -26 -6t-26 -6v-344q0 -64 48 -104q56 -48 168 -136q12 -12 12 -24q-4 -12 -28 -12h-452q-28 0 -28 16q0 12 16 28q24 20 70 60t70 60q20 20 32 44q20 32 20 68v344q-28 0 -68 16q-40 12 -72 44q-84 92 -252 268t-252 268q-28 28 -36 48zM456 1372 q0 16 16 16q20 4 52 4h348q-32 -20 -48 -44q-10 -22 -10 -44q0 -33 22 -64q12 -20 44 -32q16 -6 33 -6t35 6q32 12 48 44q13 26 13 51q0 6 -1 13q0 20 -12 36q32 24 48 40h232q32 0 40 -12q8 -24 -16 -40q-120 -132 -360 -388q-24 -24 -40 -24q-36 0 -40 4q-12 4 -28 20 l-360 384q-20 20 -16 36zM952 1392h20l-8 -8q-4 0 -4 4zM1308 1568q8 92 60 152q48 64 108 84q28 16 88 24q108 0 164 -32q68 -44 104 -104q41 -65 41 -142q0 -13 -1 -26q-8 -92 -64 -160q-52 -64 -128 -88q-39 -18 -85 -18q-15 0 -31 2q-28 8 -20 28t20 20q52 0 64 4 q76 12 136 72q52 56 62 134q2 16 2 31q0 60 -32 111q-36 60 -92 92q-46 29 -108 29q-25 0 -52 -5q-92 -20 -148 -100q-40 -52 -40 -112q-4 -16 -18 -20t-22 4q-16 8 -8 20zM1400 1572q8 64 52 108q16 -20 52 -60t52 -60zM1476 1700q48 36 116 36q-8 -104 -16 -160l-32 40 t-36 44t-32 40zM1588 1352q4 28 8 78t4 74q20 -20 52 -60t48 -56q-48 -36 -112 -36zM1608 1576q8 104 12 160q64 -12 108 -56q-20 -20 -60 -54t-60 -50zM1624 1524l156 -12q-12 -64 -56 -108q-16 20 -50 60t-50 60zM1628 1552q20 20 60 54t60 50q36 -56 36 -116z" />
<glyph unicode="N" d="M176 1448q-1 7 -1 14q0 36 37 50q16 8 48 8h1220q52 0 72 -28q14 -18 14 -36q0 -22 -22 -44q-76 -88 -226 -260t-226 -256q-60 -60 -68 -64q-44 -24 -96 -32v-344q0 -64 48 -104q24 -24 76 -66t80 -62q24 -16 24 -28q0 -16 -28 -16h-452q-28 0 -28 16q0 12 16 28 q24 20 70 60t70 60q20 20 32 44q20 32 20 68v344q-28 0 -68 16q-40 12 -72 44q-84 92 -258 276t-262 276q-12 12 -20 36zM260 1448h824q12 20 20 20q16 0 20 -4t12 -16h344q-152 -176 -464 -528q-28 -36 -84 -48h-80q-56 8 -96 52q-80 88 -248 262t-248 262zM456 1372 q0 16 20 16q8 4 32 4h564q-32 -60 -108 -100q-26 19 -58 19q-8 0 -16 -1q-42 -6 -62 -34q-23 -26 -23 -59q0 -7 1 -15q6 -42 38 -66q28 -20 60 -20q84 0 100 88q0 28 -12 52q36 16 68 48q48 40 64 88h148q32 0 44 -12q8 -24 -16 -40q-56 -64 -170 -186t-170 -182 q-8 -4 -20 -18t-20 -18q-21 -12 -39 -12q-26 0 -45 24q-60 64 -182 194t-182 194q-20 20 -16 36zM1308 1568q0 44 28 108q20 36 64 80q72 64 164 72q104 0 164 -32q68 -44 104 -104q41 -65 41 -142q0 -13 -1 -26q-8 -92 -64 -160q-52 -64 -128 -88q-39 -18 -85 -18 q-15 0 -31 2q-24 8 -20 32q8 16 16 16q56 0 68 4q76 12 136 72q52 56 62 134q2 16 2 31q0 60 -32 111q-40 64 -92 92q-51 27 -111 27q-20 0 -41 -3q-76 -8 -128 -64q-60 -56 -68 -148q-4 -16 -18 -20t-22 4q-16 8 -8 20zM1400 1572q8 64 52 108q16 -20 52 -60t52 -60z M1476 1700q48 36 116 36q-8 -104 -16 -160l-32 40t-36 44t-32 40zM1588 1352q4 28 8 78t4 74q20 -20 52 -60t48 -56q-48 -36 -112 -36zM1608 1576q8 104 12 160q64 -12 108 -56q-20 -20 -60 -54t-60 -50zM1624 1524l156 -12q-12 -64 -56 -108q-16 20 -50 60t-50 60z M1628 1552q20 20 60 54t60 50q36 -56 36 -116z" />
<glyph unicode="O" d="M176 1448q-1 7 -1 14q0 36 37 50q16 8 48 8h1220q48 0 68 -24q20 -16 20 -36t-20 -44q-64 -72 -92 -108q-60 -68 -182 -204t-182 -204q-48 -56 -68 -68q-52 -28 -96 -32v-344q0 -64 48 -104q52 -40 148 -120q32 -32 32 -36q0 -16 -28 -16h-452q-24 0 -28 12q-8 8 4 16 q4 8 20 24q88 72 132 112q16 12 32 44q20 32 20 68v344q-28 0 -68 16q-40 12 -72 44q-84 92 -258 276t-262 276q-12 12 -20 36zM260 1448h1220q-152 -176 -464 -528q-28 -36 -84 -48h-60q-68 0 -104 40q-332 348 -508 536zM456 1380q8 12 36 12h780q32 0 40 -12q8 -8 0 -24 q0 -8 -24 -28q-176 -192 -352 -376q-20 -28 -48 -24q-28 -4 -56 24l-360 384q-24 24 -16 44zM800 1092q-4 10 -4 26t4 38q16 40 60 56q20 7 38 7q36 0 66 -27q64 28 104 68q32 40 32 68q0 16 20 24q28 0 28 -24q0 -68 -76 -128q-60 -40 -84 -48q4 -16 4 -30q0 -33 -20 -58 q-28 -36 -64 -40q-32 0 -48 4q-48 20 -60 64zM1308 1564q0 52 28 108q24 48 84 100q68 52 144 56q104 0 164 -32q68 -44 104 -104q49 -75 49 -148q0 -76 -53 -152q-44 -68 -116 -104q-51 -27 -111 -27q-20 0 -41 3q-24 8 -16 28q8 16 20 16h56q72 8 128 60t72 124q7 30 7 58 q0 51 -23 98q-44 80 -104 104q-50 27 -106 27q-18 0 -38 -3q-72 -4 -132 -64q-60 -56 -68 -136q0 -20 -8 -28q-20 -8 -28 -4q-16 8 -12 20zM1400 1572q8 64 52 108q16 -20 52 -60t52 -60zM1476 1700q48 36 116 36q-8 -104 -16 -160l-32 40t-36 44t-32 40zM1588 1352 q4 28 8 78t4 74q20 -20 52 -60t48 -56q-48 -36 -112 -36zM1608 1576q8 104 12 160q64 -12 108 -56q-20 -20 -60 -54t-60 -50zM1624 1524l156 -12q-12 -64 -56 -108q-16 20 -50 60t-50 60zM1628 1552q20 20 60 54t60 50q36 -56 36 -116z" />
<glyph unicode="P" d="M176 1448q-1 7 -1 14q0 36 37 50q16 8 52 8h1220q52 0 68 -28q14 -18 14 -36q0 -22 -22 -44q-80 -88 -236 -268t-236 -268q-32 -40 -60 -48q-48 -28 -84 -28v-344q0 -68 60 -116q24 -20 72 -58t72 -58q24 -16 24 -28q0 -16 -28 -16h-452q-28 0 -28 16q0 12 16 28 q64 56 100 84q4 4 28 24t32 32q32 56 32 96v340q-28 0 -68 16q-40 12 -72 44q-84 92 -258 276t-262 276q-12 12 -20 36zM260 1448h1220q-76 -88 -230 -264t-230 -264q-36 -36 -92 -48h-76q-52 8 -84 40q-332 348 -508 536zM456 1380q8 12 36 12h780q32 0 44 -12 q8 -24 -16 -40q-48 -56 -106 -116t-126 -134t-108 -114q-16 -24 -40 -40q-21 -12 -39 -12q-26 0 -45 24q-124 132 -364 388q-24 24 -16 44zM800 1080q-4 14 -4 28q0 23 12 48q24 32 44 40q22 10 43 10q36 0 69 -30q72 36 104 72q32 40 32 64t28 24t20 -28q-4 -60 -72 -120 q-56 -40 -88 -52q5 -17 5 -33q0 -31 -21 -55q-28 -36 -64 -40q-32 0 -48 4q-48 20 -60 68zM1308 1564q0 52 28 108q24 48 84 100q68 52 144 56q104 0 164 -32q68 -44 104 -104q49 -75 49 -148q0 -76 -53 -152q-44 -68 -116 -104q-51 -27 -111 -27q-20 0 -41 3q-16 8 -16 24 q0 20 20 20h56q72 8 128 60t72 124q7 30 7 58q0 51 -23 98q-44 80 -104 104q-50 27 -106 27q-18 0 -38 -3q-72 -4 -132 -64q-60 -56 -68 -136q0 -20 -8 -28q-20 -8 -28 -4q-16 8 -12 20zM1400 1572q8 64 52 108q16 -20 52 -60t52 -60zM1476 1700q48 36 116 36 q-8 -104 -16 -160l-32 40t-36 44t-32 40zM1588 1352q4 28 8 78t4 74q20 -20 52 -60t48 -56q-48 -36 -112 -36zM1608 1576q8 104 12 160q64 -12 108 -56q-20 -20 -60 -54t-60 -50zM1624 1524l156 -12q-12 -64 -56 -108q-16 20 -50 60t-50 60zM1628 1552q20 20 60 54t60 50 q36 -56 36 -116z" />
<glyph unicode="Q" d="M176 1448q-1 7 -1 14q0 36 37 50q16 8 48 8h1216q44 0 60 -12q29 -16 29 -49q0 -7 -1 -15q-8 -24 -24 -36q-80 -92 -238 -272t-238 -268q-28 -40 -100 -60q-24 -8 -36 -8v-344q0 -64 48 -104q24 -24 76 -66t80 -62q24 -16 24 -28q0 -16 -28 -16h-452q-28 0 -28 16 q0 12 16 28q24 20 70 60t70 60q20 20 32 44q20 32 20 68v344q-28 0 -68 16q-40 12 -72 44q-84 92 -258 276t-262 276q-12 12 -20 36zM260 1448h1220q-152 -176 -464 -528q-28 -36 -88 -48h-76q-60 8 -96 48q-80 88 -248 264t-248 264zM456 1360q-8 12 4 24q12 8 32 8h768 q28 0 40 -4q16 0 16 -16q4 -8 -16 -36q-60 -60 -176 -182t-172 -186q-16 -20 -36 -32q-19 -13 -36 -13q-23 0 -44 25l-360 384q-12 12 -20 28zM800 1068q-5 12 -5 25q0 18 9 39q16 44 56 56q20 7 38 7q37 0 66 -27q64 28 100 64t36 72q4 16 20 20t20 -8q16 -12 4 -32 q-12 -52 -60 -96q-40 -40 -96 -64q4 -16 4 -31q0 -29 -16 -53q-8 -12 -32 -28q-23 -16 -49 -16q-19 0 -39 8q-44 20 -56 64zM1308 1564q0 52 28 108q24 48 84 100q68 52 144 56q104 0 164 -32q68 -44 104 -104q41 -65 41 -142q0 -13 -1 -26q-8 -92 -64 -160 q-52 -64 -128 -88q-39 -18 -85 -18q-15 0 -31 2q-28 8 -20 28t16 20h60q72 8 128 60t72 124q7 30 7 58q0 52 -23 98q-32 64 -92 100q-56 32 -124 32q-84 0 -148 -52l-44 -44q-32 -44 -40 -112q0 -16 -8 -24q-16 -16 -32 0q-12 12 -8 16zM1400 1572q8 64 52 108 q16 -20 52 -60t52 -60zM1476 1700q48 36 116 36q-8 -104 -16 -160l-32 40t-36 44t-32 40zM1588 1352q4 28 8 78t4 74q20 -20 52 -60t48 -56q-48 -36 -112 -36zM1608 1576q8 104 12 160q64 -12 108 -56q-80 -72 -120 -104zM1624 1524l156 -12q-12 -64 -56 -108q-16 20 -50 60 t-50 60zM1628 1552q20 20 60 54t60 50q36 -56 36 -116z" />
<glyph unicode="R" d="M176 1444q-4 12 -4 22q0 33 40 46q16 8 60 8h1004h212q44 0 68 -28q10 -18 10 -34q0 -24 -22 -46q-80 -88 -236 -268t-236 -268q-20 -32 -68 -52q-48 -24 -76 -24v-344q0 -64 48 -104q24 -24 76 -66t80 -62q24 -16 24 -28q0 -16 -28 -16h-452q-28 0 -28 16q0 12 16 28 q24 20 70 60t70 60q20 20 32 44q20 32 20 68v344q-28 0 -68 16q-40 12 -72 44q-352 376 -512 544q-24 24 -28 40zM260 1448h1224q-312 -352 -464 -528q-36 -36 -92 -48h-76q-40 8 -72 28l-28 28q-164 176 -492 520zM456 1380q8 12 36 12h780q32 0 44 -12q8 -24 -16 -40 l-336 -360l-44 -44q-20 -13 -38 -13q-25 0 -46 25q-60 64 -182 194t-182 194q-24 24 -16 44zM800 1052q-4 14 -4 28q0 23 12 48q20 32 52 44q20 7 38 7q36 0 66 -27q68 28 100 68q36 28 36 68q0 24 28 24t20 -32q-4 -56 -76 -120q-60 -40 -84 -48q4 -15 4 -29q0 -29 -16 -59 q-28 -32 -64 -40q-16 -4 -56 4q-44 20 -56 64zM1308 1568q8 80 48 140q16 20 52 56q72 56 156 64q104 0 164 -32q68 -44 104 -104q41 -65 41 -142q0 -13 -1 -26q-8 -92 -64 -160q-52 -64 -128 -88q-39 -18 -85 -18q-15 0 -31 2q-12 4 -16 16q-8 8 -2 20t18 12q44 0 64 4 q76 12 136 72q52 56 62 134q2 16 2 31q0 60 -32 111q-40 64 -92 92q-51 27 -109 27q-19 0 -39 -3q-56 -4 -104 -40q-64 -48 -84 -112q-12 -32 -12 -60q-4 -16 -18 -20t-22 4q-16 8 -8 20zM1400 1572q8 64 52 108q16 -20 52 -60t52 -60zM1476 1700q48 36 116 36 q-8 -104 -16 -160l-32 40t-36 44t-32 40zM1588 1352q4 28 8 78t4 74q20 -20 52 -60t48 -56q-48 -36 -112 -36zM1608 1576q8 104 12 160q64 -12 108 -56q-20 -20 -60 -54t-60 -50zM1624 1524l156 -12q-12 -64 -56 -108q-16 20 -50 60t-50 60zM1628 1552q20 20 60 54t60 50 q36 -56 36 -116z" />
<glyph unicode="S" d="M176 1448q-4 16 6 36t30 28q16 8 48 8h1216q44 0 60 -12q29 -14 29 -43q0 -11 -5 -25q-4 -8 -36 -52q-148 -168 -436 -496q-8 -4 -18 -16t-14 -20q-40 -32 -80 -44q-24 -12 -48 -12v-324q-1 -9 -1 -18q0 -78 65 -118q24 -20 70 -58t70 -58q24 -12 24 -28t-28 -16h-452 q-24 0 -28 12v16l24 24q88 72 132 112q16 12 32 44q20 40 20 72v340q-24 0 -72 16q-48 24 -68 44q-352 376 -512 544q-24 24 -28 44zM260 1448h1220q-152 -176 -464 -528q-28 -36 -88 -48h-76q-60 8 -96 48q-80 88 -248 264t-248 264zM456 1380q8 12 36 12h780q32 0 44 -12 q8 -24 -16 -40l-336 -360l-44 -44q-20 -13 -38 -13q-25 0 -46 25q-60 64 -182 194t-182 194q-24 24 -16 44zM804 1032q-10 20 -10 38t10 34q12 40 44 52q26 13 49 13q36 0 67 -29q56 24 100 68q36 28 36 68q0 24 24 24q32 0 24 -28q-4 -60 -64 -112q-68 -52 -96 -60 q4 -15 4 -30q0 -25 -12 -50q-12 -20 -32 -32q-23 -17 -50 -17q-24 0 -50 13q-32 20 -44 48zM1308 1584q12 100 76 156q84 84 180 88q104 0 164 -32q68 -44 104 -104q41 -65 41 -142q0 -13 -1 -26q-8 -92 -64 -160q-52 -64 -128 -88q-39 -18 -85 -18q-15 0 -31 2 q-24 8 -20 32q8 16 20 16h56q72 8 128 60t72 124q7 30 7 58q0 51 -23 98q-44 80 -104 104q-50 27 -106 27q-18 0 -38 -3q-72 -4 -132 -64q-60 -56 -68 -136q0 -20 -8 -28q-4 -8 -18 -6t-18 10q-4 4 -4 32zM1400 1572q8 64 52 108q16 -20 52 -60t52 -60zM1476 1700 q48 36 116 36q-8 -104 -16 -160l-32 40t-36 44t-32 40zM1588 1352q4 28 8 78t4 74q20 -20 52 -60t48 -56q-48 -36 -112 -36zM1608 1576q8 104 12 160q64 -12 108 -56q-20 -20 -60 -54t-60 -50zM1624 1524l156 -12q-12 -64 -56 -108q-16 20 -50 60t-50 60zM1628 1552 q20 20 60 54t60 50q36 -56 36 -116z" />
<glyph unicode="T" d="M176 1448q-1 7 -1 14q0 36 37 50q16 8 48 8h1216q44 0 60 -12q29 -16 29 -49q0 -7 -1 -15q-8 -24 -24 -36q-80 -92 -238 -272t-238 -268q-16 -20 -56 -44q-56 -24 -80 -24v-344q0 -64 48 -104q24 -24 76 -66t80 -62q24 -16 24 -28q0 -16 -28 -16h-452q-28 0 -28 16 q0 12 16 28q24 20 70 60t70 60q20 20 32 44q20 32 20 64v348q-28 0 -68 16q-40 12 -72 44q-84 92 -258 276t-262 276q-12 12 -20 36zM260 1448h1220q-76 -88 -230 -264t-230 -264q-36 -36 -92 -48h-76q-56 8 -92 48q-84 88 -250 264t-250 264zM456 1380q8 12 36 12h780 q32 0 44 -12q8 -24 -16 -40q-56 -64 -170 -186t-170 -182q-8 -4 -20 -18t-20 -18q-21 -12 -39 -12q-26 0 -45 24q-124 132 -364 388q-24 24 -16 44zM800 1048q-4 15 -4 30q0 25 12 50q28 28 36 32q26 17 52 17l68 -29q64 28 104 68q32 40 32 68q0 16 18 20t26 -8q4 -4 4 -32 q-16 -56 -68 -100q-44 -40 -92 -56q4 -16 4 -30q0 -33 -20 -58q-28 -36 -64 -40q-28 -8 -48 4q-48 20 -60 64zM1308 1568q8 80 48 140q16 20 52 56q72 56 156 64q104 0 164 -32q68 -44 104 -104q41 -65 41 -142q0 -13 -1 -26q-8 -92 -64 -160q-52 -64 -128 -88 q-39 -18 -85 -18q-15 0 -31 2q-12 4 -16 16q-8 8 -2 20t18 12q44 0 68 4q72 12 132 72q52 56 62 134q2 16 2 31q0 60 -32 111q-40 64 -92 92q-51 27 -109 27q-19 0 -39 -3q-56 -4 -104 -40q-68 -48 -84 -112q-12 -32 -12 -60q0 -16 -16 -20t-24 4q-16 8 -8 20zM1400 1572 q8 64 52 108q16 -20 52 -60t52 -60zM1476 1700q48 36 116 36q-8 -104 -16 -160l-32 40t-36 44t-32 40zM1588 1352q4 28 8 78t4 74q20 -20 52 -60t48 -56q-48 -36 -112 -36zM1608 1576q8 104 12 160q64 -12 108 -56q-80 -72 -120 -104zM1624 1524l156 -12q-12 -64 -56 -108 q-16 20 -50 60t-50 60zM1628 1552q20 20 60 54t60 50q36 -56 36 -116z" />
<glyph unicode="U" d="M176 1448q-1 7 -1 14q0 36 37 50q16 8 48 8h1216q40 0 56 -8q34 -20 34 -48q0 -12 -6 -24q0 -8 -32 -48q-152 -172 -464 -524q-28 -32 -88 -56q-24 -12 -48 -12v-324q-1 -9 -1 -18q0 -78 65 -118q20 -16 66 -54t70 -58q8 -4 24 -20q4 -12 0 -16q-4 -12 -24 -12h-452 q-28 0 -28 16q0 12 16 28q24 20 70 60t70 60q20 20 32 44q20 32 20 64v348q-28 0 -68 16q-40 12 -72 44q-84 92 -258 276t-262 276q-12 12 -20 36zM260 1448h1220q-76 -88 -230 -264t-230 -264q-36 -36 -92 -48h-76q-56 8 -92 48q-84 88 -250 264t-250 264zM456 1360 q-8 12 4 24q12 8 32 8h780q32 0 44 -12q8 -24 -16 -40q-120 -132 -360 -388q-24 -24 -40 -24q-24 -8 -40 4q-12 4 -28 20q-60 64 -178 190t-174 186q-16 12 -24 32zM800 1056q-8 32 0 60q20 48 64 60q17 7 34 7q34 0 66 -27q64 28 104 68q32 32 32 68q0 28 28 20 q20 0 20 -24q-4 -60 -64 -112q-52 -44 -96 -64q4 -16 4 -31q0 -29 -16 -53q-8 -12 -32 -28q-23 -16 -49 -16q-19 0 -39 8q-44 20 -56 64zM1308 1568q8 80 48 140q16 20 52 56q72 56 156 64q104 0 164 -32q68 -44 104 -104q41 -65 41 -142q0 -13 -1 -26q-8 -92 -64 -160 q-52 -64 -128 -88q-39 -18 -85 -18q-15 0 -31 2q-12 4 -16 16q-8 8 -2 20t18 12q44 0 68 4q72 12 132 72q52 56 62 134q2 16 2 31q0 60 -32 111q-40 64 -92 92q-51 27 -109 27q-19 0 -39 -3q-56 -4 -104 -40q-64 -48 -84 -108q-12 -28 -12 -64q-4 -16 -18 -20t-22 4 q-16 8 -8 20zM1400 1572q8 64 52 108q16 -20 52 -60t52 -60zM1476 1700q48 36 116 36q-8 -104 -16 -160l-32 40t-36 44t-32 40zM1588 1352q4 28 8 78t4 74q20 -20 52 -60t48 -56q-48 -36 -112 -36zM1608 1576q8 104 12 160q64 -12 108 -56q-80 -72 -120 -104zM1624 1524 l156 -12q-12 -64 -56 -108q-16 20 -50 60t-50 60zM1628 1552q20 20 60 54t60 50q36 -56 36 -116z" />
<glyph unicode="V" d="M176 1448q-1 7 -1 14q0 36 37 50q16 8 48 8h1220q48 0 68 -24q20 -16 20 -36t-20 -44q-64 -72 -92 -108q-60 -68 -182 -204t-182 -204q-48 -56 -68 -68q-52 -28 -96 -32v-324q-1 -9 -1 -18q0 -78 65 -118q112 -92 152 -124q12 -12 12 -24q-4 -12 -28 -12h-452 q-24 0 -28 12q-8 8 4 16q4 8 20 24q88 72 132 112q20 20 32 44q20 32 20 68v344q-28 0 -68 16q-40 12 -72 44q-84 92 -258 276t-262 276q-12 12 -20 36zM260 1448h1220q-152 -176 -464 -528q-24 -32 -72 -44q-16 -4 -56 -4q-36 0 -52 4q-32 4 -72 36q-84 88 -252 266 t-252 270zM456 1360q-8 12 4 24q12 8 32 8h780q32 0 44 -12q8 -24 -16 -40l-336 -360l-44 -44q-20 -13 -38 -13q-25 0 -46 25l-360 384q-12 12 -20 28zM800 1064q-5 10 -5 24q0 19 9 44q20 40 56 52q19 6 36 6q38 0 68 -30q80 44 104 72q32 40 32 68q0 16 18 20t26 -8 q4 -4 4 -32q-12 -48 -68 -104q-64 -44 -92 -56q5 -17 5 -33q0 -31 -21 -55q-28 -36 -64 -40q-32 0 -48 8q-48 20 -60 64zM1308 1568q8 80 48 140q16 20 52 56q72 56 156 64q104 0 164 -32q68 -44 104 -104q49 -75 49 -148q0 -76 -53 -152q-44 -68 -116 -104 q-51 -27 -111 -27q-20 0 -41 3q-24 8 -12 36q4 8 40 8h10q68 0 142 52q56 52 80 120q7 31 7 61q0 54 -23 103q-32 68 -92 104q-56 32 -124 32q-72 0 -136 -44q-64 -48 -84 -112q-12 -32 -12 -60q-4 -16 -18 -20t-22 4q-16 8 -8 20zM1400 1572q8 64 52 108q16 -20 52 -60 t52 -60zM1476 1700q48 36 116 36q-8 -104 -16 -160l-32 40t-36 44t-32 40zM1588 1352q4 28 8 78t4 74q20 -20 52 -60t48 -56q-48 -36 -112 -36zM1608 1576q8 104 12 160q64 -12 108 -56q-20 -20 -60 -54t-60 -50zM1624 1524l156 -12q-12 -64 -56 -108q-16 20 -50 60t-50 60z M1628 1552q20 20 60 54t60 50q36 -56 36 -116z" />
<glyph unicode="W" d="M176 1448q-1 7 -1 14q0 36 37 50q16 8 48 8h1220q48 0 68 -24q20 -16 20 -36t-20 -44q-64 -72 -92 -108l-360 -408q-64 -64 -72 -68q-52 -28 -96 -32v-344q0 -68 60 -116q36 -28 140 -112q24 -16 28 -32q0 -16 -28 -16h-452q-24 0 -28 12v16l24 24q88 72 128 108 q20 16 32 40q24 36 24 80v340q-24 0 -72 16q-48 24 -68 44q-84 92 -258 276t-262 276q-12 12 -20 36zM260 1448h1220q-76 -88 -230 -264t-230 -264q-36 -36 -92 -48h-76q-48 4 -88 40q-84 88 -252 266t-252 270zM456 1360q-8 16 4 24t32 8h780q32 0 40 -12q8 -8 0 -24 q0 -8 -24 -28q-176 -192 -352 -376q-20 -28 -48 -24q-28 -4 -56 24q-60 64 -178 190t-174 186q-20 20 -24 32zM800 1132q16 44 60 60q19 6 36 6q38 0 68 -30q72 40 104 72t32 64t28 24q28 0 20 -24q-4 -64 -64 -116q-68 -52 -96 -60q4 -14 4 -28q0 -31 -20 -56 q-12 -16 -28 -28q-23 -17 -49 -17q-23 0 -47 13q-32 20 -44 48q-9 18 -9 39q0 16 5 33zM1308 1568q0 60 32 116q28 48 80 88q64 48 144 56q104 0 164 -32q68 -44 104 -104q49 -75 49 -148q0 -76 -53 -152q-44 -68 -116 -104q-51 -27 -111 -27q-20 0 -41 3q-12 0 -12 12 q-8 8 -2 20t18 12h56q72 8 128 60t72 124q7 30 7 58q0 51 -23 98q-32 64 -92 100q-56 32 -124 32q-96 0 -164 -68q-52 -44 -64 -116q0 -4 -4 -16t-4 -20q0 -16 -16 -18t-20 6q-16 8 -8 20zM1400 1572q8 64 52 108q16 -20 52 -60t52 -60zM1476 1700q48 36 116 36 q-8 -104 -16 -160l-32 40t-36 44t-32 40zM1588 1352q4 28 8 78t4 74q20 -20 52 -60t48 -56q-48 -36 -112 -36zM1608 1576q8 104 12 160q64 -12 108 -56q-20 -20 -60 -54t-60 -50zM1624 1524l156 -12q-12 -64 -56 -108q-16 20 -50 60t-50 60zM1628 1552q20 20 60 54t60 50 q36 -56 36 -116z" />
<glyph unicode="X" d="M176 1448q-1 7 -1 14q0 36 37 50q16 8 52 8h1220q52 0 68 -28q14 -18 14 -36q0 -22 -22 -44q-80 -88 -236 -268t-236 -268q-32 -40 -60 -48q-48 -28 -84 -28v-344q0 -68 60 -116q24 -20 72 -58t72 -58q24 -16 24 -28q0 -16 -28 -16h-452q-28 0 -28 16q0 12 16 28 q64 56 100 84q4 4 28 24t32 32q32 56 32 96v340q-28 0 -68 16q-40 12 -72 44q-84 92 -258 276t-262 276q-12 12 -20 36zM260 1448h1220q-76 -88 -230 -264t-230 -264q-36 -36 -92 -48h-76q-52 8 -84 40q-332 348 -508 536zM456 1380q8 12 36 12h780q32 0 44 -12 q8 -24 -16 -40q-48 -56 -106 -116t-126 -134t-108 -114q-16 -24 -40 -40q-21 -12 -39 -12q-26 0 -45 24q-124 132 -364 388q-24 24 -16 44zM800 1080q-4 14 -4 28q0 23 12 48q24 32 44 40q22 10 43 10q36 0 69 -30q72 36 104 72q32 40 32 64t28 24t20 -28q-4 -60 -72 -120 q-56 -40 -88 -52q5 -17 5 -33q0 -31 -21 -55q-28 -36 -64 -40q-32 0 -48 4q-48 20 -60 68zM1308 1564q0 52 28 108q24 48 84 100q68 52 144 56q104 0 164 -32q68 -44 104 -104q49 -75 49 -148q0 -76 -53 -152q-44 -68 -116 -104q-51 -27 -111 -27q-20 0 -41 3q-16 8 -16 24 q0 20 20 20h56q72 8 128 60t72 124q7 30 7 58q0 51 -23 98q-44 80 -104 104q-50 27 -106 27q-18 0 -38 -3q-72 -4 -132 -64q-60 -56 -68 -136q0 -20 -8 -28q-20 -8 -28 -4q-16 8 -12 20zM1400 1572q8 64 52 108q16 -20 52 -60t52 -60zM1476 1700q48 36 116 36 q-8 -104 -16 -160l-32 40t-36 44t-32 40zM1588 1352q4 28 8 78t4 74q20 -20 52 -60t48 -56q-48 -36 -112 -36zM1608 1576q8 104 12 160q64 -12 108 -56q-20 -20 -60 -54t-60 -50zM1624 1524l156 -12q-12 -64 -56 -108q-16 20 -50 60t-50 60zM1628 1552q20 20 60 54t60 50 q36 -56 36 -116z" />
<glyph unicode="Y" d="M176 1448q-1 7 -1 14q0 36 37 50q16 8 48 8h1216q44 0 60 -12q29 -14 29 -43q0 -11 -5 -25q-4 -8 -36 -52q-288 -328 -432 -488q-48 -56 -68 -68q-52 -28 -96 -32v-344q0 -64 48 -104q24 -24 76 -66t80 -62q24 -16 24 -28q0 -16 -28 -16h-452q-24 0 -28 12v16l24 24 q88 72 132 112q16 12 32 44q20 40 20 72v340q-32 0 -72 16q-44 16 -76 56q-332 348 -508 536q-20 20 -24 40zM260 1448h1220q-152 -176 -464 -528q-24 -32 -72 -44q-16 -4 -56 -4q-36 0 -52 4q-32 4 -72 36q-84 88 -252 266t-252 270zM456 1380q8 12 36 12h780q32 0 44 -12 q8 -24 -16 -40l-336 -360l-44 -44q-20 -13 -38 -13q-25 0 -46 25q-60 64 -182 194t-182 194q-24 24 -16 44zM800 1080q-5 17 -5 32q0 20 9 36q12 40 44 52q26 13 49 13q36 0 67 -29q52 24 104 68q32 40 32 68q0 24 28 24t20 -28q-4 -60 -64 -112q-68 -52 -96 -60 q4 -15 4 -30q0 -25 -12 -50q-12 -20 -32 -32q-25 -18 -53 -18q-21 0 -43 10q-40 20 -52 56zM1308 1568q8 80 48 140q16 20 52 56q72 56 156 64q104 0 164 -32q68 -44 104 -104q41 -65 41 -142q0 -13 -1 -26q-8 -92 -64 -160q-52 -64 -128 -88q-39 -18 -85 -18q-15 0 -31 2 q-12 4 -16 16q-8 8 -2 20t18 12q44 0 68 4q72 12 132 72q52 56 62 134q2 16 2 31q0 60 -32 111q-40 64 -92 92q-51 27 -109 27q-19 0 -39 -3q-56 -4 -104 -40q-64 -48 -84 -112q-12 -32 -12 -60q-4 -16 -18 -20t-22 4q-16 8 -8 20zM1400 1572q8 64 52 108q16 -20 52 -60 t52 -60zM1476 1700q48 36 116 36q-8 -104 -16 -160l-32 40t-36 44t-32 40zM1588 1352q4 28 8 78t4 74q20 -20 52 -60t48 -56q-48 -36 -112 -36zM1608 1576q8 104 12 160q64 -12 108 -56q-80 -72 -120 -104zM1624 1524l156 -12q-12 -64 -56 -108q-16 20 -50 60t-50 60z M1628 1552q20 20 60 54t60 50q36 -56 36 -116z" />
<glyph unicode="Z" d="M176 1448q-1 7 -1 14q0 36 37 50q16 8 48 8h1220q48 0 68 -24q20 -16 20 -36t-20 -44q-64 -72 -92 -108q-60 -68 -182 -204t-182 -204q-48 -56 -68 -68q-52 -28 -96 -32v-344q0 -64 48 -104q52 -40 148 -120q32 -32 32 -36q0 -16 -28 -16h-452q-24 0 -28 12q-8 8 4 16 q4 8 20 24q88 72 132 112q16 12 32 44q20 32 20 68v344q-28 0 -68 16q-40 12 -72 44q-84 92 -258 276t-262 276q-12 12 -20 36zM260 1448h1220q-152 -176 -464 -528q-28 -36 -84 -48h-60q-68 0 -104 40q-332 348 -508 536zM456 1380q8 12 36 12h780q32 0 40 -12q8 -8 0 -24 q0 -8 -24 -28q-176 -192 -352 -376q-20 -28 -48 -24q-28 -4 -56 24l-360 384q-24 24 -16 44zM800 1092q-4 10 -4 26t4 38q16 40 60 56q20 7 38 7q36 0 66 -27q64 28 104 68q32 40 32 68q0 16 20 24q28 0 28 -24q0 -68 -76 -128q-60 -40 -84 -48q4 -16 4 -30q0 -33 -20 -58 q-28 -36 -64 -40q-32 0 -48 4q-48 20 -60 64zM1308 1564q0 52 28 108q24 48 84 100q68 52 144 56q104 0 164 -32q68 -44 104 -104q49 -75 49 -148q0 -76 -53 -152q-44 -68 -116 -104q-51 -27 -111 -27q-20 0 -41 3q-24 8 -16 28q8 16 20 16h56q72 8 128 60t72 124q7 30 7 58 q0 51 -23 98q-44 80 -104 104q-50 27 -106 27q-18 0 -38 -3q-72 -4 -132 -64q-60 -56 -68 -136q0 -20 -8 -28q-20 -8 -28 -4q-16 8 -12 20zM1400 1572q8 64 52 108q16 -20 52 -60t52 -60zM1476 1700q48 36 116 36q-8 -104 -16 -160l-32 40t-36 44t-32 40zM1588 1352 q4 28 8 78t4 74q20 -20 52 -60t48 -56q-48 -36 -112 -36zM1608 1576q8 104 12 160q64 -12 108 -56q-20 -20 -60 -54t-60 -50zM1624 1524l156 -12q-12 -64 -56 -108q-16 20 -50 60t-50 60zM1628 1552q20 20 60 54t60 50q36 -56 36 -116z" />
<glyph unicode="a" d="M176 1444q-4 12 -4 22q0 33 40 46q16 8 48 8h1220q48 0 68 -24q20 -16 20 -36t-20 -44l-96 -108q-60 -68 -182 -208t-186 -212l-40 -40q-24 -20 -64 -36q-8 0 -26 -6t-26 -6v-324q-1 -9 -1 -18q0 -78 65 -118l132 -108q28 -20 32 -32q0 -20 -24 -20h-456q-28 0 -28 16 q0 12 16 28q24 20 70 60t70 60q16 12 32 44q20 32 20 64v348q-28 0 -68 16q-40 12 -72 44q-84 92 -252 268t-252 268q-28 28 -36 48zM260 1448h1224q-312 -352 -464 -528q-36 -36 -92 -48h-76q-56 8 -84 40q-332 348 -508 536zM824 960h124q-40 -32 -48 -32q-36 0 -40 4 q-12 4 -36 28zM1308 1568q8 80 48 140q16 20 52 56q72 56 156 64q104 0 164 -32q68 -44 104 -104q41 -65 41 -142q0 -13 -1 -26q-8 -92 -64 -160q-52 -64 -128 -88q-39 -18 -85 -18q-15 0 -31 2q-24 8 -20 32q8 16 20 16q52 0 64 4q76 12 136 72q52 56 62 134q2 16 2 31 q0 60 -32 111q-40 64 -92 92q-51 27 -111 27q-20 0 -41 -3q-76 -8 -128 -64q-60 -56 -68 -148q-4 -16 -18 -20t-22 4q-16 8 -8 20zM1400 1572q8 64 52 108q16 -20 52 -60t52 -60zM1476 1700q48 36 116 36q-8 -104 -16 -160l-32 40t-36 44t-32 40zM1588 1352q4 28 8 78t4 74 q20 -20 52 -60t48 -56q-48 -36 -112 -36zM1608 1576q8 104 12 160q64 -12 108 -56q-80 -72 -120 -104zM1624 1524l156 -12q-12 -64 -56 -108q-16 20 -50 60t-50 60zM1628 1552q20 20 60 54t60 50q36 -56 36 -116z" />
<glyph unicode="b" d="M176 1448q-1 7 -1 14q0 36 37 50q16 8 48 8h1220q48 0 68 -24q20 -16 20 -36t-20 -44q-56 -64 -88 -100q-248 -280 -372 -424q-8 -4 -18 -16t-14 -20q-40 -32 -80 -44q-24 -12 -48 -12v-344q0 -64 48 -104q56 -48 168 -136q12 -12 12 -24q-4 -12 -28 -12h-452 q-24 0 -28 12q-8 8 4 16q4 8 20 24q88 72 132 112q20 20 32 44q20 32 20 68v336v8q-28 0 -68 16q-52 20 -80 52q-84 88 -254 270t-258 274q-12 12 -20 36zM260 1448h1220q-152 -176 -464 -528q-28 -36 -84 -48h-80q-56 8 -96 52q-80 88 -248 262t-248 262zM796 992h16h136 q16 0 24 -4q-48 -48 -76 -60q-12 -4 -36 8q-48 32 -64 56zM1308 1568q0 64 32 120q28 44 80 84q64 48 144 56q104 0 164 -32q68 -44 104 -104q41 -65 41 -142q0 -13 -1 -26q-8 -92 -64 -160q-52 -64 -128 -88q-39 -18 -85 -18q-15 0 -31 2q-24 8 -20 32q8 16 20 16h56 q72 8 128 60t72 124q7 30 7 58q0 51 -23 98q-44 80 -104 104q-50 27 -106 27q-18 0 -38 -3q-72 -4 -132 -64q-60 -56 -68 -136q0 -20 -8 -28q-16 -16 -32 0q-16 8 -8 20zM1400 1572q8 64 52 108q16 -20 52 -60t52 -60zM1476 1700q48 36 116 36q-8 -104 -16 -160l-32 40 t-36 44t-32 40zM1588 1352q4 28 8 78t4 74q20 -20 52 -60t48 -56q-48 -36 -112 -36zM1608 1576q8 104 12 160q64 -12 108 -56q-80 -72 -120 -104zM1624 1524l156 -12q-12 -64 -56 -108q-16 20 -50 60t-50 60zM1628 1552q20 20 60 54t60 50q36 -56 36 -116z" />
<glyph unicode="c" d="M176 1448q-1 7 -1 14q0 36 37 50q16 8 48 8h1184h64q40 -8 48 -32q8 -12 8 -44q0 -8 -24 -40q-16 -20 -198 -226t-278 -310q-16 -28 -68 -48q-32 -20 -68 -20v-344q0 -64 48 -104q56 -48 168 -136q12 -12 12 -24q-4 -12 -28 -12h-452q-28 0 -28 16q0 12 16 28 q24 20 70 60t70 60q28 20 40 60q12 24 12 56v340q-28 0 -68 16q-40 12 -72 44q-84 92 -258 276t-262 276q-12 12 -20 36zM260 1448h1220q-152 -176 -464 -528q-28 -36 -84 -48h-60q-68 0 -108 40q-84 88 -252 266t-252 270zM772 1024h28h176q16 0 16 -8q4 -4 -4 -12 q-8 -4 -8 -8q-40 -44 -84 -68q-12 -8 -24 4q-32 20 -88 68zM1308 1568q8 80 48 140q16 20 52 56q72 56 156 64q104 0 164 -32q68 -44 104 -104q49 -75 49 -149q0 -77 -53 -155q-56 -80 -148 -112q-39 -18 -85 -18q-15 0 -31 2q-24 8 -20 32q8 16 20 16h56q72 8 128 60 t72 124q7 30 7 58q0 51 -23 98q-32 64 -92 100q-48 32 -128 32q-92 0 -160 -68q-60 -56 -68 -144q0 -20 -16 -24q-12 -4 -24 4t-8 20zM1400 1572q8 64 52 108q16 -20 52 -60t52 -60zM1476 1700q48 36 116 36q-8 -104 -16 -160l-32 40t-36 44t-32 40zM1588 1352q4 28 8 78 t4 74q20 -20 52 -60t48 -56q-48 -36 -112 -36zM1608 1576q8 104 12 160q64 -12 108 -56q-20 -20 -60 -54t-60 -50zM1624 1524l156 -12q-12 -64 -56 -108q-16 20 -50 60t-50 60zM1628 1552q20 20 60 54t60 50q36 -56 36 -116z" />
<glyph unicode="d" d="M176 1448q-1 7 -1 14q0 36 37 50q16 8 48 8h1220q52 0 72 -28q14 -18 14 -36q0 -22 -22 -44q-72 -88 -224 -258t-224 -254q-64 -64 -72 -68q-52 -28 -96 -32v-344q0 -64 48 -104q28 -20 84 -66t84 -70q12 -12 12 -24q-4 -12 -28 -12h-452q-28 0 -28 16q0 12 16 28 q24 20 68 58t68 58q16 16 24 28q32 48 32 88v344q-28 0 -68 16q-40 12 -72 44q-84 92 -258 276t-262 276q-12 12 -20 36zM260 1448h1220q-152 -176 -464 -528q-16 -20 -52 -36q-20 -12 -44 -12h-72q-60 8 -88 48q-84 88 -250 264t-250 264zM744 1048q16 4 48 4h208 q16 0 16 -4q4 -8 -4 -16q-68 -76 -112 -100q-12 -12 -28 0q-52 32 -120 108zM1308 1568q0 48 28 104q24 48 84 100q68 52 144 56q104 0 164 -32q68 -44 104 -104q41 -65 41 -142q0 -13 -1 -26q-8 -92 -64 -160q-52 -64 -128 -88q-39 -18 -85 -18q-15 0 -31 2q-24 8 -20 32 q8 16 20 16h56q72 8 128 60t72 124q7 30 7 58q0 51 -23 98q-44 80 -104 104q-50 27 -106 27q-18 0 -38 -3q-72 -4 -132 -64q-60 -56 -68 -140q0 -24 -16 -28q-12 -4 -24 4t-8 20zM1400 1572q8 64 52 108q16 -20 52 -60t52 -60zM1476 1700q48 36 116 36q-8 -104 -16 -160 l-32 40t-36 44t-32 40zM1588 1352q4 28 8 78t4 74q20 -20 52 -60t48 -56q-48 -36 -112 -36zM1608 1576q8 104 12 160q64 -12 108 -56q-80 -72 -120 -104zM1624 1524l156 -12q-12 -64 -56 -108q-16 20 -50 60t-50 60zM1628 1552q20 20 60 54t60 50q36 -56 36 -116z" />
<glyph unicode="e" d="M176 1448q-1 7 -1 14q0 36 37 50q16 8 48 8h1220q52 0 72 -28q14 -18 14 -36q0 -22 -22 -44q-76 -88 -226 -260t-226 -256l-36 -36q-16 -20 -80 -48q-24 -12 -48 -12v-344q0 -68 60 -116q24 -20 72 -58t72 -58q24 -12 24 -28t-28 -16h-452q-28 0 -28 16q0 12 16 28 q24 20 70 60t70 60q16 12 32 44q20 40 20 72v340q-32 0 -72 16q-44 16 -76 56q-84 92 -254 272t-258 268q-12 12 -20 36zM260 1448h1220q-76 -88 -230 -264t-230 -264q-36 -36 -92 -48h-76q-56 8 -92 48q-84 88 -250 264t-250 264zM720 1076q8 4 24 4h264h28q8 -8 4 -16 q-4 -4 -14 -16t-14 -20q-48 -52 -108 -96q-12 -12 -32 -4q-44 32 -120 108q0 4 -14 18t-18 22zM1308 1564q0 52 28 108q24 48 84 100q68 52 144 56q104 0 164 -32q68 -44 104 -104q41 -65 41 -142q0 -13 -1 -26q-8 -92 -64 -160q-52 -64 -128 -88q-39 -18 -85 -18 q-15 0 -31 2q-24 8 -20 32q8 16 20 16h56q72 8 128 60t72 124q7 30 7 58q0 51 -23 98q-44 80 -104 104q-50 27 -106 27q-18 0 -38 -3q-72 -4 -132 -64q-60 -56 -68 -136q0 -20 -8 -28q-12 -12 -32 -4q-8 16 -8 20zM1400 1572q8 64 52 108q16 -20 52 -60t52 -60zM1476 1700 q48 36 116 36q-8 -104 -16 -160l-32 40t-36 44t-32 40zM1588 1352q4 28 8 78t4 74q20 -20 52 -60t48 -56q-48 -36 -112 -36zM1608 1576q8 104 12 160q64 -12 108 -56q-20 -20 -60 -54t-60 -50zM1624 1524l156 -12q-12 -64 -56 -108q-16 20 -50 60t-50 60zM1628 1552 q20 20 60 54t60 50q36 -56 36 -116z" />
<glyph unicode="f" d="M176 1444q-4 12 -4 22q0 34 40 46q20 8 64 8h1184q36 0 52 -4q40 -8 48 -40q4 -10 4 -20q0 -23 -20 -48q-240 -264 -464 -524l-16 -12q-12 -16 -20 -24q-28 -24 -68 -36q-24 -12 -48 -12v-344q0 -64 48 -104q56 -48 168 -136q12 -12 12 -24q-4 -12 -28 -12h-452 q-28 0 -28 16q0 12 16 28q24 20 70 60t70 60q16 12 32 44q20 40 20 72v340q-24 0 -72 16q-52 20 -76 52q-84 92 -252 268t-252 268q-24 24 -28 40zM260 1448h1220q-76 -88 -230 -264t-230 -264q-36 -36 -92 -48h-76q-56 8 -92 48q-84 88 -250 264t-250 264zM700 1096 q-4 8 20 8h100h118h102h24v-12q-4 -8 -14 -20t-14 -16q-72 -80 -132 -124q-20 -16 -36 0q-72 56 -148 140q-16 16 -20 24zM1308 1584q12 92 76 156q84 84 180 88q104 0 164 -32q68 -44 104 -104q41 -65 41 -142q0 -13 -1 -26q-8 -92 -64 -160q-52 -64 -128 -88 q-39 -18 -85 -18q-15 0 -31 2q-24 8 -20 32q8 16 20 16h56q72 8 128 60t72 124q7 30 7 58q0 52 -23 98q-44 80 -104 104q-51 27 -106 27q-19 0 -38 -3q-72 -4 -132 -64q-60 -56 -68 -140q0 -20 -12 -28q-20 -8 -32 8q-4 4 -4 32zM1400 1572q8 64 52 108q16 -20 52 -60 t52 -60zM1476 1700q48 36 116 36q-8 -104 -16 -160l-32 40t-36 44t-32 40zM1588 1352q4 28 8 78t4 74q20 -20 52 -60t48 -56q-48 -36 -112 -36zM1608 1576q8 104 12 160q64 -12 108 -56q-80 -72 -120 -104zM1624 1524l156 -12q-12 -64 -56 -108q-16 20 -50 60t-50 60z M1628 1552q20 20 60 54t60 50q36 -56 36 -116z" />
<glyph unicode="g" d="M176 1448q-1 7 -1 14q0 36 37 50q16 8 48 8h1216q44 0 60 -12q29 -14 29 -43q0 -11 -5 -25q-4 -8 -36 -52q-156 -176 -460 -520q-16 -28 -68 -48q-32 -20 -68 -20v-344q0 -64 48 -104q24 -24 76 -66t80 -62q24 -16 24 -28q0 -16 -28 -16h-452q-24 0 -28 12v16l24 24 q88 72 132 112q20 20 32 44q20 32 20 64v348q-28 0 -68 16q-40 12 -72 44q-84 92 -258 276t-262 276q-12 12 -20 36zM260 1448h1224l-468 -528q-24 -32 -88 -48h-76q-60 8 -96 48q-80 88 -248 264t-248 264zM680 1128q4 4 16 4h368q20 0 24 -8t-16 -28q-96 -104 -152 -152 q-16 -16 -24 -16q-20 -8 -32 8q-88 72 -180 176q-12 8 -4 16zM1308 1568q8 80 48 140q16 20 52 56q72 56 156 64q104 0 164 -32q68 -44 104 -104q41 -65 41 -142q0 -13 -1 -26q-8 -92 -64 -160q-52 -64 -128 -88q-39 -18 -85 -18q-15 0 -31 2q-20 8 -20 28t20 20q44 0 64 4 q76 12 136 72q52 56 62 134q2 16 2 31q0 60 -32 111q-40 64 -92 92q-51 27 -109 27q-19 0 -39 -3q-56 -4 -104 -40q-68 -48 -84 -112q-12 -32 -12 -60q-4 -16 -18 -20t-22 4q-16 8 -8 20zM1400 1572q8 64 52 108q16 -20 52 -60t52 -60zM1476 1700q48 36 116 36 q-8 -104 -16 -160l-32 40t-36 44t-32 40zM1588 1352q4 28 8 78t4 74q20 -20 52 -60t48 -56q-48 -36 -112 -36zM1608 1576q8 104 12 160q64 -12 108 -56q-80 -72 -120 -104zM1624 1524l156 -12q-12 -64 -56 -108q-16 20 -50 60t-50 60zM1628 1552q20 20 60 54t60 50 q36 -56 36 -116z" />
<glyph unicode="h" d="M176 1448q-4 11 -4 21q0 31 40 43q20 8 64 8h1204q52 0 72 -28q14 -18 14 -36q0 -22 -22 -44q-72 -88 -224 -258t-224 -254q-64 -64 -72 -68q-52 -28 -96 -32v-344q0 -64 48 -104q56 -48 168 -136q12 -12 12 -24q-4 -12 -28 -12h-452q-28 0 -28 16q0 12 16 28 q24 20 70 60t70 60q28 20 40 60q12 24 12 56v340q-32 0 -72 16q-44 16 -76 56q-84 88 -252 266t-252 266q-24 24 -28 44zM260 1448h1220q-296 -336 -444 -508q-36 -36 -48 -44q-28 -16 -60 -24h-80q-44 4 -84 40q-84 88 -252 266t-252 270zM660 1152q4 4 20 4h388 q24 0 40 -4v-16q-12 -16 -40 -44q-96 -104 -148 -148q-20 -20 -32 -16q-20 0 -40 20q-96 88 -184 184q-8 8 -4 20zM1308 1568q0 48 28 104q24 48 84 100q68 52 144 56q104 0 164 -32q68 -44 104 -104q41 -65 41 -142q0 -13 -1 -26q-8 -92 -64 -160q-52 -64 -128 -88 q-39 -18 -85 -18q-15 0 -31 2q-20 8 -20 28t20 20q44 0 64 4q76 12 136 72q52 56 62 134q2 16 2 31q0 60 -32 111q-40 64 -92 92q-51 27 -111 27q-20 0 -41 -3q-76 -8 -128 -64q-60 -56 -68 -148q-4 -16 -18 -20t-22 4q-16 8 -8 20zM1400 1572q8 64 52 108q16 -20 52 -60 t52 -60zM1476 1700q48 36 116 36q-8 -104 -16 -160l-32 40t-36 44t-32 40zM1588 1352q4 28 8 78t4 74q20 -20 52 -60t48 -56q-48 -36 -112 -36zM1608 1576q8 104 12 160q64 -12 108 -56q-20 -20 -60 -54t-60 -50zM1624 1524l156 -12q-12 -64 -56 -108q-16 20 -50 60t-50 60z M1628 1552q20 20 60 54t60 50q36 -56 36 -116z" />
<glyph unicode="i" d="M176 1448q-1 7 -1 14q0 36 37 50q16 8 48 8h1220q52 0 72 -28q14 -18 14 -36q0 -22 -22 -44q-224 -264 -448 -508q-8 -8 -20 -22t-16 -22q-28 -28 -84 -48q-24 -12 -48 -12v-344q0 -76 64 -116q44 -40 140 -112q24 -24 24 -32q0 -16 -28 -16h-436q-24 0 -36 4 q-12 12 -8 20q0 4 24 28q88 72 132 112q16 12 32 44q20 40 20 72v340q-24 0 -72 16q-52 20 -76 52q-84 88 -254 270t-258 274q-12 12 -20 36zM260 1448h1220q-76 -88 -230 -264t-230 -264q-36 -36 -92 -48h-76q-56 8 -92 48q-84 88 -250 264t-250 264zM640 1172q16 8 28 8 h428q20 0 32 -8v-16q-8 -8 -22 -24t-22 -24q-112 -116 -168 -172q-32 -24 -56 0q-116 108 -216 216q-8 16 -4 20zM1308 1584q12 92 76 156q84 84 180 88q104 0 164 -32q68 -44 104 -104q41 -65 41 -142q0 -13 -1 -26q-8 -92 -64 -160q-52 -64 -128 -88q-39 -18 -85 -18 q-15 0 -31 2q-24 8 -20 32q8 16 20 16h56q72 8 128 60t72 124q7 30 7 58q0 51 -23 98q-44 80 -104 104q-50 27 -106 27q-18 0 -38 -3q-72 -4 -132 -64q-60 -56 -68 -136q0 -20 -8 -28q-4 -8 -18 -6t-18 10q-4 4 -4 32zM1400 1572q8 64 52 108q16 -20 52 -60t52 -60z M1476 1700q48 36 116 36q-8 -104 -16 -160l-32 40t-36 44t-32 40zM1588 1352q4 28 8 78t4 74q20 -20 52 -60t48 -56q-48 -36 -112 -36zM1608 1576q8 104 12 160q64 -12 108 -56q-20 -20 -60 -54t-60 -50zM1624 1524l156 -12q-12 -64 -56 -108q-16 20 -50 60t-50 60z M1628 1552q20 20 60 54t60 50q36 -56 36 -116z" />
<glyph unicode="j" d="M176 1448q-4 16 6 36t30 28q16 8 48 8h1216q40 0 56 -8q34 -20 34 -48q0 -11 -6 -24q-4 -8 -36 -52q-68 -76 -146 -164t-170 -192t-144 -164q-28 -32 -72 -52q-40 -16 -64 -16v-344q0 -64 48 -104q56 -48 168 -136q12 -12 12 -24q-4 -12 -28 -12h-452q-24 0 -28 12v16 q4 8 14 14t14 10q20 20 62 56t66 52q4 4 12 14t12 14q28 48 28 88v344q-28 0 -68 16q-40 12 -72 44q-352 376 -512 544q-24 24 -28 44zM260 1448h1220q-76 -88 -230 -264t-230 -264q-36 -36 -92 -48h-76q-40 8 -72 28l-28 28q-84 88 -248 262t-244 258zM624 1172 q-12 24 4 28h28h460q24 0 32 -8v-16q-40 -40 -60 -64q-112 -120 -176 -176q-16 -16 -36 -8q-8 4 -14 10t-10 6zM1308 1568q8 92 60 152q44 56 104 84q40 16 92 24q104 0 164 -32q68 -44 104 -104q41 -65 41 -142q0 -13 -1 -26q-8 -92 -64 -160q-52 -64 -128 -88 q-39 -18 -85 -18q-15 0 -31 2q-24 8 -20 32q8 16 20 16h56q72 8 128 60t72 124q7 30 7 58q0 52 -23 98q-44 80 -104 104q-51 27 -106 27q-19 0 -38 -3q-72 -4 -132 -64q-60 -56 -68 -144q0 -20 -16 -24q-12 -4 -24 4t-8 20zM1400 1572q8 64 52 108q16 -20 52 -60t52 -60z M1476 1700q48 36 116 36q-8 -104 -16 -160l-32 40t-36 44t-32 40zM1588 1352q4 28 8 78t4 74q20 -20 52 -60t48 -56q-48 -36 -112 -36zM1608 1576q8 104 12 160q64 -12 108 -56q-20 -20 -60 -54t-60 -50zM1624 1524l156 -12q-12 -64 -56 -108q-16 20 -50 60t-50 60z M1628 1552q20 20 60 54t60 50q36 -56 36 -116z" />
<glyph unicode="k" d="M176 1448q-1 7 -1 14q0 36 37 50q16 8 48 8h1220q52 0 72 -28q14 -18 14 -36q0 -22 -22 -44q-16 -20 -188 -216t-264 -296q-12 -16 -36 -40q-16 -20 -80 -48q-24 -12 -48 -12v-344q0 -64 48 -104q56 -48 168 -136q12 -12 12 -24q-4 -12 -28 -12h-452q-28 0 -28 16 q0 12 16 28q24 20 68 58t68 58q16 16 24 28q32 44 32 96v336q-24 0 -72 16q-52 20 -76 52q-84 88 -254 270t-258 274q-12 12 -20 36zM260 1448h1220q-76 -88 -230 -264t-230 -264q-36 -36 -92 -48h-76q-56 8 -92 48q-84 88 -250 264t-250 264zM600 1212q8 8 44 8h488h24 q8 -4 10 -14t-2 -14q-8 -12 -42 -46t-50 -54l-48 -48t-56 -58t-48 -46q-16 -18 -33 -18t-35 18q-72 72 -108 112q-44 40 -124 128q-20 20 -20 32zM1308 1568q8 80 48 140q16 20 52 56q72 56 156 64q104 0 164 -32q68 -44 104 -104q41 -65 41 -142q0 -13 -1 -26 q-8 -92 -64 -160q-52 -64 -128 -88q-39 -18 -85 -18q-15 0 -31 2q-24 8 -20 32q8 16 20 16q52 0 64 4q76 12 136 72q52 56 62 134q2 16 2 31q0 60 -32 111q-36 60 -92 92q-48 27 -114 27q-22 0 -46 -3q-88 -16 -148 -96q-40 -60 -40 -116q-4 -16 -18 -20t-22 4q-16 8 -8 20z M1400 1572q8 64 52 108q16 -20 52 -60t52 -60zM1476 1700q48 36 116 36q-8 -104 -16 -160l-32 40t-36 44t-32 40zM1588 1352q4 28 8 78t4 74q20 -20 52 -60t48 -56q-48 -36 -112 -36zM1608 1576q8 104 12 160q64 -12 108 -56q-80 -72 -120 -104zM1624 1524l156 -12 q-12 -64 -56 -108q-16 20 -50 60t-50 60zM1628 1552q20 20 60 54t60 50q36 -56 36 -116z" />
<glyph unicode="l" d="M176 1448q-4 16 6 36t30 28q16 8 48 8h1220q52 0 72 -28q14 -18 14 -36q0 -22 -22 -44q-16 -20 -188 -216t-264 -296q-12 -16 -36 -40q-16 -20 -80 -48q-24 -12 -48 -12v-344q0 -64 48 -104q56 -48 168 -136q12 -12 12 -24q-4 -12 -28 -12h-452q-28 0 -28 16q0 12 16 28 q24 20 70 60t70 60q20 20 32 44q20 32 20 64v348q-28 0 -68 16q-40 12 -72 44q-352 376 -512 544q-24 24 -28 44zM260 1448h1224q-20 -20 -448 -508l-14 -14t-16 -18t-14 -12q-32 -20 -64 -24h-56q-68 0 -104 40q-332 348 -508 536zM584 1228l12 12h28h524q28 0 32 -8 q12 -8 -8 -28q-152 -168 -236 -248l-24 -24q-16 -12 -44 -4q-12 8 -20 20q-84 84 -252 256q-12 12 -12 24zM1308 1568q8 92 56 152q56 64 112 88q28 12 88 20q104 0 164 -32q68 -44 104 -104q41 -65 41 -142q0 -13 -1 -26q-8 -92 -64 -160q-52 -64 -128 -88q-39 -18 -85 -18 q-15 0 -31 2q-24 8 -20 32q8 16 20 16q52 0 64 4q76 12 136 72q52 56 62 134q2 16 2 31q0 60 -32 111q-36 60 -92 92q-48 27 -114 27q-22 0 -46 -3q-88 -16 -148 -96q-40 -60 -40 -116q-4 -16 -18 -20t-22 4q-16 8 -8 20zM1400 1572q8 64 52 108q16 -20 52 -60t52 -60z M1476 1700q48 36 116 36q-8 -104 -16 -160l-32 40t-36 44t-32 40zM1588 1352q4 28 8 78t4 74q20 -20 52 -60t48 -56q-48 -36 -112 -36zM1608 1576q8 104 12 160q64 -12 108 -56q-80 -72 -120 -104zM1624 1524l156 -12q-12 -64 -56 -108q-16 20 -50 60t-50 60zM1628 1552 q20 20 60 54t60 50q36 -56 36 -116z" />
<glyph unicode="m" d="M176 1444q-4 11 -4 21q0 29 36 47q20 8 64 8h1208q52 0 72 -28q14 -18 14 -36q0 -22 -22 -44q-64 -76 -140 -162t-166 -188t-142 -158q-24 -32 -36 -44q-28 -28 -84 -48q-24 -12 -48 -12v-328q-1 -9 -1 -17q0 -75 65 -115l144 -120q20 -12 20 -28q-4 -12 -28 -12h-452 q-24 0 -28 12v16l24 24q88 72 132 112q20 20 32 44q20 32 20 64v348q-28 0 -68 16q-40 12 -72 44q-84 92 -252 268t-252 268q-28 28 -36 48zM260 1448h1220q-80 -88 -236 -266t-232 -270q-24 -24 -60 -32q-20 -8 -80 -8q-68 0 -104 40q-332 348 -508 536zM568 1248q0 8 12 8 q8 4 28 4h556q4 0 16 -2t16 -6q12 -12 -4 -28q-20 -24 -60 -66t-52 -54q-104 -112 -160 -164q-16 -24 -56 -8q-8 4 -20 16q-44 44 -132 134t-132 138q-12 12 -12 28zM1308 1568q8 92 56 152q56 64 112 88q28 12 88 20q104 0 164 -32q68 -44 104 -104q41 -65 41 -142 q0 -13 -1 -26q-8 -92 -64 -160q-52 -64 -128 -88q-39 -18 -85 -18q-15 0 -31 2q-24 8 -20 32q8 16 20 16q52 0 64 4q76 12 136 72q52 56 62 134q2 16 2 31q0 60 -32 111q-36 60 -92 92q-48 27 -114 27q-22 0 -46 -3q-88 -16 -148 -96q-40 -60 -40 -116q0 -16 -16 -20t-24 4 q-16 8 -8 20zM1400 1572q8 64 52 108q16 -20 52 -60t52 -60zM1476 1700q48 36 116 36q-8 -104 -16 -160l-32 40t-36 44t-32 40zM1588 1352q4 28 8 78t4 74q20 -20 52 -60t48 -56q-48 -36 -112 -36zM1608 1576q8 104 12 160q64 -12 108 -56q-80 -72 -120 -104zM1624 1524 l156 -12q-12 -64 -56 -108q-16 20 -50 60t-50 60zM1628 1552q20 20 60 54t60 50q36 -56 36 -116z" />
<glyph unicode="n" d="M176 1448q-4 16 6 36t30 28q16 8 48 8h1216q40 0 56 -8q34 -20 34 -48q0 -12 -6 -24q0 -8 -32 -48q-16 -20 -194 -220t-270 -304q-16 -28 -68 -48q-32 -20 -68 -20v-344q0 -64 48 -104q24 -20 72 -58t72 -58q4 -4 12 -10t14 -12t10 -14t-4 -14t-20 -6h-456q-28 0 -28 16 q0 12 16 28q24 20 70 60t70 60q16 12 32 44q20 40 20 72v340q-32 0 -72 16q-44 16 -76 56q-332 348 -508 536q-20 20 -24 40zM260 1448h1220q-152 -176 -464 -528q-16 -20 -52 -36q-20 -12 -44 -12h-72q-60 8 -88 48q-84 88 -250 264t-250 264zM556 1264l12 12h24h568h40 q16 -8 16 -16q0 -12 -20 -32q-128 -136 -256 -268q-28 -36 -52 -32h-4q-19 0 -52 32q-44 44 -134 136t-134 140q-12 20 -8 28zM1308 1568q0 64 36 120q24 40 76 84q64 48 144 56q104 0 164 -32q68 -44 104 -104q49 -75 49 -148q0 -76 -53 -152q-44 -68 -116 -104 q-51 -27 -111 -27q-20 0 -41 3q-16 8 -16 24q0 20 20 20h56q72 8 128 60t72 124q7 30 7 58q0 51 -23 98q-44 80 -104 104q-50 27 -106 27q-18 0 -38 -3q-72 -4 -132 -64q-60 -56 -68 -136q0 -20 -8 -28q-16 -16 -32 0q-16 8 -8 20zM1400 1572q8 64 52 108q16 -20 52 -60 t52 -60zM1476 1700q48 36 116 36q-8 -104 -16 -160l-32 40t-36 44t-32 40zM1588 1352q4 28 8 78t4 74q20 -20 52 -60t48 -56q-48 -36 -112 -36zM1608 1576q8 104 12 160q64 -12 108 -56q-80 -72 -120 -104zM1624 1524l156 -12q-12 -64 -56 -108q-16 20 -50 60t-50 60z M1628 1552q20 20 60 54t60 50q36 -56 36 -116z" />
<glyph unicode="o" d="M176 1448q-1 7 -1 14q0 36 37 50q16 8 48 8h1216q44 0 60 -12q29 -16 29 -49q0 -7 -1 -15q-8 -24 -24 -36q-80 -92 -238 -272t-238 -268q-12 -24 -56 -44q-48 -24 -80 -24v-344q0 -64 48 -104q56 -48 168 -136q12 -12 12 -24q-4 -12 -28 -12h-452q-28 0 -28 16 q0 12 16 28q24 20 70 60t70 60q16 12 32 44q20 40 20 72v340q-24 0 -72 16q-52 20 -76 52q-84 88 -254 270t-258 274q-12 12 -20 36zM260 1448h1220q-152 -176 -464 -528q-28 -36 -84 -48h-60q-8 -1 -17 -1q-57 0 -99 49q-80 88 -248 264t-248 264zM540 1280q12 12 40 12 h612q28 0 36 -12q4 -16 -12 -32q-108 -120 -132 -140q-24 -24 -70 -74t-70 -74q-28 -28 -44 -32q-24 -8 -40 4q-4 4 -16 14t-16 14q-184 192 -276 292q-16 16 -12 28zM1308 1564q0 52 28 108q28 60 88 104q68 48 140 52q104 0 164 -32q68 -44 104 -104q41 -65 41 -142 q0 -13 -1 -26q-8 -92 -64 -160q-52 -64 -128 -88q-39 -18 -85 -18q-15 0 -31 2q-8 4 -16 12t-2 22t18 14h56q72 8 128 60t72 124q7 30 7 58q0 51 -23 98q-44 80 -104 104q-50 27 -106 27q-18 0 -38 -3q-72 -4 -132 -64q-60 -56 -68 -136q0 -20 -8 -28q-20 -8 -28 -4 q-16 8 -12 20zM1400 1572q8 64 52 108q16 -20 52 -60t52 -60zM1476 1700q48 36 116 36q-8 -104 -16 -160l-32 40t-36 44t-32 40zM1588 1352q4 28 8 78t4 74q20 -20 52 -60t48 -56q-48 -36 -112 -36zM1608 1576q8 104 12 160q64 -12 108 -56q-20 -20 -60 -54t-60 -50z M1624 1524l156 -12q-12 -64 -56 -108q-16 20 -50 60t-50 60zM1628 1552q20 20 60 54t60 50q36 -56 36 -116z" />
<glyph unicode="p" d="M176 1448q-1 7 -1 14q0 36 37 50q16 8 48 8h1216q40 0 56 -8q33 -17 33 -53q0 -7 -1 -15q-8 -24 -24 -36q-80 -92 -238 -272t-238 -268q-20 -28 -64 -48q-60 -20 -72 -20v-344q0 -64 48 -104q52 -40 148 -120q32 -32 32 -36q0 -16 -28 -16h-452q-24 0 -28 12q-8 8 4 16 q4 12 24 24q88 80 128 112q28 20 40 60q12 24 12 56v340q-28 0 -68 16q-40 12 -72 44q-84 92 -258 276t-262 276q-12 12 -20 36zM260 1448h1220q-152 -176 -464 -528q-28 -36 -84 -48h-60q-8 -1 -17 -1q-57 0 -99 49q-80 88 -248 264t-248 264zM528 1292q0 12 12 12 q8 4 32 4h632l36 -12q8 -16 -8 -32q-148 -164 -304 -316q-16 -16 -28 -20h-32q-8 4 -20 14t-16 14q-48 52 -142 150t-142 150q-24 24 -20 36zM1308 1568q8 80 48 140q16 20 52 56q72 56 156 64q104 0 164 -32q68 -44 104 -104q41 -65 41 -142q0 -13 -1 -26q-8 -92 -64 -160 q-52 -64 -128 -88q-39 -18 -85 -18q-15 0 -31 2q-28 8 -20 28t20 20h56q72 8 128 60t72 124q7 30 7 58q0 52 -23 98q-32 64 -92 100q-56 32 -124 32q-88 0 -160 -64q-64 -60 -72 -152q-4 -16 -18 -20t-22 4q-16 8 -8 20zM1400 1572q8 64 52 108q16 -20 52 -60t52 -60z M1476 1700q48 36 116 36q-8 -104 -16 -160l-32 40t-36 44t-32 40zM1588 1352q4 28 8 78t4 74q20 -20 52 -60t48 -56q-48 -36 -112 -36zM1608 1576q8 104 12 160q64 -12 108 -56q-20 -20 -60 -54t-60 -50zM1624 1524l156 -12q-12 -64 -56 -108q-16 20 -50 60t-50 60z M1628 1552q20 20 60 54t60 50q36 -56 36 -116z" />
<glyph unicode="q" d="M176 1448q-1 7 -1 14q0 36 37 50q16 8 48 8h1216q40 0 56 -8q33 -17 33 -53q0 -7 -1 -15q-8 -24 -24 -36q-80 -92 -238 -272t-238 -268q-12 -24 -56 -44q-48 -24 -80 -24v-328q-1 -9 -1 -18q0 -60 49 -102q28 -20 82 -64t82 -68q16 -16 16 -28q-4 -12 -28 -12h-452 q-28 0 -28 16q0 12 16 28q24 20 70 60t70 60q28 20 40 60q12 24 12 56v340q-24 0 -72 16q-48 24 -68 44q-84 92 -258 276t-262 276q-12 12 -20 36zM260 1448h1220q-152 -176 -464 -528q-28 -36 -84 -48h-68q-40 0 -76 24q-8 4 -48 44q-80 84 -240 254t-240 254zM516 1312 q12 8 44 8h652q28 0 40 -8q4 -12 -4 -32q-20 -20 -58 -60t-54 -60q-72 -72 -208 -216q-20 -20 -48 -16q-20 0 -40 20q-28 32 -88 92t-88 92q-88 96 -132 140q-24 16 -16 40zM1308 1568q8 80 48 140q16 20 52 56q72 56 156 64q104 0 164 -32q68 -44 104 -104q49 -75 49 -148 q0 -77 -53 -152q-40 -64 -108 -100q-63 -33 -129 -33q-14 0 -27 1q-24 8 -20 32q8 16 16 16h60q72 8 128 60t72 124q7 30 7 58q0 52 -23 98q-32 64 -92 100q-56 32 -124 32q-96 0 -164 -68q-60 -56 -68 -144q0 -20 -16 -24q-12 -4 -24 4t-8 20zM1400 1572q8 64 52 108 q16 -20 52 -60t52 -60zM1476 1700q48 36 116 36q-8 -104 -16 -160l-32 40t-36 44t-32 40zM1588 1352q4 28 8 78t4 74q20 -20 52 -60t48 -56q-48 -36 -112 -36zM1608 1576q8 104 12 160q64 -12 108 -56q-20 -20 -60 -54t-60 -50zM1624 1524l156 -12q-12 -64 -56 -108 q-16 20 -50 60t-50 60zM1628 1552q20 20 60 54t60 50q36 -56 36 -116z" />
<glyph unicode="r" d="M176 1448q-1 7 -1 14q0 36 37 50q16 8 48 8h1208q44 0 64 -8q32 -15 32 -44q0 -11 -4 -24q-8 -28 -24 -44q-452 -512 -472 -532q-12 -24 -56 -44q-48 -24 -80 -24v-344q0 -68 60 -116q48 -36 136 -108q32 -32 32 -36q0 -16 -28 -16h-452q-28 0 -28 16q0 12 16 28 q24 20 70 60t70 60q28 20 40 60q12 24 12 48v348q-28 0 -68 16q-40 12 -72 44q-84 92 -258 276t-262 276q-12 12 -20 36zM260 1448h1220q-76 -88 -230 -264t-230 -264q-36 -36 -92 -48h-76q-56 8 -92 48q-84 88 -250 264t-250 264zM508 1320q8 12 40 12h668q24 0 36 -4 q20 0 12 -24q-8 -16 -16 -20q-52 -56 -154 -164t-154 -164q-32 -32 -52 -28q-24 -4 -44 16q-52 56 -160 170t-164 170q-20 20 -12 36zM1308 1568q8 80 48 140q16 20 52 56q72 56 156 64q104 0 164 -32q68 -44 104 -104q41 -65 41 -142q0 -13 -1 -26q-8 -92 -64 -160 q-52 -64 -128 -88q-39 -18 -85 -18q-15 0 -31 2q-24 8 -20 32q8 16 20 16q56 0 68 4q72 12 132 72q52 56 62 134q2 16 2 31q0 60 -32 111q-40 64 -92 92q-51 27 -109 27q-19 0 -39 -3q-56 -4 -104 -40q-68 -48 -84 -112q-12 -32 -12 -60q-4 -16 -18 -20t-22 4q-16 8 -8 20z M1400 1572q8 64 52 108q16 -20 52 -60t52 -60zM1476 1700q48 36 116 36q-8 -104 -16 -160l-32 40t-36 44t-32 40zM1588 1352q4 28 8 78t4 74q20 -20 52 -60t48 -56q-48 -36 -112 -36zM1608 1576q8 104 12 160q64 -12 108 -56q-20 -20 -60 -54t-60 -50zM1624 1524l156 -12 q-12 -64 -56 -108q-16 20 -50 60t-50 60zM1628 1552q20 20 60 54t60 50q36 -56 36 -116z" />
<glyph unicode="s" d="M176 1448q-1 7 -1 14q0 36 37 50q16 8 48 8h1216q40 0 56 -8q33 -17 33 -53q0 -7 -1 -15q-8 -24 -24 -36q-76 -88 -230 -262t-230 -262l-16 -12q-12 -16 -20 -24q-24 -20 -64 -36q-8 0 -26 -6t-26 -6v-344q0 -64 48 -104q36 -32 160 -128q20 -20 20 -28q0 -16 -28 -16 h-452q-24 0 -28 12q-8 8 4 16q0 4 4 8t10 8t10 8q80 72 128 112q16 12 32 44q20 32 20 68v344q-28 0 -68 16q-40 12 -72 44q-84 92 -258 276t-262 276q-12 12 -20 36zM260 1448h1220q-152 -176 -464 -528q-24 -32 -88 -48h-76q-60 8 -96 48q-80 88 -248 264t-248 264z M496 1316v16q12 12 44 12h692q32 0 40 -12q12 -20 -12 -36q-108 -120 -332 -352q-20 -20 -41 -20t-43 20q-56 60 -168 178t-168 178q-8 8 -12 16zM1308 1568q8 80 48 140q16 20 52 56q72 56 156 64q104 0 164 -32q68 -44 104 -104q41 -65 41 -142q0 -13 -1 -26 q-8 -92 -64 -160q-52 -64 -128 -88q-39 -18 -85 -18q-15 0 -31 2q-32 8 -16 40q4 8 40 8h10q68 0 142 52q56 52 80 120q8 31 8 61q0 48 -20 95q-28 60 -68 92q-56 52 -152 52q-72 0 -136 -44q-64 -48 -84 -108q-12 -28 -12 -64q-4 -16 -18 -20t-22 4q-16 8 -8 20zM1400 1572 q8 64 52 108q16 -20 52 -60t52 -60zM1476 1700q48 36 116 36q-8 -104 -16 -160l-32 40t-36 44t-32 40zM1588 1352q4 28 8 78t4 74q20 -20 52 -60t48 -56q-48 -36 -112 -36zM1608 1576q8 104 12 160q64 -12 108 -56q-20 -20 -60 -54t-60 -50zM1624 1524l156 -12 q-12 -64 -56 -108q-16 20 -50 60t-50 60zM1628 1552q20 20 60 54t60 50q36 -56 36 -116z" />
<glyph unicode="t" d="M176 1448q-4 16 6 36t30 28q16 8 48 8h1220q52 0 72 -28q14 -18 14 -36q0 -22 -22 -44q-80 -88 -236 -266t-232 -266q-28 -36 -60 -52q-64 -28 -88 -28v-344q0 -64 48 -104q24 -24 76 -66t80 -62q24 -16 24 -28q0 -16 -28 -16h-452q-28 0 -28 16q0 12 16 28q24 20 70 60 t70 60q28 20 40 60q12 24 12 56v340q-32 0 -72 16q-44 16 -76 56q-332 348 -508 536q-20 20 -24 40zM260 1448h1220q-76 -88 -230 -264t-230 -264q-36 -36 -92 -48h-76q-48 4 -88 40q-84 88 -252 266t-252 270zM488 1324v20q8 8 32 8h716q40 0 44 -8q8 -20 -8 -36 q-124 -136 -128 -140q-128 -128 -188 -196q-4 -4 -10 -12t-12 -12t-10 -8q-19 -17 -38 -17l-42 21q-56 56 -166 174t-166 174q-4 4 -12 14t-12 18zM1308 1568q0 48 28 104q24 48 84 100q68 52 144 56q104 0 164 -32q68 -44 104 -104q41 -65 41 -142q0 -13 -1 -26 q-8 -92 -64 -160q-52 -64 -128 -88q-39 -18 -85 -18q-15 0 -31 2q-12 4 -16 16q-8 8 -2 20t18 12q44 0 68 4q80 12 140 80q52 56 54 138v7q0 78 -42 139q-40 68 -120 92q-32 12 -104 12q-88 -12 -140 -72q-56 -56 -64 -144q-4 -16 -18 -20t-22 4q-16 8 -8 20zM1400 1572 q8 64 52 108q16 -20 52 -60t52 -60zM1476 1700q48 36 116 36q-8 -104 -16 -160l-32 40t-36 44t-32 40zM1588 1352q4 28 8 78t4 74q20 -20 52 -60t48 -56q-48 -36 -112 -36zM1608 1576q8 104 12 160q64 -12 108 -56q-20 -20 -60 -54t-60 -50zM1624 1524l156 -12 q-12 -64 -56 -108q-16 20 -50 60t-50 60zM1628 1552q20 20 60 54t60 50q36 -56 36 -116z" />
<glyph unicode="u" d="M176 1448q-1 7 -1 14q0 36 37 50q16 8 48 8h1220q52 0 72 -28q14 -18 14 -36q0 -22 -22 -44q-72 -88 -224 -258t-224 -254q-64 -64 -72 -68q-52 -28 -96 -32v-344q0 -64 48 -104q24 -24 76 -66t80 -62q24 -16 24 -28q0 -16 -28 -16h-452q-28 0 -28 16q0 12 16 28 q24 20 70 60t70 60q20 20 32 44q20 32 20 68v344q-28 0 -68 16q-40 12 -72 44q-84 92 -258 276t-262 276q-12 12 -20 36zM260 1448h1220q-76 -88 -230 -264t-230 -264q-36 -36 -92 -48h-76q-56 8 -92 48q-84 88 -250 264t-250 264zM480 1332v20q8 8 20 8q16 4 44 4h684 q32 0 44 -4q16 0 20 -16q0 -16 -16 -32q-112 -124 -236 -248q-72 -80 -112 -120q-19 -23 -41 -23q-24 0 -51 27q-24 28 -72 76t-72 76q-4 4 -188 200q-20 20 -24 32zM1308 1568q8 80 48 140q16 20 52 56q72 56 156 64q104 0 164 -32q68 -44 104 -104q41 -65 41 -142 q0 -13 -1 -26q-8 -92 -64 -160q-52 -64 -128 -88q-39 -18 -85 -18q-15 0 -31 2q-24 8 -20 32q8 16 16 16q56 0 68 4q76 12 136 72q52 56 62 134q2 16 2 31q0 60 -32 111q-36 60 -92 92q-48 27 -114 27q-22 0 -46 -3q-88 -16 -148 -96q-40 -60 -40 -116q0 -16 -16 -20t-24 4 q-16 8 -8 20zM1400 1572q8 64 52 108q16 -20 52 -60t52 -60zM1476 1700q48 36 116 36q-8 -104 -16 -160l-32 40t-36 44t-32 40zM1588 1352q4 28 8 78t4 74q20 -20 52 -60t48 -56q-48 -36 -112 -36zM1608 1576q8 104 12 160q64 -12 108 -56q-80 -72 -120 -104zM1624 1524 l156 -12q-12 -64 -56 -108q-16 20 -50 60t-50 60zM1628 1552q20 20 60 54t60 50q36 -56 36 -116z" />
<glyph unicode="v" d="M176 1448q-1 7 -1 14q0 36 37 50q16 8 48 8h1216q40 0 56 -8q32 -15 32 -44q0 -11 -4 -24q-8 -28 -24 -44q-452 -512 -472 -532q-24 -28 -68 -48q-32 -20 -68 -20v-344q0 -76 64 -116q44 -40 140 -112q20 -20 24 -32q0 -16 -28 -16h-452q-28 0 -28 16q0 12 16 28 q24 20 70 60t70 60q20 20 32 44q20 32 20 68v344q-28 0 -68 16q-40 12 -72 44q-84 92 -258 276t-262 276q-12 12 -20 36zM260 1448h1220q-152 -176 -464 -528q-28 -36 -84 -48h-60q-8 -1 -17 -1q-57 0 -99 49q-80 88 -248 264t-248 264zM472 1352l16 16h32h732q36 0 44 -8 q12 -16 -12 -40q-16 -16 -44 -46t-50 -54t-42 -48l-216 -228q-18 -18 -47 -18q-10 0 -21 2q-24 12 -36 32q-116 120 -340 360q-20 20 -16 32zM1308 1564q0 48 28 112q20 36 64 80q72 64 164 72q104 0 164 -32q68 -44 104 -104q49 -75 49 -148q0 -76 -53 -152 q-44 -68 -116 -104q-51 -27 -111 -27q-20 0 -41 3q-12 0 -12 12q-8 8 -2 20t18 12h56q72 8 128 60t72 124q7 30 7 58q0 51 -23 98q-44 80 -104 104q-50 27 -106 27q-18 0 -38 -3q-72 -4 -132 -64q-60 -56 -68 -136q0 -20 -8 -28q-12 -12 -32 -4q-8 16 -8 20zM1400 1572 q8 64 52 108q16 -20 52 -60t52 -60zM1476 1700q48 36 116 36q-8 -104 -16 -160l-32 40t-36 44t-32 40zM1588 1352q4 28 8 78t4 74q20 -20 52 -60t48 -56q-48 -36 -112 -36zM1608 1576q8 104 12 160q64 -12 108 -56q-20 -20 -60 -54t-60 -50zM1624 1524l156 -12 q-12 -64 -56 -108q-16 20 -50 60t-50 60zM1628 1552q20 20 60 54t60 50q36 -56 36 -116z" />
<glyph unicode="w" d="M176 1448q-1 7 -1 14q0 36 37 50q16 8 48 8h1216q40 0 56 -8q33 -17 33 -53q0 -7 -1 -15q-8 -24 -24 -36q-76 -88 -230 -262t-230 -262l-16 -12q-12 -16 -20 -24q-24 -20 -64 -36q-8 0 -26 -6t-26 -6v-344q0 -68 60 -116q24 -20 72 -56t72 -56q20 -20 24 -32 q0 -16 -28 -16h-452q-28 0 -28 16q0 12 16 28q24 20 70 60t70 60q20 20 32 44q20 32 20 68v344q-24 0 -72 16q-48 24 -68 44q-84 92 -258 276t-262 276q-12 12 -20 36zM260 1448h1220q-76 -88 -230 -264t-230 -264q-36 -36 -92 -48h-76q-56 8 -92 48q-84 88 -250 264 t-250 264zM468 1352q0 12 4 16q8 8 32 8h748q28 0 40 -4q8 -4 12 -14t-4 -14q-4 -8 -12 -18t-12 -14q-20 -24 -64 -70t-64 -66q-4 -4 -212 -224q-24 -24 -44 -24q-28 -8 -56 20q-52 56 -110 120t-130 138t-112 118q-16 16 -16 28zM1308 1568q0 48 28 104q24 48 84 100 q68 52 144 56q104 0 164 -32q68 -44 104 -104q41 -65 41 -142q0 -13 -1 -26q-8 -92 -64 -160q-52 -64 -128 -88q-39 -18 -85 -18q-15 0 -31 2q-24 8 -20 32q8 16 16 16h60q72 8 128 60t72 124q7 30 7 58q0 51 -23 98q-32 64 -92 100q-56 32 -124 32q-96 0 -164 -68 q-52 -44 -64 -116q0 -4 -4 -16t-4 -20q0 -16 -16 -18t-20 6q-16 8 -8 20zM1400 1572q8 64 52 108q16 -20 52 -60t52 -60zM1476 1700q48 36 116 36q-8 -104 -16 -160l-32 40t-36 44t-32 40zM1588 1352q4 28 8 78t4 74q20 -20 52 -60t48 -56q-48 -36 -112 -36zM1608 1576 q8 104 12 160q64 -12 108 -56q-20 -20 -60 -54t-60 -50zM1624 1524l156 -12q-12 -64 -56 -108q-16 20 -50 60t-50 60zM1628 1552q20 20 60 54t60 50q36 -56 36 -116z" />
<glyph unicode="x" d="M176 1448q-1 7 -1 14q0 36 37 50q16 8 48 8h1184h64q32 -8 48 -28q16 -36 4 -56q-4 -8 -16 -22t-12 -18q-152 -172 -448 -508l-40 -40q-24 -16 -44 -28q-60 -20 -72 -20v-344q0 -64 48 -104q52 -40 148 -120q32 -32 32 -36q0 -16 -28 -16h-452q-28 0 -28 16q0 12 16 28 q24 20 70 60t70 60q20 20 32 44q20 32 20 68v344q-24 0 -72 16q-48 24 -68 44q-84 92 -258 276t-262 276q-12 12 -20 36zM260 1448h1220q-76 -88 -230 -264t-230 -264q-36 -36 -92 -48h-76q-52 8 -84 40q-332 348 -508 536zM464 1364q0 8 16 16q12 4 36 4h748q4 0 14 -2 t16 -4t10 -6q16 -20 -8 -36q-36 -40 -116 -124t-116 -128q-48 -44 -136 -140q-17 -22 -39 -22q-15 0 -33 10l-40 40q-36 40 -156 164t-180 192q-20 28 -16 36zM1308 1568q8 80 48 140q16 20 52 56q72 56 156 64q104 0 164 -32q68 -44 104 -104q49 -75 49 -148 q0 -76 -53 -152q-44 -68 -116 -104q-51 -27 -111 -27q-20 0 -41 3q-24 8 -16 28q8 16 20 16h56q72 8 128 60t72 124q7 30 7 58q0 51 -23 98q-32 64 -92 100q-56 32 -124 32q-96 0 -164 -68q-60 -56 -68 -144q0 -20 -16 -24q-12 -4 -24 4t-8 20zM1400 1572q8 64 52 108 q16 -20 52 -60t52 -60zM1476 1700q48 36 116 36q-8 -104 -16 -160l-32 40t-36 44t-32 40zM1588 1352q4 28 8 78t4 74q20 -20 52 -60t48 -56q-48 -36 -112 -36zM1608 1576q8 104 12 160q64 -12 108 -56q-20 -20 -60 -54t-60 -50zM1624 1524l156 -12q-12 -64 -56 -108 q-16 20 -50 60t-50 60zM1628 1552q20 20 60 54t60 50q36 -56 36 -116z" />
<glyph unicode="y" d="M176 1448q-1 7 -1 14q0 36 37 50q16 8 48 8h1220q52 0 72 -28q14 -18 14 -36q0 -22 -22 -44q-152 -176 -456 -520l-16 -20q-20 -20 -32 -28q-20 -16 -60 -32q-8 0 -26 -6t-26 -6v-328q-1 -9 -1 -17q0 -75 65 -115q20 -16 66 -54t70 -58q8 -4 24 -20q4 -12 0 -16 q-4 -12 -24 -12h-452q-28 0 -28 16q0 12 16 28q24 20 70 60t70 60q20 20 32 44q20 32 20 64v348q-28 0 -68 16q-40 12 -72 44q-84 92 -258 276t-262 276q-12 12 -20 36zM260 1448h1220q-152 -176 -464 -528q-24 -32 -88 -48h-76q-60 8 -96 48q-80 88 -248 264t-248 264z M460 1368q0 16 20 16q8 4 28 4h760q32 0 40 -12q12 -20 -12 -44q-48 -48 -136 -144q-144 -152 -216 -232q-24 -24 -40 -28q-10 -2 -19 -2q-27 0 -45 18q-56 56 -116 122t-134 146t-118 124q-16 16 -12 32zM1308 1568q0 48 28 104q24 48 84 100q68 52 144 56q104 0 164 -32 q68 -44 104 -104q41 -65 41 -142q0 -13 -1 -26q-8 -92 -64 -160q-52 -64 -128 -88q-39 -18 -85 -18q-15 0 -31 2q-12 4 -16 16q-8 8 -2 20t18 12q44 0 64 4q76 12 136 72q52 56 62 134q2 16 2 31q0 60 -32 111q-36 60 -92 92q-48 27 -114 27q-22 0 -46 -3q-84 -12 -148 -96 q-40 -60 -40 -116q-4 -16 -18 -20t-22 4q-16 8 -8 20zM1400 1572q8 64 52 108q16 -20 52 -60t52 -60zM1476 1700q48 36 116 36q-8 -104 -16 -160l-32 40t-36 44t-32 40zM1588 1352q4 28 8 78t4 74q20 -20 52 -60t48 -56q-48 -36 -112 -36zM1608 1576q8 104 12 160 q64 -12 108 -56q-20 -20 -60 -54t-60 -50zM1624 1524l156 -12q-12 -64 -56 -108q-16 20 -50 60t-50 60zM1628 1552q20 20 60 54t60 50q36 -56 36 -116z" />
<glyph unicode="z" d="M176 1448q-4 16 6 36t30 28q16 8 48 8h1220q52 0 72 -28q14 -18 14 -36q0 -22 -22 -44q-16 -20 -188 -216t-264 -296q-48 -56 -68 -68q-52 -28 -96 -32v-328q-1 -9 -1 -18q0 -60 49 -102q24 -24 76 -66t80 -62q24 -16 24 -28q0 -16 -28 -16h-452q-28 0 -28 16q0 12 16 28 q24 20 70 60t70 60q16 12 32 44q20 40 20 72v340q-24 0 -72 16q-52 20 -76 52q-84 92 -254 270t-254 270q-20 20 -24 40zM260 1448h1220q-152 -176 -464 -528q-28 -36 -84 -48h-60q-8 -1 -17 -1q-57 0 -99 49q-80 88 -248 264t-248 264zM456 1372q4 16 24 16h28h760 q32 0 40 -8q20 -12 0 -32q-4 -8 -20 -22t-20 -22q-36 -40 -102 -110t-120 -128t-102 -110l-16 -12q-16 -12 -24 -16q-9 -2 -17 -2q-28 0 -47 22q-60 64 -184 194t-184 194q-20 28 -16 36zM1308 1568q0 64 32 120q28 44 80 84q64 48 144 56q104 0 164 -32q68 -44 104 -104 q41 -65 41 -142q0 -13 -1 -26q-8 -92 -64 -160q-52 -64 -128 -88q-39 -18 -85 -18q-15 0 -31 2q-24 8 -20 32q8 16 20 16h56q72 8 128 60t72 124q7 30 7 58q0 51 -23 98q-44 80 -104 104q-50 27 -106 27q-18 0 -38 -3q-72 -4 -132 -64q-60 -56 -68 -136q0 -20 -8 -28 q-16 -16 -32 0q-16 8 -8 20zM1400 1572q8 64 52 108q16 -20 52 -60t52 -60zM1476 1700q48 36 116 36q-8 -104 -16 -160l-32 40t-36 44t-32 40zM1588 1352q4 28 8 78t4 74q20 -20 52 -60t48 -56q-48 -36 -112 -36zM1608 1576q8 104 12 160q64 -12 108 -56q-20 -20 -60 -54 t-60 -50zM1624 1524l156 -12q-12 -64 -56 -108q-16 20 -50 60t-50 60zM1628 1552q20 20 60 54t60 50q36 -56 36 -116z" />
<glyph unicode="&#x2000;" horiz-adv-x="914" />
<glyph unicode="&#x2001;" horiz-adv-x="1828" />
<glyph unicode="&#x2002;" horiz-adv-x="914" />
<glyph unicode="&#x2003;" horiz-adv-x="1828" />
<glyph unicode="&#x2004;" horiz-adv-x="609" />
<glyph unicode="&#x2005;" horiz-adv-x="457" />
<glyph unicode="&#x2006;" horiz-adv-x="304" />
<glyph unicode="&#x2007;" horiz-adv-x="304" />
<glyph unicode="&#x2008;" horiz-adv-x="228" />
<glyph unicode="&#x2009;" horiz-adv-x="365" />
<glyph unicode="&#x200a;" horiz-adv-x="101" />
<glyph unicode="&#x202f;" horiz-adv-x="365" />
<glyph unicode="&#x205f;" horiz-adv-x="457" />
<glyph unicode="&#x25fc;" horiz-adv-x="1820" d="M0 0v1820h1820v-1820h-1820z" />
</font>
</defs>
</svg>
